<svg xmlns="http://www.w3.org/2000/svg" xmlns:xlink="http://www.w3.org/1999/xlink" width="500" zoomAndPan="magnify" viewBox="0 0 375 374.999991" height="500" preserveAspectRatio="xMidYMid meet" version="1.0"><defs><g/></defs><g fill="#ff3131" fill-opacity="0.302"><g transform="translate(67.544323, 353.108231)"><g><path d="M 296.171875 0 L 209.671875 0 L 140.25 -100.03125 L 70.84375 0 L -12.109375 0 L 98.953125 -158.046875 L 6.40625 -293.671875 L 86.140625 -293.671875 L 140.25 -213.578125 L 194.359375 -293.671875 L 277.65625 -293.671875 L 181.546875 -158.046875 Z M 296.171875 0 "/></g></g></g><g fill="#ff3131" fill-opacity="0.502"><g transform="translate(43.946014, 329.509923)"><g><path d="M 296.171875 0 L 209.671875 0 L 140.25 -100.03125 L 70.84375 0 L -12.109375 0 L 98.953125 -158.046875 L 6.40625 -293.671875 L 86.140625 -293.671875 L 140.25 -213.578125 L 194.359375 -293.671875 L 277.65625 -293.671875 L 181.546875 -158.046875 Z M 296.171875 0 "/></g></g></g><g fill="#ff3131" fill-opacity="1"><g transform="translate(20.347705, 305.911612)"><g><path d="M 296.171875 0 L 209.671875 0 L 140.25 -100.03125 L 70.84375 0 L -12.109375 0 L 98.953125 -158.046875 L 6.40625 -293.671875 L 86.140625 -293.671875 L 140.25 -213.578125 L 194.359375 -293.671875 L 277.65625 -293.671875 L 181.546875 -158.046875 Z M 296.171875 0 "/></g></g></g></svg>