<svg xmlns="http://www.w3.org/2000/svg" xmlns:xlink="http://www.w3.org/1999/xlink" width="308" zoomAndPan="magnify" viewBox="0 0 230.87999 73.499998" height="98" preserveAspectRatio="xMidYMid meet" version="1.0"><defs><g/><clipPath id="85e1e0618b"><path d="M 42 19 L 199.589844 19 L 199.589844 65.125 L 42 65.125 Z M 42 19 " clip-rule="nonzero"/></clipPath><clipPath id="21ae77f35b"><path d="M 31.234375 7.765625 L 84 7.765625 L 84 29 L 31.234375 29 Z M 31.234375 7.765625 " clip-rule="nonzero"/></clipPath><clipPath id="2b967d1475"><path d="M 45.125 21.902344 L 74.175781 21.902344 L 74.175781 50.953125 L 45.125 50.953125 Z M 45.125 21.902344 " clip-rule="nonzero"/></clipPath></defs><g clip-path="url(#85e1e0618b)"><path fill="#a6a6a6" d="M 195.425781 65.214844 L 46.359375 65.214844 C 44.042969 65.214844 42.148438 63.320312 42.148438 61.003906 L 42.148438 23.722656 C 42.148438 21.40625 44.042969 19.511719 46.359375 19.511719 L 195.425781 19.511719 C 197.742188 19.511719 199.636719 21.40625 199.636719 23.722656 L 199.636719 60.996094 C 199.636719 63.320312 197.742188 65.214844 195.425781 65.214844 Z M 195.425781 65.214844 " fill-opacity="1" fill-rule="nonzero"/></g><path fill="#ffffff" d="M 188.867188 57.796875 L 39.789062 57.796875 C 37.472656 57.796875 35.578125 55.902344 35.578125 53.585938 L 35.578125 16.3125 C 35.578125 13.996094 37.472656 12.101562 39.789062 12.101562 L 188.859375 12.101562 C 191.175781 12.101562 193.070312 13.996094 193.070312 16.3125 L 193.070312 53.585938 C 193.078125 55.902344 191.183594 57.796875 188.867188 57.796875 Z M 188.867188 57.796875 " fill-opacity="1" fill-rule="nonzero"/><path fill="#ee4a62" d="M 188.546875 58.707031 L 40.109375 58.707031 C 37.113281 58.707031 34.679688 56.265625 34.679688 53.277344 L 34.679688 16.632812 C 34.679688 13.632812 37.121094 11.199219 40.109375 11.199219 L 188.546875 11.199219 C 191.542969 11.199219 193.976562 13.644531 193.976562 16.632812 L 193.976562 53.277344 C 193.976562 56.265625 191.542969 58.707031 188.546875 58.707031 Z M 40.109375 13.003906 C 38.113281 13.003906 36.488281 14.628906 36.488281 16.625 L 36.488281 53.269531 C 36.488281 55.261719 38.113281 56.886719 40.109375 56.886719 L 188.546875 56.886719 C 190.542969 56.886719 192.167969 55.261719 192.167969 53.269531 L 192.167969 16.632812 C 192.167969 14.636719 190.542969 13.011719 188.546875 13.011719 L 40.109375 13.011719 Z M 40.109375 13.003906 " fill-opacity="1" fill-rule="nonzero"/><g clip-path="url(#21ae77f35b)"><path fill="#ee4a62" d="M 32.144531 28.066406 C 31.648438 28.066406 31.234375 27.664062 31.234375 27.15625 L 31.234375 13.214844 C 31.234375 10.214844 33.675781 7.78125 36.667969 7.78125 L 82.902344 7.78125 C 83.398438 7.78125 83.808594 8.1875 83.808594 8.691406 C 83.808594 9.1875 83.40625 9.601562 82.902344 9.601562 L 36.667969 9.601562 C 34.671875 9.601562 33.046875 11.226562 33.046875 13.222656 L 33.046875 27.164062 C 33.046875 27.664062 32.640625 28.066406 32.144531 28.066406 Z M 32.144531 28.066406 " fill-opacity="1" fill-rule="nonzero"/></g><g clip-path="url(#2b967d1475)"><path fill="#ee4a62" d="M 59.722656 21.902344 C 51.660156 21.902344 45.125 28.4375 45.125 36.496094 C 45.125 44.558594 51.660156 51.09375 59.722656 51.09375 C 67.78125 51.09375 74.316406 44.558594 74.316406 36.496094 C 74.316406 28.4375 67.78125 21.902344 59.722656 21.902344 Z M 50.824219 29.515625 L 68.597656 29.515625 C 68.644531 29.515625 68.671875 29.535156 68.691406 29.578125 C 68.707031 29.617188 68.699219 29.65625 68.667969 29.683594 L 62.691406 35.355469 L 62.679688 35.363281 L 60.898438 37.058594 C 60.726562 37.222656 60.527344 37.347656 60.308594 37.4375 C 60.085938 37.523438 59.859375 37.566406 59.621094 37.566406 C 59.382812 37.5625 59.152344 37.519531 58.933594 37.429688 C 58.714844 37.339844 58.519531 37.210938 58.347656 37.042969 L 56.695312 35.441406 C 56.695312 35.441406 56.691406 35.4375 56.6875 35.433594 L 50.753906 29.683594 C 50.722656 29.652344 50.714844 29.617188 50.734375 29.578125 C 50.75 29.535156 50.78125 29.515625 50.824219 29.515625 Z M 49.988281 42.496094 L 49.988281 30.300781 C 49.988281 30.257812 50.007812 30.226562 50.046875 30.210938 C 50.085938 30.191406 50.121094 30.199219 50.152344 30.230469 L 55.789062 35.695312 C 55.835938 35.738281 55.835938 35.78125 55.796875 35.828125 L 50.160156 42.5625 C 50.132812 42.597656 50.09375 42.605469 50.050781 42.589844 C 50.007812 42.574219 49.988281 42.542969 49.988281 42.496094 Z M 68.78125 43.480469 L 50.660156 43.480469 C 50.617188 43.480469 50.589844 43.460938 50.570312 43.421875 C 50.554688 43.382812 50.558594 43.347656 50.585938 43.316406 L 56.371094 36.40625 C 56.417969 36.351562 56.464844 36.351562 56.515625 36.398438 L 57.78125 37.625 C 58.292969 38.121094 58.902344 38.371094 59.613281 38.375 L 59.628906 38.375 C 60.335938 38.375 60.945312 38.132812 61.453125 37.644531 L 62.855469 36.316406 C 62.90625 36.269531 62.953125 36.269531 63 36.324219 L 68.855469 43.316406 C 68.882812 43.347656 68.886719 43.382812 68.871094 43.421875 C 68.851562 43.460938 68.824219 43.476562 68.78125 43.480469 Z M 69.453125 42.496094 C 69.453125 42.542969 69.433594 42.574219 69.390625 42.589844 C 69.347656 42.605469 69.3125 42.597656 69.28125 42.5625 L 63.582031 35.753906 C 63.542969 35.707031 63.542969 35.664062 63.589844 35.621094 L 69.289062 30.210938 C 69.320312 30.183594 69.355469 30.175781 69.394531 30.191406 C 69.433594 30.210938 69.453125 30.238281 69.453125 30.28125 Z M 69.453125 42.496094 " fill-opacity="1" fill-rule="nonzero"/></g><g fill="#8f8f90" fill-opacity="1"><g transform="translate(90.689095, 32.976421)"><g><path d="M 5.0625 -7.78125 L 5.0625 -6.234375 L 2.34375 -6.234375 L 2.34375 -4.6875 L 4.859375 -4.6875 L 4.859375 -3.125 L 2.34375 -3.125 L 2.34375 0 L 0.5625 0 L 0.5625 -7.78125 Z M 5.0625 -7.78125 "/></g></g></g><g fill="#8f8f90" fill-opacity="1"><g transform="translate(96.034782, 32.976421)"><g><path d="M 0.21875 -3.890625 C 0.21875 -5.023438 0.597656 -5.976562 1.359375 -6.75 C 2.128906 -7.53125 3.054688 -7.921875 4.140625 -7.921875 C 5.234375 -7.921875 6.160156 -7.53125 6.921875 -6.75 C 7.679688 -5.976562 8.0625 -5.023438 8.0625 -3.890625 C 8.0625 -2.753906 7.6875 -1.796875 6.9375 -1.015625 C 6.1875 -0.242188 5.253906 0.140625 4.140625 0.140625 C 3.003906 0.140625 2.066406 -0.242188 1.328125 -1.015625 C 0.585938 -1.785156 0.21875 -2.742188 0.21875 -3.890625 Z M 2.140625 -3.890625 C 2.140625 -3.484375 2.203125 -3.113281 2.328125 -2.78125 C 2.453125 -2.445312 2.671875 -2.160156 2.984375 -1.921875 C 3.296875 -1.691406 3.679688 -1.578125 4.140625 -1.578125 C 4.804688 -1.578125 5.304688 -1.800781 5.640625 -2.25 C 5.972656 -2.707031 6.140625 -3.253906 6.140625 -3.890625 C 6.140625 -4.523438 5.96875 -5.070312 5.625 -5.53125 C 5.28125 -5.988281 4.785156 -6.21875 4.140625 -6.21875 C 3.503906 -6.21875 3.007812 -5.988281 2.65625 -5.53125 C 2.3125 -5.070312 2.140625 -4.523438 2.140625 -3.890625 Z M 2.140625 -3.890625 "/></g></g></g><g fill="#8f8f90" fill-opacity="1"><g transform="translate(104.303161, 32.976421)"><g><path d="M 0.5625 -7.78125 L 3.34375 -7.78125 C 4.09375 -7.78125 4.703125 -7.582031 5.171875 -7.1875 C 5.648438 -6.789062 5.890625 -6.21875 5.890625 -5.46875 C 5.890625 -4.894531 5.742188 -4.414062 5.453125 -4.03125 C 5.171875 -3.644531 4.785156 -3.375 4.296875 -3.21875 L 6.96875 0 L 4.71875 0 L 2.34375 -3.078125 L 2.34375 0 L 0.5625 0 Z M 2.34375 -4.328125 L 2.546875 -4.328125 C 2.710938 -4.328125 2.851562 -4.328125 2.96875 -4.328125 C 3.082031 -4.335938 3.207031 -4.363281 3.34375 -4.40625 C 3.488281 -4.445312 3.601562 -4.5 3.6875 -4.5625 C 3.78125 -4.632812 3.859375 -4.734375 3.921875 -4.859375 C 3.984375 -4.992188 4.015625 -5.15625 4.015625 -5.34375 C 4.015625 -5.539062 3.984375 -5.703125 3.921875 -5.828125 C 3.859375 -5.960938 3.78125 -6.0625 3.6875 -6.125 C 3.601562 -6.195312 3.488281 -6.25 3.34375 -6.28125 C 3.207031 -6.320312 3.082031 -6.347656 2.96875 -6.359375 C 2.851562 -6.367188 2.710938 -6.375 2.546875 -6.375 L 2.34375 -6.375 Z M 2.34375 -4.328125 "/></g></g></g><g fill="#8f8f90" fill-opacity="1"><g transform="translate(111.053622, 32.976421)"><g/></g></g><g fill="#8f8f90" fill-opacity="1"><g transform="translate(113.627467, 32.976421)"><g><path d="M 5.015625 -7.78125 L 5.015625 -6.234375 L 2.34375 -6.234375 L 2.34375 -4.6875 L 4.90625 -4.6875 L 4.90625 -3.125 L 2.34375 -3.125 L 2.34375 -1.5625 L 5.015625 -1.5625 L 5.015625 0 L 0.5625 0 L 0.5625 -7.78125 Z M 5.015625 -7.78125 "/></g></g></g><g fill="#8f8f90" fill-opacity="1"><g transform="translate(119.095723, 32.976421)"><g><path d="M 2.34375 -4.828125 L 2.34375 0 L 0.5625 0 L 0.5625 -7.78125 L 2.34375 -7.78125 L 5.4375 -2.953125 L 5.453125 -2.953125 L 5.453125 -7.78125 L 7.234375 -7.78125 L 7.234375 0 L 5.453125 0 L 2.359375 -4.828125 Z M 2.34375 -4.828125 "/></g></g></g><g fill="#8f8f90" fill-opacity="1"><g transform="translate(126.883265, 32.976421)"><g><path d="M 2.46875 1.625 L 2.03125 0.984375 C 2.050781 0.960938 2.078125 0.929688 2.109375 0.890625 C 2.140625 0.859375 2.207031 0.789062 2.3125 0.6875 C 2.414062 0.582031 2.515625 0.488281 2.609375 0.40625 C 2.703125 0.332031 2.8125 0.265625 2.9375 0.203125 C 3.0625 0.140625 3.175781 0.109375 3.28125 0.109375 L 3.28125 0.0625 C 2.363281 -0.113281 1.625 -0.566406 1.0625 -1.296875 C 0.5 -2.023438 0.21875 -2.890625 0.21875 -3.890625 C 0.21875 -5.023438 0.59375 -5.976562 1.34375 -6.75 C 2.101562 -7.53125 3.019531 -7.921875 4.09375 -7.921875 C 5.175781 -7.921875 6.09375 -7.53125 6.84375 -6.75 C 7.59375 -5.976562 7.96875 -5.023438 7.96875 -3.890625 C 7.96875 -2.972656 7.71875 -2.160156 7.21875 -1.453125 C 6.71875 -0.742188 6.0625 -0.269531 5.25 -0.03125 L 5.25 0.015625 C 5.289062 0.015625 5.457031 0.0390625 5.75 0.09375 C 6.050781 0.15625 6.289062 0.1875 6.46875 0.1875 C 6.707031 0.1875 6.921875 0.144531 7.109375 0.0625 C 7.304688 -0.0195312 7.441406 -0.101562 7.515625 -0.1875 L 7.640625 -0.328125 L 8.1875 0.875 C 8.175781 0.90625 8.15625 0.941406 8.125 0.984375 C 8.101562 1.035156 8.039062 1.117188 7.9375 1.234375 C 7.832031 1.359375 7.71875 1.46875 7.59375 1.5625 C 7.476562 1.65625 7.316406 1.738281 7.109375 1.8125 C 6.898438 1.894531 6.679688 1.9375 6.453125 1.9375 C 6.066406 1.9375 5.597656 1.8125 5.046875 1.5625 C 4.492188 1.320312 4.015625 1.203125 3.609375 1.203125 C 3.390625 1.203125 3.179688 1.238281 2.984375 1.3125 C 2.796875 1.382812 2.660156 1.457031 2.578125 1.53125 Z M 2.140625 -3.890625 C 2.140625 -3.585938 2.171875 -3.304688 2.234375 -3.046875 C 2.304688 -2.785156 2.414062 -2.546875 2.5625 -2.328125 C 2.707031 -2.117188 2.910156 -1.953125 3.171875 -1.828125 C 3.429688 -1.710938 3.738281 -1.65625 4.09375 -1.65625 C 4.757812 -1.65625 5.25 -1.867188 5.5625 -2.296875 C 5.882812 -2.722656 6.046875 -3.253906 6.046875 -3.890625 C 6.046875 -4.523438 5.878906 -5.054688 5.546875 -5.484375 C 5.222656 -5.921875 4.738281 -6.140625 4.09375 -6.140625 C 3.457031 -6.140625 2.972656 -5.921875 2.640625 -5.484375 C 2.304688 -5.054688 2.140625 -4.523438 2.140625 -3.890625 Z M 2.140625 -3.890625 "/></g></g></g><g fill="#8f8f90" fill-opacity="1"><g transform="translate(135.057356, 32.976421)"><g><path d="M 6.546875 -7.78125 L 6.546875 -2.765625 C 6.546875 -1.804688 6.285156 -1.082031 5.765625 -0.59375 C 5.253906 -0.101562 4.5 0.140625 3.5 0.140625 C 2.507812 0.140625 1.753906 -0.101562 1.234375 -0.59375 C 0.722656 -1.082031 0.46875 -1.804688 0.46875 -2.765625 L 0.46875 -7.78125 L 2.25 -7.78125 L 2.25 -3.28125 C 2.25 -2.65625 2.347656 -2.21875 2.546875 -1.96875 C 2.742188 -1.726562 3.066406 -1.609375 3.515625 -1.609375 C 3.960938 -1.609375 4.285156 -1.726562 4.484375 -1.96875 C 4.679688 -2.21875 4.78125 -2.65625 4.78125 -3.28125 L 4.78125 -7.78125 Z M 6.546875 -7.78125 "/></g></g></g><g fill="#8f8f90" fill-opacity="1"><g transform="translate(142.07181, 32.976421)"><g><path d="M 2.34375 -7.78125 L 2.34375 0 L 0.5625 0 L 0.5625 -7.78125 Z M 2.34375 -7.78125 "/></g></g></g><g fill="#8f8f90" fill-opacity="1"><g transform="translate(144.975644, 32.976421)"><g><path d="M 0.5625 -7.78125 L 3.34375 -7.78125 C 4.09375 -7.78125 4.703125 -7.582031 5.171875 -7.1875 C 5.648438 -6.789062 5.890625 -6.21875 5.890625 -5.46875 C 5.890625 -4.894531 5.742188 -4.414062 5.453125 -4.03125 C 5.171875 -3.644531 4.785156 -3.375 4.296875 -3.21875 L 6.96875 0 L 4.71875 0 L 2.34375 -3.078125 L 2.34375 0 L 0.5625 0 Z M 2.34375 -4.328125 L 2.546875 -4.328125 C 2.710938 -4.328125 2.851562 -4.328125 2.96875 -4.328125 C 3.082031 -4.335938 3.207031 -4.363281 3.34375 -4.40625 C 3.488281 -4.445312 3.601562 -4.5 3.6875 -4.5625 C 3.78125 -4.632812 3.859375 -4.734375 3.921875 -4.859375 C 3.984375 -4.992188 4.015625 -5.15625 4.015625 -5.34375 C 4.015625 -5.539062 3.984375 -5.703125 3.921875 -5.828125 C 3.859375 -5.960938 3.78125 -6.0625 3.6875 -6.125 C 3.601562 -6.195312 3.488281 -6.25 3.34375 -6.28125 C 3.207031 -6.320312 3.082031 -6.347656 2.96875 -6.359375 C 2.851562 -6.367188 2.710938 -6.375 2.546875 -6.375 L 2.34375 -6.375 Z M 2.34375 -4.328125 "/></g></g></g><g fill="#8f8f90" fill-opacity="1"><g transform="translate(151.726105, 32.976421)"><g><path d="M -0.28125 -7.78125 L 1.84375 -7.78125 L 3.46875 -5.296875 L 5.09375 -7.78125 L 7.234375 -7.78125 L 4.359375 -3.484375 L 4.359375 0 L 2.578125 0 L 2.578125 -3.484375 Z M -0.28125 -7.78125 "/></g></g></g><g fill="#8f8f90" fill-opacity="1"><g transform="translate(158.675813, 32.976421)"><g/></g></g><g fill="#ee4a62" fill-opacity="1"><g transform="translate(77.018161, 42.414683)"><g><path d="M 3.5 -1.5625 L 1.21875 -1.5625 C 1.25 -1.257812 1.335938 -1.035156 1.484375 -0.890625 C 1.628906 -0.753906 1.832031 -0.6875 2.09375 -0.6875 C 2.300781 -0.6875 2.46875 -0.722656 2.59375 -0.796875 C 2.71875 -0.867188 2.816406 -0.984375 2.890625 -1.140625 L 2.953125 -1.140625 L 3.546875 -0.765625 C 3.429688 -0.515625 3.253906 -0.3125 3.015625 -0.15625 C 2.785156 -0.0078125 2.476562 0.0625 2.09375 0.0625 C 1.726562 0.0625 1.410156 -0.00390625 1.140625 -0.140625 C 0.878906 -0.273438 0.675781 -0.476562 0.53125 -0.75 C 0.382812 -1.03125 0.3125 -1.367188 0.3125 -1.765625 C 0.3125 -2.171875 0.382812 -2.507812 0.53125 -2.78125 C 0.6875 -3.050781 0.894531 -3.253906 1.15625 -3.390625 C 1.414062 -3.535156 1.707031 -3.609375 2.03125 -3.609375 C 2.53125 -3.609375 2.910156 -3.472656 3.171875 -3.203125 C 3.441406 -2.941406 3.578125 -2.550781 3.578125 -2.03125 C 3.578125 -1.851562 3.570312 -1.710938 3.5625 -1.609375 Z M 2.734375 -2.140625 C 2.722656 -2.410156 2.660156 -2.601562 2.546875 -2.71875 C 2.429688 -2.84375 2.257812 -2.90625 2.03125 -2.90625 C 1.582031 -2.90625 1.316406 -2.648438 1.234375 -2.140625 Z M 2.734375 -2.140625 "/></g></g><g transform="translate(80.86456, 42.414683)"><g><path d="M 1.75 0.0625 C 1.46875 0.0625 1.21875 -0.00390625 1 -0.140625 C 0.789062 -0.273438 0.625 -0.476562 0.5 -0.75 C 0.375 -1.019531 0.3125 -1.359375 0.3125 -1.765625 C 0.3125 -2.171875 0.375 -2.507812 0.5 -2.78125 C 0.625 -3.050781 0.796875 -3.253906 1.015625 -3.390625 C 1.242188 -3.535156 1.503906 -3.609375 1.796875 -3.609375 C 2.015625 -3.609375 2.203125 -3.566406 2.359375 -3.484375 C 2.523438 -3.410156 2.660156 -3.296875 2.765625 -3.140625 L 2.84375 -3.15625 L 2.84375 -4.953125 L 3.734375 -4.953125 L 3.734375 0 L 2.84375 0 L 2.84375 -0.453125 L 2.765625 -0.46875 C 2.671875 -0.300781 2.535156 -0.171875 2.359375 -0.078125 C 2.191406 0.015625 1.988281 0.0625 1.75 0.0625 Z M 2.03125 -0.6875 C 2.28125 -0.6875 2.476562 -0.773438 2.625 -0.953125 C 2.769531 -1.128906 2.84375 -1.398438 2.84375 -1.765625 C 2.84375 -2.128906 2.769531 -2.398438 2.625 -2.578125 C 2.476562 -2.753906 2.28125 -2.84375 2.03125 -2.84375 C 1.769531 -2.84375 1.570312 -2.753906 1.4375 -2.578125 C 1.300781 -2.410156 1.234375 -2.140625 1.234375 -1.765625 C 1.234375 -1.390625 1.300781 -1.113281 1.4375 -0.9375 C 1.570312 -0.769531 1.769531 -0.6875 2.03125 -0.6875 Z M 2.03125 -0.6875 "/></g></g><g transform="translate(85.105544, 42.414683)"><g><path d="M 1.625 0.0625 C 1.21875 0.0625 0.921875 -0.0390625 0.734375 -0.25 C 0.546875 -0.46875 0.453125 -0.78125 0.453125 -1.1875 L 0.453125 -3.53125 L 1.34375 -3.53125 L 1.34375 -1.296875 C 1.34375 -1.085938 1.390625 -0.929688 1.484375 -0.828125 C 1.578125 -0.734375 1.71875 -0.6875 1.90625 -0.6875 C 2.15625 -0.6875 2.347656 -0.765625 2.484375 -0.921875 C 2.617188 -1.085938 2.6875 -1.34375 2.6875 -1.6875 L 2.6875 -3.53125 L 3.578125 -3.53125 L 3.578125 0 L 2.734375 0 L 2.734375 -0.515625 L 2.65625 -0.53125 C 2.539062 -0.332031 2.398438 -0.179688 2.234375 -0.078125 C 2.078125 0.015625 1.875 0.0625 1.625 0.0625 Z M 1.625 0.0625 "/></g></g><g transform="translate(89.19896, 42.414683)"><g><path d="M 1 0 L 0.0625 0 L 1.0625 -1.828125 L 0.109375 -3.53125 L 1.0625 -3.53125 L 1.671875 -2.375 L 1.75 -2.375 L 2.359375 -3.53125 L 3.28125 -3.53125 L 2.359375 -1.828125 L 3.34375 0 L 2.390625 0 L 1.734375 -1.296875 L 1.65625 -1.296875 Z M 1 0 "/></g></g><g transform="translate(92.602654, 42.414683)"><g><path d="M 2.0625 0.0625 C 1.71875 0.0625 1.414062 -0.00390625 1.15625 -0.140625 C 0.894531 -0.285156 0.6875 -0.492188 0.53125 -0.765625 C 0.382812 -1.046875 0.3125 -1.378906 0.3125 -1.765625 C 0.3125 -2.148438 0.382812 -2.476562 0.53125 -2.75 C 0.6875 -3.03125 0.894531 -3.242188 1.15625 -3.390625 C 1.414062 -3.535156 1.710938 -3.609375 2.046875 -3.609375 C 2.785156 -3.609375 3.265625 -3.335938 3.484375 -2.796875 L 2.875 -2.359375 L 2.796875 -2.359375 C 2.722656 -2.523438 2.628906 -2.644531 2.515625 -2.71875 C 2.398438 -2.800781 2.242188 -2.84375 2.046875 -2.84375 C 1.785156 -2.84375 1.582031 -2.753906 1.4375 -2.578125 C 1.300781 -2.398438 1.234375 -2.128906 1.234375 -1.765625 C 1.234375 -1.398438 1.304688 -1.128906 1.453125 -0.953125 C 1.597656 -0.773438 1.800781 -0.6875 2.0625 -0.6875 C 2.25 -0.6875 2.410156 -0.738281 2.546875 -0.84375 C 2.679688 -0.945312 2.773438 -1.09375 2.828125 -1.28125 L 2.90625 -1.296875 L 3.53125 -0.953125 C 3.445312 -0.648438 3.28125 -0.40625 3.03125 -0.21875 C 2.789062 -0.03125 2.46875 0.0625 2.0625 0.0625 Z M 2.0625 0.0625 "/></g></g><g transform="translate(96.250157, 42.414683)"><g><path d="M 0.515625 0 L 0.515625 -4.953125 L 1.390625 -4.953125 L 1.390625 -3.078125 L 1.46875 -3.0625 C 1.582031 -3.226562 1.722656 -3.359375 1.890625 -3.453125 C 2.066406 -3.554688 2.273438 -3.609375 2.515625 -3.609375 C 3.296875 -3.609375 3.6875 -3.164062 3.6875 -2.28125 L 3.6875 0 L 2.796875 0 L 2.796875 -2.15625 C 2.796875 -2.40625 2.75 -2.582031 2.65625 -2.6875 C 2.5625 -2.800781 2.410156 -2.859375 2.203125 -2.859375 C 1.953125 -2.859375 1.753906 -2.773438 1.609375 -2.609375 C 1.460938 -2.441406 1.390625 -2.179688 1.390625 -1.828125 L 1.390625 0 Z M 0.515625 0 "/></g></g><g transform="translate(100.3949, 42.414683)"><g><path d="M 1.375 0.0625 C 1.144531 0.0625 0.945312 0.0195312 0.78125 -0.0625 C 0.613281 -0.144531 0.484375 -0.265625 0.390625 -0.421875 C 0.304688 -0.585938 0.265625 -0.78125 0.265625 -1 C 0.265625 -1.207031 0.304688 -1.382812 0.390625 -1.53125 C 0.484375 -1.675781 0.625 -1.789062 0.8125 -1.875 C 1.007812 -1.96875 1.257812 -2.039062 1.5625 -2.09375 C 1.769531 -2.125 1.925781 -2.160156 2.03125 -2.203125 C 2.144531 -2.242188 2.21875 -2.289062 2.25 -2.34375 C 2.289062 -2.394531 2.3125 -2.457031 2.3125 -2.53125 C 2.3125 -2.644531 2.269531 -2.734375 2.1875 -2.796875 C 2.113281 -2.859375 1.988281 -2.890625 1.8125 -2.890625 C 1.613281 -2.890625 1.425781 -2.84375 1.25 -2.75 C 1.070312 -2.664062 0.914062 -2.550781 0.78125 -2.40625 L 0.71875 -2.40625 L 0.34375 -2.96875 C 0.53125 -3.164062 0.75 -3.320312 1 -3.4375 C 1.257812 -3.550781 1.546875 -3.609375 1.859375 -3.609375 C 2.316406 -3.609375 2.648438 -3.503906 2.859375 -3.296875 C 3.078125 -3.097656 3.1875 -2.816406 3.1875 -2.453125 L 3.1875 -0.921875 C 3.1875 -0.765625 3.253906 -0.6875 3.390625 -0.6875 C 3.441406 -0.6875 3.492188 -0.695312 3.546875 -0.71875 L 3.59375 -0.703125 L 3.65625 -0.078125 C 3.601562 -0.046875 3.53125 -0.0195312 3.4375 0 C 3.351562 0.0195312 3.257812 0.03125 3.15625 0.03125 C 2.945312 0.03125 2.78125 -0.0078125 2.65625 -0.09375 C 2.539062 -0.175781 2.457031 -0.304688 2.40625 -0.484375 L 2.34375 -0.484375 C 2.175781 -0.117188 1.851562 0.0625 1.375 0.0625 Z M 1.65625 -0.59375 C 1.863281 -0.59375 2.03125 -0.660156 2.15625 -0.796875 C 2.28125 -0.941406 2.34375 -1.132812 2.34375 -1.375 L 2.34375 -1.734375 L 2.28125 -1.75 C 2.21875 -1.707031 2.144531 -1.671875 2.0625 -1.640625 C 1.976562 -1.609375 1.851562 -1.582031 1.6875 -1.5625 C 1.5 -1.53125 1.363281 -1.472656 1.28125 -1.390625 C 1.195312 -1.316406 1.15625 -1.207031 1.15625 -1.0625 C 1.15625 -0.90625 1.195312 -0.785156 1.28125 -0.703125 C 1.375 -0.628906 1.5 -0.59375 1.65625 -0.59375 Z M 1.65625 -0.59375 "/></g></g><g transform="translate(104.125811, 42.414683)"><g><path d="M 0.515625 0 L 0.515625 -3.53125 L 1.359375 -3.53125 L 1.359375 -3.015625 L 1.421875 -3 C 1.648438 -3.40625 2.007812 -3.609375 2.5 -3.609375 C 2.90625 -3.609375 3.203125 -3.492188 3.390625 -3.265625 C 3.585938 -3.046875 3.6875 -2.722656 3.6875 -2.296875 L 3.6875 0 L 2.796875 0 L 2.796875 -2.1875 C 2.796875 -2.425781 2.75 -2.597656 2.65625 -2.703125 C 2.5625 -2.804688 2.410156 -2.859375 2.203125 -2.859375 C 1.953125 -2.859375 1.753906 -2.773438 1.609375 -2.609375 C 1.460938 -2.441406 1.390625 -2.179688 1.390625 -1.828125 L 1.390625 0 Z M 0.515625 0 "/></g></g><g transform="translate(108.270555, 42.414683)"><g><path d="M 1.828125 1.5 C 1.242188 1.5 0.8125 1.410156 0.53125 1.234375 C 0.257812 1.066406 0.125 0.832031 0.125 0.53125 C 0.125 0.34375 0.179688 0.1875 0.296875 0.0625 C 0.421875 -0.0507812 0.59375 -0.128906 0.8125 -0.171875 L 0.8125 -0.234375 C 0.695312 -0.304688 0.613281 -0.382812 0.5625 -0.46875 C 0.507812 -0.5625 0.484375 -0.664062 0.484375 -0.78125 C 0.484375 -1.070312 0.664062 -1.265625 1.03125 -1.359375 L 1.03125 -1.421875 C 0.84375 -1.535156 0.695312 -1.671875 0.59375 -1.828125 C 0.5 -1.992188 0.453125 -2.191406 0.453125 -2.421875 C 0.453125 -2.648438 0.503906 -2.851562 0.609375 -3.03125 C 0.722656 -3.207031 0.882812 -3.347656 1.09375 -3.453125 C 1.300781 -3.554688 1.550781 -3.609375 1.84375 -3.609375 C 2.132812 -3.609375 2.367188 -3.554688 2.546875 -3.453125 C 2.648438 -3.609375 2.710938 -3.789062 2.734375 -4 L 2.796875 -4.03125 L 3.4375 -3.875 C 3.414062 -3.707031 3.363281 -3.566406 3.28125 -3.453125 C 3.207031 -3.335938 3.085938 -3.238281 2.921875 -3.15625 L 2.921875 -3.078125 C 3.117188 -2.898438 3.21875 -2.65625 3.21875 -2.34375 C 3.21875 -2.125 3.160156 -1.925781 3.046875 -1.75 C 2.941406 -1.582031 2.785156 -1.445312 2.578125 -1.34375 C 2.367188 -1.25 2.125 -1.203125 1.84375 -1.203125 L 1.703125 -1.203125 C 1.617188 -1.203125 1.5625 -1.203125 1.53125 -1.203125 C 1.445312 -1.203125 1.378906 -1.179688 1.328125 -1.140625 C 1.285156 -1.097656 1.265625 -1.039062 1.265625 -0.96875 C 1.265625 -0.894531 1.296875 -0.835938 1.359375 -0.796875 C 1.421875 -0.753906 1.507812 -0.734375 1.625 -0.734375 L 2.40625 -0.703125 C 3.1875 -0.679688 3.578125 -0.34375 3.578125 0.3125 C 3.578125 0.539062 3.519531 0.742188 3.40625 0.921875 C 3.289062 1.097656 3.101562 1.238281 2.84375 1.34375 C 2.582031 1.445312 2.242188 1.5 1.828125 1.5 Z M 1.84375 -1.8125 C 2.007812 -1.8125 2.140625 -1.863281 2.234375 -1.96875 C 2.335938 -2.070312 2.390625 -2.21875 2.390625 -2.40625 C 2.390625 -2.582031 2.335938 -2.722656 2.234375 -2.828125 C 2.140625 -2.929688 2.007812 -2.984375 1.84375 -2.984375 C 1.664062 -2.984375 1.53125 -2.929688 1.4375 -2.828125 C 1.34375 -2.722656 1.296875 -2.582031 1.296875 -2.40625 C 1.296875 -2.21875 1.34375 -2.070312 1.4375 -1.96875 C 1.53125 -1.863281 1.664062 -1.8125 1.84375 -1.8125 Z M 1.828125 0.859375 C 2.128906 0.859375 2.347656 0.8125 2.484375 0.71875 C 2.628906 0.632812 2.703125 0.523438 2.703125 0.390625 C 2.703125 0.285156 2.664062 0.207031 2.59375 0.15625 C 2.519531 0.101562 2.410156 0.0703125 2.265625 0.0625 L 1.5625 0.03125 C 1.539062 0.03125 1.519531 0.03125 1.5 0.03125 C 1.476562 0.03125 1.457031 0.03125 1.4375 0.03125 C 1.289062 0.03125 1.175781 0.0625 1.09375 0.125 C 1.019531 0.1875 0.984375 0.273438 0.984375 0.390625 C 0.984375 0.535156 1.050781 0.648438 1.1875 0.734375 C 1.332031 0.816406 1.546875 0.859375 1.828125 0.859375 Z M 1.828125 0.859375 "/></g></g><g transform="translate(111.950137, 42.414683)"><g><path d="M 3.5 -1.5625 L 1.21875 -1.5625 C 1.25 -1.257812 1.335938 -1.035156 1.484375 -0.890625 C 1.628906 -0.753906 1.832031 -0.6875 2.09375 -0.6875 C 2.300781 -0.6875 2.46875 -0.722656 2.59375 -0.796875 C 2.71875 -0.867188 2.816406 -0.984375 2.890625 -1.140625 L 2.953125 -1.140625 L 3.546875 -0.765625 C 3.429688 -0.515625 3.253906 -0.3125 3.015625 -0.15625 C 2.785156 -0.0078125 2.476562 0.0625 2.09375 0.0625 C 1.726562 0.0625 1.410156 -0.00390625 1.140625 -0.140625 C 0.878906 -0.273438 0.675781 -0.476562 0.53125 -0.75 C 0.382812 -1.03125 0.3125 -1.367188 0.3125 -1.765625 C 0.3125 -2.171875 0.382812 -2.507812 0.53125 -2.78125 C 0.6875 -3.050781 0.894531 -3.253906 1.15625 -3.390625 C 1.414062 -3.535156 1.707031 -3.609375 2.03125 -3.609375 C 2.53125 -3.609375 2.910156 -3.472656 3.171875 -3.203125 C 3.441406 -2.941406 3.578125 -2.550781 3.578125 -2.03125 C 3.578125 -1.851562 3.570312 -1.710938 3.5625 -1.609375 Z M 2.734375 -2.140625 C 2.722656 -2.410156 2.660156 -2.601562 2.546875 -2.71875 C 2.429688 -2.84375 2.257812 -2.90625 2.03125 -2.90625 C 1.582031 -2.90625 1.316406 -2.648438 1.234375 -2.140625 Z M 2.734375 -2.140625 "/></g></g><g transform="translate(115.796537, 42.414683)"><g><path d="M 0.90625 0.03125 C 0.789062 0.03125 0.6875 0.0078125 0.59375 -0.03125 C 0.507812 -0.0820312 0.445312 -0.148438 0.40625 -0.234375 C 0.363281 -0.316406 0.34375 -0.40625 0.34375 -0.5 C 0.34375 -0.601562 0.363281 -0.695312 0.40625 -0.78125 C 0.445312 -0.863281 0.507812 -0.925781 0.59375 -0.96875 C 0.6875 -1.019531 0.789062 -1.046875 0.90625 -1.046875 C 1.019531 -1.046875 1.117188 -1.019531 1.203125 -0.96875 C 1.296875 -0.925781 1.363281 -0.863281 1.40625 -0.78125 C 1.445312 -0.695312 1.46875 -0.609375 1.46875 -0.515625 C 1.46875 -0.359375 1.414062 -0.226562 1.3125 -0.125 C 1.207031 -0.0195312 1.070312 0.03125 0.90625 0.03125 Z M 0.90625 0.03125 "/></g></g><g transform="translate(117.60906, 42.414683)"><g><path d="M 0.953125 -3.953125 C 0.796875 -3.953125 0.664062 -4 0.5625 -4.09375 C 0.457031 -4.195312 0.40625 -4.328125 0.40625 -4.484375 C 0.40625 -4.628906 0.457031 -4.75 0.5625 -4.84375 C 0.664062 -4.945312 0.796875 -5 0.953125 -5 C 1.054688 -5 1.148438 -4.972656 1.234375 -4.921875 C 1.316406 -4.878906 1.378906 -4.816406 1.421875 -4.734375 C 1.472656 -4.660156 1.5 -4.578125 1.5 -4.484375 C 1.5 -4.378906 1.472656 -4.285156 1.421875 -4.203125 C 1.378906 -4.128906 1.316406 -4.066406 1.234375 -4.015625 C 1.148438 -3.972656 1.054688 -3.953125 0.953125 -3.953125 Z M 0.515625 0 L 0.515625 -3.53125 L 1.390625 -3.53125 L 1.390625 0 Z M 0.515625 0 "/></g></g><g transform="translate(119.514615, 42.414683)"><g><path d="M 0.515625 0 L 0.515625 -3.53125 L 1.359375 -3.53125 L 1.359375 -3.015625 L 1.421875 -3 C 1.648438 -3.40625 2.007812 -3.609375 2.5 -3.609375 C 2.90625 -3.609375 3.203125 -3.492188 3.390625 -3.265625 C 3.585938 -3.046875 3.6875 -2.722656 3.6875 -2.296875 L 3.6875 0 L 2.796875 0 L 2.796875 -2.1875 C 2.796875 -2.425781 2.75 -2.597656 2.65625 -2.703125 C 2.5625 -2.804688 2.410156 -2.859375 2.203125 -2.859375 C 1.953125 -2.859375 1.753906 -2.773438 1.609375 -2.609375 C 1.460938 -2.441406 1.390625 -2.179688 1.390625 -1.828125 L 1.390625 0 Z M 0.515625 0 "/></g></g><g transform="translate(123.659359, 42.414683)"><g><path d="M 2.84375 1.4375 L 2.84375 -0.421875 L 2.765625 -0.4375 C 2.554688 -0.101562 2.21875 0.0625 1.75 0.0625 C 1.46875 0.0625 1.21875 -0.00390625 1 -0.140625 C 0.789062 -0.273438 0.625 -0.476562 0.5 -0.75 C 0.375 -1.019531 0.3125 -1.351562 0.3125 -1.75 C 0.3125 -2.164062 0.375 -2.507812 0.5 -2.78125 C 0.625 -3.050781 0.796875 -3.253906 1.015625 -3.390625 C 1.242188 -3.535156 1.503906 -3.609375 1.796875 -3.609375 C 2.015625 -3.609375 2.203125 -3.566406 2.359375 -3.484375 C 2.523438 -3.398438 2.660156 -3.269531 2.765625 -3.09375 L 2.84375 -3.109375 L 2.84375 -3.53125 L 3.734375 -3.53125 L 3.734375 1.4375 Z M 2.03125 -0.6875 C 2.28125 -0.6875 2.476562 -0.773438 2.625 -0.953125 C 2.769531 -1.128906 2.84375 -1.394531 2.84375 -1.75 C 2.84375 -2.125 2.769531 -2.398438 2.625 -2.578125 C 2.476562 -2.753906 2.28125 -2.84375 2.03125 -2.84375 C 1.769531 -2.84375 1.570312 -2.753906 1.4375 -2.578125 C 1.300781 -2.410156 1.234375 -2.132812 1.234375 -1.75 C 1.234375 -1.039062 1.5 -0.6875 2.03125 -0.6875 Z M 2.03125 -0.6875 "/></g></g><g transform="translate(127.900343, 42.414683)"><g><path d="M 1.625 0.0625 C 1.21875 0.0625 0.921875 -0.0390625 0.734375 -0.25 C 0.546875 -0.46875 0.453125 -0.78125 0.453125 -1.1875 L 0.453125 -3.53125 L 1.34375 -3.53125 L 1.34375 -1.296875 C 1.34375 -1.085938 1.390625 -0.929688 1.484375 -0.828125 C 1.578125 -0.734375 1.71875 -0.6875 1.90625 -0.6875 C 2.15625 -0.6875 2.347656 -0.765625 2.484375 -0.921875 C 2.617188 -1.085938 2.6875 -1.34375 2.6875 -1.6875 L 2.6875 -3.53125 L 3.578125 -3.53125 L 3.578125 0 L 2.734375 0 L 2.734375 -0.515625 L 2.65625 -0.53125 C 2.539062 -0.332031 2.398438 -0.179688 2.234375 -0.078125 C 2.078125 0.015625 1.875 0.0625 1.625 0.0625 Z M 1.625 0.0625 "/></g></g><g transform="translate(131.993758, 42.414683)"><g><path d="M 0.953125 -3.953125 C 0.796875 -3.953125 0.664062 -4 0.5625 -4.09375 C 0.457031 -4.195312 0.40625 -4.328125 0.40625 -4.484375 C 0.40625 -4.628906 0.457031 -4.75 0.5625 -4.84375 C 0.664062 -4.945312 0.796875 -5 0.953125 -5 C 1.054688 -5 1.148438 -4.972656 1.234375 -4.921875 C 1.316406 -4.878906 1.378906 -4.816406 1.421875 -4.734375 C 1.472656 -4.660156 1.5 -4.578125 1.5 -4.484375 C 1.5 -4.378906 1.472656 -4.285156 1.421875 -4.203125 C 1.378906 -4.128906 1.316406 -4.066406 1.234375 -4.015625 C 1.148438 -3.972656 1.054688 -3.953125 0.953125 -3.953125 Z M 0.515625 0 L 0.515625 -3.53125 L 1.390625 -3.53125 L 1.390625 0 Z M 0.515625 0 "/></g></g><g transform="translate(133.899314, 42.414683)"><g><path d="M 0.515625 0 L 0.515625 -3.53125 L 1.375 -3.53125 L 1.375 -3.015625 L 1.4375 -3 C 1.519531 -3.195312 1.628906 -3.335938 1.765625 -3.421875 C 1.910156 -3.515625 2.082031 -3.5625 2.28125 -3.5625 C 2.476562 -3.5625 2.628906 -3.53125 2.734375 -3.46875 L 2.59375 -2.703125 L 2.515625 -2.6875 C 2.460938 -2.707031 2.410156 -2.722656 2.359375 -2.734375 C 2.304688 -2.742188 2.238281 -2.75 2.15625 -2.75 C 1.90625 -2.75 1.710938 -2.660156 1.578125 -2.484375 C 1.453125 -2.316406 1.390625 -2.039062 1.390625 -1.65625 L 1.390625 0 Z M 0.515625 0 "/></g></g><g transform="translate(136.674239, 42.414683)"><g><path d="M 0.953125 -3.953125 C 0.796875 -3.953125 0.664062 -4 0.5625 -4.09375 C 0.457031 -4.195312 0.40625 -4.328125 0.40625 -4.484375 C 0.40625 -4.628906 0.457031 -4.75 0.5625 -4.84375 C 0.664062 -4.945312 0.796875 -5 0.953125 -5 C 1.054688 -5 1.148438 -4.972656 1.234375 -4.921875 C 1.316406 -4.878906 1.378906 -4.816406 1.421875 -4.734375 C 1.472656 -4.660156 1.5 -4.578125 1.5 -4.484375 C 1.5 -4.378906 1.472656 -4.285156 1.421875 -4.203125 C 1.378906 -4.128906 1.316406 -4.066406 1.234375 -4.015625 C 1.148438 -3.972656 1.054688 -3.953125 0.953125 -3.953125 Z M 0.515625 0 L 0.515625 -3.53125 L 1.390625 -3.53125 L 1.390625 0 Z M 0.515625 0 "/></g></g><g transform="translate(138.579794, 42.414683)"><g><path d="M 3.5 -1.5625 L 1.21875 -1.5625 C 1.25 -1.257812 1.335938 -1.035156 1.484375 -0.890625 C 1.628906 -0.753906 1.832031 -0.6875 2.09375 -0.6875 C 2.300781 -0.6875 2.46875 -0.722656 2.59375 -0.796875 C 2.71875 -0.867188 2.816406 -0.984375 2.890625 -1.140625 L 2.953125 -1.140625 L 3.546875 -0.765625 C 3.429688 -0.515625 3.253906 -0.3125 3.015625 -0.15625 C 2.785156 -0.0078125 2.476562 0.0625 2.09375 0.0625 C 1.726562 0.0625 1.410156 -0.00390625 1.140625 -0.140625 C 0.878906 -0.273438 0.675781 -0.476562 0.53125 -0.75 C 0.382812 -1.03125 0.3125 -1.367188 0.3125 -1.765625 C 0.3125 -2.171875 0.382812 -2.507812 0.53125 -2.78125 C 0.6875 -3.050781 0.894531 -3.253906 1.15625 -3.390625 C 1.414062 -3.535156 1.707031 -3.609375 2.03125 -3.609375 C 2.53125 -3.609375 2.910156 -3.472656 3.171875 -3.203125 C 3.441406 -2.941406 3.578125 -2.550781 3.578125 -2.03125 C 3.578125 -1.851562 3.570312 -1.710938 3.5625 -1.609375 Z M 2.734375 -2.140625 C 2.722656 -2.410156 2.660156 -2.601562 2.546875 -2.71875 C 2.429688 -2.84375 2.257812 -2.90625 2.03125 -2.90625 C 1.582031 -2.90625 1.316406 -2.648438 1.234375 -2.140625 Z M 2.734375 -2.140625 "/></g></g><g transform="translate(142.426193, 42.414683)"><g><path d="M 1.65625 0.0625 C 1.414062 0.0625 1.191406 0.0351562 0.984375 -0.015625 C 0.785156 -0.078125 0.613281 -0.15625 0.46875 -0.25 C 0.332031 -0.351562 0.226562 -0.46875 0.15625 -0.59375 L 0.65625 -1.125 L 0.71875 -1.125 C 0.832031 -0.96875 0.96875 -0.847656 1.125 -0.765625 C 1.289062 -0.691406 1.46875 -0.65625 1.65625 -0.65625 C 1.832031 -0.65625 1.960938 -0.6875 2.046875 -0.75 C 2.140625 -0.8125 2.1875 -0.898438 2.1875 -1.015625 C 2.1875 -1.097656 2.15625 -1.171875 2.09375 -1.234375 C 2.03125 -1.296875 1.925781 -1.34375 1.78125 -1.375 L 1.3125 -1.484375 C 0.957031 -1.566406 0.695312 -1.691406 0.53125 -1.859375 C 0.375 -2.035156 0.296875 -2.257812 0.296875 -2.53125 C 0.296875 -2.75 0.351562 -2.9375 0.46875 -3.09375 C 0.582031 -3.257812 0.738281 -3.382812 0.9375 -3.46875 C 1.144531 -3.5625 1.382812 -3.609375 1.65625 -3.609375 C 1.976562 -3.609375 2.242188 -3.5625 2.453125 -3.46875 C 2.660156 -3.375 2.820312 -3.25 2.9375 -3.09375 L 2.46875 -2.578125 L 2.40625 -2.578125 C 2.300781 -2.691406 2.1875 -2.773438 2.0625 -2.828125 C 1.945312 -2.878906 1.8125 -2.90625 1.65625 -2.90625 C 1.3125 -2.90625 1.140625 -2.796875 1.140625 -2.578125 C 1.140625 -2.484375 1.171875 -2.40625 1.234375 -2.34375 C 1.296875 -2.289062 1.410156 -2.25 1.578125 -2.21875 L 2.015625 -2.109375 C 2.367188 -2.035156 2.628906 -1.910156 2.796875 -1.734375 C 2.960938 -1.566406 3.046875 -1.34375 3.046875 -1.0625 C 3.046875 -0.832031 2.988281 -0.632812 2.875 -0.46875 C 2.769531 -0.300781 2.613281 -0.171875 2.40625 -0.078125 C 2.195312 0.015625 1.945312 0.0625 1.65625 0.0625 Z M 1.65625 0.0625 "/></g></g><g transform="translate(145.688735, 42.414683)"><g><path d="M 3.15625 1 C 2.582031 1 2.082031 0.882812 1.65625 0.65625 C 1.238281 0.4375 0.914062 0.113281 0.6875 -0.3125 C 0.457031 -0.738281 0.34375 -1.242188 0.34375 -1.828125 C 0.34375 -2.378906 0.457031 -2.867188 0.6875 -3.296875 C 0.925781 -3.734375 1.257812 -4.070312 1.6875 -4.3125 C 2.125 -4.5625 2.632812 -4.6875 3.21875 -4.6875 C 3.800781 -4.6875 4.296875 -4.578125 4.703125 -4.359375 C 5.117188 -4.140625 5.429688 -3.828125 5.640625 -3.421875 C 5.859375 -3.015625 5.96875 -2.539062 5.96875 -2 C 5.96875 -1.664062 5.914062 -1.375 5.8125 -1.125 C 5.71875 -0.875 5.578125 -0.679688 5.390625 -0.546875 C 5.203125 -0.410156 4.976562 -0.34375 4.71875 -0.34375 C 4.269531 -0.34375 3.972656 -0.507812 3.828125 -0.84375 L 3.765625 -0.84375 C 3.679688 -0.675781 3.566406 -0.550781 3.421875 -0.46875 C 3.285156 -0.382812 3.113281 -0.34375 2.90625 -0.34375 C 2.664062 -0.34375 2.457031 -0.394531 2.28125 -0.5 C 2.101562 -0.613281 1.96875 -0.78125 1.875 -1 C 1.78125 -1.226562 1.734375 -1.5 1.734375 -1.8125 C 1.734375 -2.125 1.78125 -2.390625 1.875 -2.609375 C 1.976562 -2.835938 2.117188 -3.007812 2.296875 -3.125 C 2.472656 -3.238281 2.675781 -3.296875 2.90625 -3.296875 C 3.082031 -3.296875 3.226562 -3.265625 3.34375 -3.203125 C 3.457031 -3.140625 3.5625 -3.035156 3.65625 -2.890625 L 3.703125 -2.90625 L 3.703125 -3.234375 L 4.515625 -3.234375 L 4.515625 -1.359375 C 4.515625 -1.097656 4.609375 -0.96875 4.796875 -0.96875 C 4.929688 -0.96875 5.039062 -1.050781 5.125 -1.21875 C 5.207031 -1.382812 5.25 -1.644531 5.25 -2 C 5.25 -2.644531 5.082031 -3.140625 4.75 -3.484375 C 4.414062 -3.835938 3.90625 -4.015625 3.21875 -4.015625 C 2.800781 -4.015625 2.429688 -3.925781 2.109375 -3.75 C 1.796875 -3.570312 1.550781 -3.316406 1.375 -2.984375 C 1.195312 -2.660156 1.109375 -2.273438 1.109375 -1.828125 C 1.109375 -1.109375 1.285156 -0.566406 1.640625 -0.203125 C 1.992188 0.148438 2.5 0.328125 3.15625 0.328125 C 3.375 0.328125 3.578125 0.304688 3.765625 0.265625 C 3.953125 0.222656 4.113281 0.160156 4.25 0.078125 L 4.3125 0.078125 L 4.53125 0.65625 C 4.457031 0.71875 4.347656 0.773438 4.203125 0.828125 C 4.066406 0.878906 3.90625 0.921875 3.71875 0.953125 C 3.539062 0.984375 3.351562 1 3.15625 1 Z M 3.125 -1.015625 C 3.3125 -1.015625 3.453125 -1.078125 3.546875 -1.203125 C 3.648438 -1.335938 3.703125 -1.539062 3.703125 -1.8125 C 3.703125 -2.082031 3.648438 -2.28125 3.546875 -2.40625 C 3.441406 -2.539062 3.300781 -2.609375 3.125 -2.609375 C 2.9375 -2.609375 2.796875 -2.546875 2.703125 -2.421875 C 2.609375 -2.296875 2.5625 -2.09375 2.5625 -1.8125 C 2.5625 -1.53125 2.609375 -1.328125 2.703125 -1.203125 C 2.796875 -1.078125 2.9375 -1.015625 3.125 -1.015625 Z M 3.125 -1.015625 "/></g></g><g transform="translate(151.979635, 42.414683)"><g><path d="M 1.828125 1.5 C 1.242188 1.5 0.8125 1.410156 0.53125 1.234375 C 0.257812 1.066406 0.125 0.832031 0.125 0.53125 C 0.125 0.34375 0.179688 0.1875 0.296875 0.0625 C 0.421875 -0.0507812 0.59375 -0.128906 0.8125 -0.171875 L 0.8125 -0.234375 C 0.695312 -0.304688 0.613281 -0.382812 0.5625 -0.46875 C 0.507812 -0.5625 0.484375 -0.664062 0.484375 -0.78125 C 0.484375 -1.070312 0.664062 -1.265625 1.03125 -1.359375 L 1.03125 -1.421875 C 0.84375 -1.535156 0.695312 -1.671875 0.59375 -1.828125 C 0.5 -1.992188 0.453125 -2.191406 0.453125 -2.421875 C 0.453125 -2.648438 0.503906 -2.851562 0.609375 -3.03125 C 0.722656 -3.207031 0.882812 -3.347656 1.09375 -3.453125 C 1.300781 -3.554688 1.550781 -3.609375 1.84375 -3.609375 C 2.132812 -3.609375 2.367188 -3.554688 2.546875 -3.453125 C 2.648438 -3.609375 2.710938 -3.789062 2.734375 -4 L 2.796875 -4.03125 L 3.4375 -3.875 C 3.414062 -3.707031 3.363281 -3.566406 3.28125 -3.453125 C 3.207031 -3.335938 3.085938 -3.238281 2.921875 -3.15625 L 2.921875 -3.078125 C 3.117188 -2.898438 3.21875 -2.65625 3.21875 -2.34375 C 3.21875 -2.125 3.160156 -1.925781 3.046875 -1.75 C 2.941406 -1.582031 2.785156 -1.445312 2.578125 -1.34375 C 2.367188 -1.25 2.125 -1.203125 1.84375 -1.203125 L 1.703125 -1.203125 C 1.617188 -1.203125 1.5625 -1.203125 1.53125 -1.203125 C 1.445312 -1.203125 1.378906 -1.179688 1.328125 -1.140625 C 1.285156 -1.097656 1.265625 -1.039062 1.265625 -0.96875 C 1.265625 -0.894531 1.296875 -0.835938 1.359375 -0.796875 C 1.421875 -0.753906 1.507812 -0.734375 1.625 -0.734375 L 2.40625 -0.703125 C 3.1875 -0.679688 3.578125 -0.34375 3.578125 0.3125 C 3.578125 0.539062 3.519531 0.742188 3.40625 0.921875 C 3.289062 1.097656 3.101562 1.238281 2.84375 1.34375 C 2.582031 1.445312 2.242188 1.5 1.828125 1.5 Z M 1.84375 -1.8125 C 2.007812 -1.8125 2.140625 -1.863281 2.234375 -1.96875 C 2.335938 -2.070312 2.390625 -2.21875 2.390625 -2.40625 C 2.390625 -2.582031 2.335938 -2.722656 2.234375 -2.828125 C 2.140625 -2.929688 2.007812 -2.984375 1.84375 -2.984375 C 1.664062 -2.984375 1.53125 -2.929688 1.4375 -2.828125 C 1.34375 -2.722656 1.296875 -2.582031 1.296875 -2.40625 C 1.296875 -2.21875 1.34375 -2.070312 1.4375 -1.96875 C 1.53125 -1.863281 1.664062 -1.8125 1.84375 -1.8125 Z M 1.828125 0.859375 C 2.128906 0.859375 2.347656 0.8125 2.484375 0.71875 C 2.628906 0.632812 2.703125 0.523438 2.703125 0.390625 C 2.703125 0.285156 2.664062 0.207031 2.59375 0.15625 C 2.519531 0.101562 2.410156 0.0703125 2.265625 0.0625 L 1.5625 0.03125 C 1.539062 0.03125 1.519531 0.03125 1.5 0.03125 C 1.476562 0.03125 1.457031 0.03125 1.4375 0.03125 C 1.289062 0.03125 1.175781 0.0625 1.09375 0.125 C 1.019531 0.1875 0.984375 0.273438 0.984375 0.390625 C 0.984375 0.535156 1.050781 0.648438 1.1875 0.734375 C 1.332031 0.816406 1.546875 0.859375 1.828125 0.859375 Z M 1.828125 0.859375 "/></g></g><g transform="translate(155.659218, 42.414683)"><g><path d="M 0.515625 0 L 0.515625 -3.53125 L 1.359375 -3.53125 L 1.359375 -3.0625 L 1.421875 -3.046875 C 1.546875 -3.234375 1.679688 -3.375 1.828125 -3.46875 C 1.984375 -3.5625 2.179688 -3.609375 2.421875 -3.609375 C 2.691406 -3.609375 2.90625 -3.550781 3.0625 -3.4375 C 3.226562 -3.332031 3.347656 -3.179688 3.421875 -2.984375 L 3.5 -2.984375 C 3.601562 -3.191406 3.738281 -3.347656 3.90625 -3.453125 C 4.082031 -3.554688 4.300781 -3.609375 4.5625 -3.609375 C 5.289062 -3.609375 5.65625 -3.195312 5.65625 -2.375 L 5.65625 0 L 4.765625 0 L 4.765625 -2.265625 C 4.765625 -2.472656 4.722656 -2.625 4.640625 -2.71875 C 4.566406 -2.8125 4.441406 -2.859375 4.265625 -2.859375 C 3.773438 -2.859375 3.53125 -2.53125 3.53125 -1.875 L 3.53125 0 L 2.640625 0 L 2.640625 -2.265625 C 2.640625 -2.472656 2.597656 -2.625 2.515625 -2.71875 C 2.429688 -2.8125 2.300781 -2.859375 2.125 -2.859375 C 1.894531 -2.859375 1.710938 -2.78125 1.578125 -2.625 C 1.453125 -2.46875 1.390625 -2.222656 1.390625 -1.890625 L 1.390625 0 Z M 0.515625 0 "/></g></g><g transform="translate(161.780093, 42.414683)"><g><path d="M 1.375 0.0625 C 1.144531 0.0625 0.945312 0.0195312 0.78125 -0.0625 C 0.613281 -0.144531 0.484375 -0.265625 0.390625 -0.421875 C 0.304688 -0.585938 0.265625 -0.78125 0.265625 -1 C 0.265625 -1.207031 0.304688 -1.382812 0.390625 -1.53125 C 0.484375 -1.675781 0.625 -1.789062 0.8125 -1.875 C 1.007812 -1.96875 1.257812 -2.039062 1.5625 -2.09375 C 1.769531 -2.125 1.925781 -2.160156 2.03125 -2.203125 C 2.144531 -2.242188 2.21875 -2.289062 2.25 -2.34375 C 2.289062 -2.394531 2.3125 -2.457031 2.3125 -2.53125 C 2.3125 -2.644531 2.269531 -2.734375 2.1875 -2.796875 C 2.113281 -2.859375 1.988281 -2.890625 1.8125 -2.890625 C 1.613281 -2.890625 1.425781 -2.84375 1.25 -2.75 C 1.070312 -2.664062 0.914062 -2.550781 0.78125 -2.40625 L 0.71875 -2.40625 L 0.34375 -2.96875 C 0.53125 -3.164062 0.75 -3.320312 1 -3.4375 C 1.257812 -3.550781 1.546875 -3.609375 1.859375 -3.609375 C 2.316406 -3.609375 2.648438 -3.503906 2.859375 -3.296875 C 3.078125 -3.097656 3.1875 -2.816406 3.1875 -2.453125 L 3.1875 -0.921875 C 3.1875 -0.765625 3.253906 -0.6875 3.390625 -0.6875 C 3.441406 -0.6875 3.492188 -0.695312 3.546875 -0.71875 L 3.59375 -0.703125 L 3.65625 -0.078125 C 3.601562 -0.046875 3.53125 -0.0195312 3.4375 0 C 3.351562 0.0195312 3.257812 0.03125 3.15625 0.03125 C 2.945312 0.03125 2.78125 -0.0078125 2.65625 -0.09375 C 2.539062 -0.175781 2.457031 -0.304688 2.40625 -0.484375 L 2.34375 -0.484375 C 2.175781 -0.117188 1.851562 0.0625 1.375 0.0625 Z M 1.65625 -0.59375 C 1.863281 -0.59375 2.03125 -0.660156 2.15625 -0.796875 C 2.28125 -0.941406 2.34375 -1.132812 2.34375 -1.375 L 2.34375 -1.734375 L 2.28125 -1.75 C 2.21875 -1.707031 2.144531 -1.671875 2.0625 -1.640625 C 1.976562 -1.609375 1.851562 -1.582031 1.6875 -1.5625 C 1.5 -1.53125 1.363281 -1.472656 1.28125 -1.390625 C 1.195312 -1.316406 1.15625 -1.207031 1.15625 -1.0625 C 1.15625 -0.90625 1.195312 -0.785156 1.28125 -0.703125 C 1.375 -0.628906 1.5 -0.59375 1.65625 -0.59375 Z M 1.65625 -0.59375 "/></g></g><g transform="translate(165.511004, 42.414683)"><g><path d="M 0.953125 -3.953125 C 0.796875 -3.953125 0.664062 -4 0.5625 -4.09375 C 0.457031 -4.195312 0.40625 -4.328125 0.40625 -4.484375 C 0.40625 -4.628906 0.457031 -4.75 0.5625 -4.84375 C 0.664062 -4.945312 0.796875 -5 0.953125 -5 C 1.054688 -5 1.148438 -4.972656 1.234375 -4.921875 C 1.316406 -4.878906 1.378906 -4.816406 1.421875 -4.734375 C 1.472656 -4.660156 1.5 -4.578125 1.5 -4.484375 C 1.5 -4.378906 1.472656 -4.285156 1.421875 -4.203125 C 1.378906 -4.128906 1.316406 -4.066406 1.234375 -4.015625 C 1.148438 -3.972656 1.054688 -3.953125 0.953125 -3.953125 Z M 0.515625 0 L 0.515625 -3.53125 L 1.390625 -3.53125 L 1.390625 0 Z M 0.515625 0 "/></g></g><g transform="translate(167.416559, 42.414683)"><g><path d="M 1.46875 0.0625 C 1.144531 0.0625 0.898438 -0.0195312 0.734375 -0.1875 C 0.566406 -0.363281 0.484375 -0.625 0.484375 -0.96875 L 0.484375 -4.953125 L 1.375 -4.953125 L 1.375 -1.015625 C 1.375 -0.796875 1.460938 -0.6875 1.640625 -0.6875 C 1.691406 -0.6875 1.75 -0.695312 1.8125 -0.71875 L 1.859375 -0.703125 L 1.9375 -0.015625 C 1.882812 0.00390625 1.816406 0.0195312 1.734375 0.03125 C 1.648438 0.0507812 1.5625 0.0625 1.46875 0.0625 Z M 1.46875 0.0625 "/></g></g><g transform="translate(169.450435, 42.414683)"><g><path d="M 0.90625 0.03125 C 0.789062 0.03125 0.6875 0.0078125 0.59375 -0.03125 C 0.507812 -0.0820312 0.445312 -0.148438 0.40625 -0.234375 C 0.363281 -0.316406 0.34375 -0.40625 0.34375 -0.5 C 0.34375 -0.601562 0.363281 -0.695312 0.40625 -0.78125 C 0.445312 -0.863281 0.507812 -0.925781 0.59375 -0.96875 C 0.6875 -1.019531 0.789062 -1.046875 0.90625 -1.046875 C 1.019531 -1.046875 1.117188 -1.019531 1.203125 -0.96875 C 1.296875 -0.925781 1.363281 -0.863281 1.40625 -0.78125 C 1.445312 -0.695312 1.46875 -0.609375 1.46875 -0.515625 C 1.46875 -0.359375 1.414062 -0.226562 1.3125 -0.125 C 1.207031 -0.0195312 1.070312 0.03125 0.90625 0.03125 Z M 0.90625 0.03125 "/></g></g><g transform="translate(171.262958, 42.414683)"><g><path d="M 2.0625 0.0625 C 1.71875 0.0625 1.414062 -0.00390625 1.15625 -0.140625 C 0.894531 -0.285156 0.6875 -0.492188 0.53125 -0.765625 C 0.382812 -1.046875 0.3125 -1.378906 0.3125 -1.765625 C 0.3125 -2.148438 0.382812 -2.476562 0.53125 -2.75 C 0.6875 -3.03125 0.894531 -3.242188 1.15625 -3.390625 C 1.414062 -3.535156 1.710938 -3.609375 2.046875 -3.609375 C 2.785156 -3.609375 3.265625 -3.335938 3.484375 -2.796875 L 2.875 -2.359375 L 2.796875 -2.359375 C 2.722656 -2.523438 2.628906 -2.644531 2.515625 -2.71875 C 2.398438 -2.800781 2.242188 -2.84375 2.046875 -2.84375 C 1.785156 -2.84375 1.582031 -2.753906 1.4375 -2.578125 C 1.300781 -2.398438 1.234375 -2.128906 1.234375 -1.765625 C 1.234375 -1.398438 1.304688 -1.128906 1.453125 -0.953125 C 1.597656 -0.773438 1.800781 -0.6875 2.0625 -0.6875 C 2.25 -0.6875 2.410156 -0.738281 2.546875 -0.84375 C 2.679688 -0.945312 2.773438 -1.09375 2.828125 -1.28125 L 2.90625 -1.296875 L 3.53125 -0.953125 C 3.445312 -0.648438 3.28125 -0.40625 3.03125 -0.21875 C 2.789062 -0.03125 2.46875 0.0625 2.0625 0.0625 Z M 2.0625 0.0625 "/></g></g><g transform="translate(174.910461, 42.414683)"><g><path d="M 2.046875 0.0625 C 1.703125 0.0625 1.398438 -0.00390625 1.140625 -0.140625 C 0.878906 -0.285156 0.675781 -0.492188 0.53125 -0.765625 C 0.382812 -1.046875 0.3125 -1.378906 0.3125 -1.765625 C 0.3125 -2.148438 0.382812 -2.476562 0.53125 -2.75 C 0.675781 -3.03125 0.878906 -3.242188 1.140625 -3.390625 C 1.398438 -3.535156 1.703125 -3.609375 2.046875 -3.609375 C 2.398438 -3.609375 2.707031 -3.535156 2.96875 -3.390625 C 3.226562 -3.242188 3.429688 -3.03125 3.578125 -2.75 C 3.722656 -2.476562 3.796875 -2.148438 3.796875 -1.765625 C 3.796875 -1.378906 3.722656 -1.046875 3.578125 -0.765625 C 3.429688 -0.492188 3.226562 -0.285156 2.96875 -0.140625 C 2.707031 -0.00390625 2.398438 0.0625 2.046875 0.0625 Z M 2.046875 -0.6875 C 2.597656 -0.6875 2.875 -1.046875 2.875 -1.765625 C 2.875 -2.140625 2.800781 -2.410156 2.65625 -2.578125 C 2.519531 -2.753906 2.316406 -2.84375 2.046875 -2.84375 C 1.503906 -2.84375 1.234375 -2.484375 1.234375 -1.765625 C 1.234375 -1.046875 1.503906 -0.6875 2.046875 -0.6875 Z M 2.046875 -0.6875 "/></g></g><g transform="translate(179.023124, 42.414683)"><g><path d="M 0.515625 0 L 0.515625 -3.53125 L 1.359375 -3.53125 L 1.359375 -3.0625 L 1.421875 -3.046875 C 1.546875 -3.234375 1.679688 -3.375 1.828125 -3.46875 C 1.984375 -3.5625 2.179688 -3.609375 2.421875 -3.609375 C 2.691406 -3.609375 2.90625 -3.550781 3.0625 -3.4375 C 3.226562 -3.332031 3.347656 -3.179688 3.421875 -2.984375 L 3.5 -2.984375 C 3.601562 -3.191406 3.738281 -3.347656 3.90625 -3.453125 C 4.082031 -3.554688 4.300781 -3.609375 4.5625 -3.609375 C 5.289062 -3.609375 5.65625 -3.195312 5.65625 -2.375 L 5.65625 0 L 4.765625 0 L 4.765625 -2.265625 C 4.765625 -2.472656 4.722656 -2.625 4.640625 -2.71875 C 4.566406 -2.8125 4.441406 -2.859375 4.265625 -2.859375 C 3.773438 -2.859375 3.53125 -2.53125 3.53125 -1.875 L 3.53125 0 L 2.640625 0 L 2.640625 -2.265625 C 2.640625 -2.472656 2.597656 -2.625 2.515625 -2.71875 C 2.429688 -2.8125 2.300781 -2.859375 2.125 -2.859375 C 1.894531 -2.859375 1.710938 -2.78125 1.578125 -2.625 C 1.453125 -2.46875 1.390625 -2.222656 1.390625 -1.890625 L 1.390625 0 Z M 0.515625 0 "/></g></g></g></svg>