<svg xmlns="http://www.w3.org/2000/svg" xmlns:xlink="http://www.w3.org/1999/xlink" width="308" zoomAndPan="magnify" viewBox="0 0 230.87999 73.499998" height="98" preserveAspectRatio="xMidYMid meet" version="1.0"><defs><g/><clipPath id="b89f188f99"><path d="M 188 8 L 201 8 L 201 21 L 188 21 Z M 188 8 " clip-rule="nonzero"/></clipPath><clipPath id="9d871433db"><path d="M 185.164062 -11.386719 L 211.285156 24.878906 L 194.964844 36.632812 L 168.84375 0.367188 Z M 185.164062 -11.386719 " clip-rule="nonzero"/></clipPath><clipPath id="27e9850f80"><path d="M 185.164062 -11.386719 L 211.285156 24.878906 L 194.964844 36.632812 L 168.84375 0.367188 Z M 185.164062 -11.386719 " clip-rule="nonzero"/></clipPath><clipPath id="cdabad845a"><path d="M 192 21 L 198 21 L 198 26 L 192 26 Z M 192 21 " clip-rule="nonzero"/></clipPath><clipPath id="4c8f382fb4"><path d="M 185.164062 -11.386719 L 211.285156 24.878906 L 194.964844 36.632812 L 168.84375 0.367188 Z M 185.164062 -11.386719 " clip-rule="nonzero"/></clipPath><clipPath id="e84241127f"><path d="M 185.164062 -11.386719 L 211.285156 24.878906 L 194.964844 36.632812 L 168.84375 0.367188 Z M 185.164062 -11.386719 " clip-rule="nonzero"/></clipPath><clipPath id="b03be080d9"><path d="M 183 9 L 188 9 L 188 17 L 183 17 Z M 183 9 " clip-rule="nonzero"/></clipPath><clipPath id="bdedcf2fd6"><path d="M 185.164062 -11.386719 L 211.285156 24.878906 L 194.964844 36.632812 L 168.84375 0.367188 Z M 185.164062 -11.386719 " clip-rule="nonzero"/></clipPath><clipPath id="58cd149d3a"><path d="M 185.164062 -11.386719 L 211.285156 24.878906 L 194.964844 36.632812 L 168.84375 0.367188 Z M 185.164062 -11.386719 " clip-rule="nonzero"/></clipPath><clipPath id="b2e6347c1d"><path d="M 193 29 L 202 29 L 202 33 L 193 33 Z M 193 29 " clip-rule="nonzero"/></clipPath><clipPath id="de679bc1ee"><path d="M 185.164062 -11.386719 L 211.285156 24.878906 L 194.964844 36.632812 L 168.84375 0.367188 Z M 185.164062 -11.386719 " clip-rule="nonzero"/></clipPath><clipPath id="3800bb8626"><path d="M 185.164062 -11.386719 L 211.285156 24.878906 L 194.964844 36.632812 L 168.84375 0.367188 Z M 185.164062 -11.386719 " clip-rule="nonzero"/></clipPath><clipPath id="d4de2aaeb6"><path d="M 172 0 L 176 0 L 176 1 L 172 1 Z M 172 0 " clip-rule="nonzero"/></clipPath><clipPath id="7b7e0492c9"><path d="M 185.164062 -11.386719 L 211.285156 24.878906 L 194.964844 36.632812 L 168.84375 0.367188 Z M 185.164062 -11.386719 " clip-rule="nonzero"/></clipPath><clipPath id="2cc8b130f8"><path d="M 185.164062 -11.386719 L 211.285156 24.878906 L 194.964844 36.632812 L 168.84375 0.367188 Z M 185.164062 -11.386719 " clip-rule="nonzero"/></clipPath><clipPath id="e8e06bfc03"><path d="M 175 3 L 180 3 L 180 15 L 175 15 Z M 175 3 " clip-rule="nonzero"/></clipPath><clipPath id="71c9b29e89"><path d="M 185.164062 -11.386719 L 211.285156 24.878906 L 194.964844 36.632812 L 168.84375 0.367188 Z M 185.164062 -11.386719 " clip-rule="nonzero"/></clipPath><clipPath id="1ac57a28eb"><path d="M 185.164062 -11.386719 L 211.285156 24.878906 L 194.964844 36.632812 L 168.84375 0.367188 Z M 185.164062 -11.386719 " clip-rule="nonzero"/></clipPath></defs><g fill="#ffffff" fill-opacity="1"><g transform="translate(44.771277, 61.869323)"><g><path d="M 8.140625 -36.65625 L 4.890625 -36.65625 L 4.890625 -21.984375 L 8.140625 -21.984375 L 8.140625 -19.546875 L 4.890625 -19.546875 L 4.890625 -2.4375 L 8.140625 -2.4375 L 8.140625 0 L 1.625 0 L 1.625 -39.09375 L 8.140625 -39.09375 Z M 8.140625 -36.65625 "/></g></g></g><g fill="#ffffff" fill-opacity="1"><g transform="translate(56.491804, 61.869323)"><g><path d="M 8.140625 -35.890625 C 8.140625 -36.210938 7.988281 -36.414062 7.6875 -36.5 C 7.394531 -36.601562 6.460938 -36.65625 4.890625 -36.65625 L 4.890625 -2.4375 C 6.460938 -2.4375 7.394531 -2.488281 7.6875 -2.59375 C 7.988281 -2.695312 8.140625 -2.910156 8.140625 -3.234375 Z M 11.40625 -3.4375 C 11.40625 -2.570312 11.222656 -1.90625 10.859375 -1.4375 C 10.492188 -0.96875 9.953125 -0.625 9.234375 -0.40625 C 8.898438 -0.300781 8.484375 -0.21875 7.984375 -0.15625 C 7.492188 -0.101562 6.816406 -0.0625 5.953125 -0.03125 C 5.085938 -0.0078125 4.328125 0 3.671875 0 L 1.625 0 L 1.625 -39.09375 C 2.320312 -39.09375 3.019531 -39.085938 3.71875 -39.078125 C 4.425781 -39.066406 5.144531 -39.054688 5.875 -39.046875 C 7.375 -39.003906 8.476562 -38.894531 9.1875 -38.71875 C 9.914062 -38.507812 10.46875 -38.179688 10.84375 -37.734375 C 11.21875 -37.285156 11.40625 -36.644531 11.40625 -35.8125 Z M 11.40625 -3.4375 "/></g></g></g><g fill="#ffffff" fill-opacity="1"><g transform="translate(72.284037, 61.869323)"><g><path d="M 7.328125 -39.09375 L 10.59375 -39.09375 L 10.59375 -3.671875 C 10.59375 -2.953125 10.460938 -2.332031 10.203125 -1.8125 C 9.953125 -1.300781 9.613281 -0.878906 9.1875 -0.546875 C 8.757812 -0.210938 8.28125 0.0234375 7.75 0.171875 C 7.21875 0.328125 6.671875 0.40625 6.109375 0.40625 C 5.546875 0.40625 5 0.328125 4.46875 0.171875 C 3.9375 0.0234375 3.457031 -0.210938 3.03125 -0.546875 C 2.601562 -0.878906 2.257812 -1.300781 2 -1.8125 C 1.75 -2.332031 1.625 -2.953125 1.625 -3.671875 L 1.625 -39.09375 L 4.890625 -39.09375 L 4.890625 -3.671875 C 4.890625 -3.054688 5.015625 -2.628906 5.265625 -2.390625 C 5.523438 -2.148438 5.804688 -2.03125 6.109375 -2.03125 C 6.410156 -2.03125 6.6875 -2.148438 6.9375 -2.390625 C 7.195312 -2.628906 7.328125 -3.054688 7.328125 -3.671875 Z M 7.328125 -39.09375 "/></g></g></g><g fill="#ffffff" fill-opacity="1"><g transform="translate(87.265238, 61.869323)"><g><path d="M 4.890625 -32.578125 L 5.3125 -26.0625 L 5.703125 -32.578125 L 6.515625 -43.984375 L 9.78125 -43.984375 L 7.328125 -21.984375 L 9.78125 0 L 6.515625 0 L 5.703125 -11.40625 L 5.296875 -17.921875 L 4.890625 -11.40625 L 4.078125 0 L 0.8125 0 L 3.265625 -21.984375 L 0.8125 -43.984375 L 4.078125 -43.984375 Z M 4.890625 -32.578125 "/></g></g></g><g fill="#ffffff" fill-opacity="1"><g transform="translate(100.614448, 61.869323)"><g><path d="M 11.40625 -22.8125 L 8.140625 -22.8125 L 8.140625 -35.421875 C 8.140625 -36.003906 7.992188 -36.414062 7.703125 -36.65625 C 7.421875 -36.90625 7.09375 -37.03125 6.71875 -37.03125 C 6.5 -37.03125 6.28125 -36.988281 6.0625 -36.90625 C 5.851562 -36.832031 5.660156 -36.722656 5.484375 -36.578125 C 5.304688 -36.441406 5.160156 -36.273438 5.046875 -36.078125 C 4.941406 -35.878906 4.890625 -35.660156 4.890625 -35.421875 L 4.890625 -3.671875 C 4.890625 -3.429688 4.941406 -3.207031 5.046875 -3 C 5.160156 -2.800781 5.304688 -2.628906 5.484375 -2.484375 C 5.660156 -2.335938 5.851562 -2.222656 6.0625 -2.140625 C 6.28125 -2.066406 6.5 -2.03125 6.71875 -2.03125 C 7.09375 -2.03125 7.421875 -2.15625 7.703125 -2.40625 C 7.992188 -2.664062 8.140625 -3.085938 8.140625 -3.671875 L 8.140625 -17.921875 L 11.40625 -17.921875 L 11.40625 -3.671875 C 11.40625 -2.984375 11.257812 -2.378906 10.96875 -1.859375 C 10.675781 -1.347656 10.300781 -0.914062 9.84375 -0.5625 C 9.382812 -0.21875 8.859375 0.0390625 8.265625 0.21875 C 7.671875 0.394531 7.070312 0.484375 6.46875 0.484375 C 5.851562 0.484375 5.253906 0.394531 4.671875 0.21875 C 4.097656 0.0507812 3.582031 -0.203125 3.125 -0.546875 C 2.664062 -0.890625 2.300781 -1.320312 2.03125 -1.84375 C 1.757812 -2.363281 1.625 -2.972656 1.625 -3.671875 L 1.625 -35.421875 C 1.625 -36.109375 1.765625 -36.710938 2.046875 -37.234375 C 2.328125 -37.765625 2.695312 -38.195312 3.15625 -38.53125 C 3.613281 -38.875 4.140625 -39.132812 4.734375 -39.3125 C 5.328125 -39.488281 5.929688 -39.578125 6.546875 -39.578125 C 7.148438 -39.578125 7.738281 -39.488281 8.3125 -39.3125 C 8.894531 -39.144531 9.414062 -38.890625 9.875 -38.546875 C 10.332031 -38.203125 10.703125 -37.769531 10.984375 -37.25 C 11.265625 -36.726562 11.40625 -36.117188 11.40625 -35.421875 Z M 11.40625 -22.8125 "/></g></g></g><g fill="#ffffff" fill-opacity="1"><g transform="translate(116.40668, 61.869323)"><g><path d="M 8.140625 -39.09375 L 11.40625 -39.09375 L 11.40625 0 L 8.140625 0 L 8.140625 -18.984375 L 4.890625 -18.984375 L 4.890625 0 L 1.625 0 L 1.625 -39.09375 L 4.890625 -39.09375 L 4.890625 -21.53125 L 8.140625 -21.53125 Z M 8.140625 -39.09375 "/></g></g></g><g fill="#ffffff" fill-opacity="1"><g transform="translate(132.198911, 61.869323)"><g><path d="M 10.59375 0 L 7.328125 0 L 6.828125 -8.453125 L 4.5625 -8.453125 L 4.078125 0 L 0.8125 0 L 4.078125 -39.09375 L 7.328125 -39.09375 Z M 6.640625 -11.09375 L 5.703125 -30.953125 L 4.734375 -11.09375 Z M 6.640625 -11.09375 "/></g></g></g><g fill="#ffffff" fill-opacity="1"><g transform="translate(146.362463, 61.869323)"><g><path d="M 11.40625 0 L 8.953125 0 L 4.484375 -22.8125 L 4.484375 0 L 1.625 0 L 1.625 -39.09375 L 4.078125 -39.09375 L 8.578125 -15.46875 L 8.578125 -39.09375 L 11.40625 -39.09375 Z M 11.40625 0 "/></g></g></g><g fill="#ffffff" fill-opacity="1"><g transform="translate(162.154698, 61.869323)"><g><path d="M 4.890625 -3.671875 C 4.890625 -3.054688 5.015625 -2.628906 5.265625 -2.390625 C 5.523438 -2.148438 5.804688 -2.03125 6.109375 -2.03125 C 6.410156 -2.03125 6.6875 -2.148438 6.9375 -2.390625 C 7.195312 -2.628906 7.328125 -3.054688 7.328125 -3.671875 L 7.328125 -17.109375 L 6.515625 -17.109375 L 6.515625 -19.546875 L 10.59375 -19.546875 L 10.59375 -3.671875 C 10.59375 -2.953125 10.460938 -2.332031 10.203125 -1.8125 C 9.953125 -1.300781 9.613281 -0.878906 9.1875 -0.546875 C 8.757812 -0.210938 8.28125 0.0234375 7.75 0.171875 C 7.21875 0.328125 6.671875 0.40625 6.109375 0.40625 C 5.546875 0.40625 5 0.328125 4.46875 0.171875 C 3.9375 0.0234375 3.457031 -0.210938 3.03125 -0.546875 C 2.601562 -0.878906 2.257812 -1.300781 2 -1.8125 C 1.75 -2.332031 1.625 -2.953125 1.625 -3.671875 L 1.625 -35.84375 C 1.625 -36.550781 1.75 -37.160156 2 -37.671875 C 2.257812 -38.191406 2.601562 -38.617188 3.03125 -38.953125 C 3.457031 -39.285156 3.9375 -39.523438 4.46875 -39.671875 C 5 -39.828125 5.546875 -39.90625 6.109375 -39.90625 C 6.671875 -39.90625 7.21875 -39.828125 7.75 -39.671875 C 8.28125 -39.523438 8.757812 -39.285156 9.1875 -38.953125 C 9.613281 -38.617188 9.953125 -38.195312 10.203125 -37.6875 C 10.460938 -37.1875 10.59375 -36.578125 10.59375 -35.859375 L 10.59375 -22.8125 L 7.328125 -22.8125 L 7.328125 -35.859375 C 7.328125 -36.472656 7.195312 -36.894531 6.9375 -37.125 C 6.6875 -37.351562 6.410156 -37.46875 6.109375 -37.46875 C 5.804688 -37.46875 5.523438 -37.351562 5.265625 -37.125 C 5.015625 -36.894531 4.890625 -36.472656 4.890625 -35.859375 Z M 4.890625 -3.671875 "/></g></g></g><g fill="#ffffff" fill-opacity="1"><g transform="translate(177.132591, 61.869323)"><g><path d="M 8.140625 -36.65625 L 4.890625 -36.65625 L 4.890625 -21.984375 L 8.140625 -21.984375 L 8.140625 -19.546875 L 4.890625 -19.546875 L 4.890625 -2.4375 L 8.140625 -2.4375 L 8.140625 0 L 1.625 0 L 1.625 -39.09375 L 8.140625 -39.09375 Z M 8.140625 -36.65625 "/></g></g></g><g clip-path="url(#b89f188f99)"><g clip-path="url(#9d871433db)"><g clip-path="url(#27e9850f80)"><path fill="#ffffff" d="M 199.574219 8.921875 C 199.042969 8.597656 198.746094 8.746094 197.929688 9.695312 C 197.148438 10.625 195.800781 12.109375 192.933594 15.136719 C 190.605469 17.601562 189.035156 19.398438 188.8125 19.835938 C 188.644531 20.191406 188.902344 20.730469 189.246094 20.699219 C 189.34375 20.691406 190.359375 19.875 191.503906 18.878906 C 192.636719 17.871094 194.785156 15.984375 196.277344 14.671875 C 197.769531 13.363281 199.355469 12.027344 199.789062 11.714844 C 200.917969 10.902344 201.011719 10.621094 200.410156 9.8125 C 200.148438 9.449219 199.777344 9.050781 199.574219 8.921875 Z M 199.574219 8.921875 " fill-opacity="1" fill-rule="evenodd"/></g></g></g><g clip-path="url(#cdabad845a)"><g clip-path="url(#4c8f382fb4)"><g clip-path="url(#e84241127f)"><path fill="#ffffff" d="M 197.179688 21.742188 C 196.996094 21.722656 195.867188 22.238281 194.671875 22.863281 C 192.921875 23.757812 192.449219 24.078125 192.382812 24.316406 C 192.269531 24.722656 192.460938 24.988281 192.851562 25.027344 C 193.234375 25.054688 196.839844 23.675781 197.347656 23.308594 C 197.992188 22.84375 197.878906 21.792969 197.179688 21.742188 Z M 197.179688 21.742188 " fill-opacity="1" fill-rule="evenodd"/></g></g></g><g clip-path="url(#b03be080d9)"><g clip-path="url(#bdedcf2fd6)"><g clip-path="url(#58cd149d3a)"><path fill="#ffffff" d="M 187.101562 9.03125 C 186.65625 8.945312 186.105469 9.75 185.085938 11.957031 C 183.699219 14.988281 183.410156 15.921875 183.757812 16.292969 C 184.25 16.792969 184.726562 16.238281 185.804688 13.878906 C 187.339844 10.484375 187.667969 9.605469 187.453125 9.3125 C 187.355469 9.171875 187.191406 9.03125 187.101562 9.03125 Z M 187.101562 9.03125 " fill-opacity="1" fill-rule="evenodd"/></g></g></g><g clip-path="url(#b2e6347c1d)"><g clip-path="url(#de679bc1ee)"><g clip-path="url(#3800bb8626)"><path fill="#ffffff" d="M 198.910156 29.519531 C 196.378906 29.328125 194.125 29.4375 193.84375 29.726562 C 193.421875 30.179688 193.707031 30.546875 194.734375 30.878906 C 198.917969 32.203125 200.96875 32.671875 201.335938 32.410156 C 201.628906 32.195312 201.726562 30.3125 201.460938 29.945312 C 201.351562 29.789062 200.332031 29.625 198.910156 29.519531 Z M 198.910156 29.519531 " fill-opacity="1" fill-rule="evenodd"/></g></g></g><g clip-path="url(#d4de2aaeb6)"><g clip-path="url(#7b7e0492c9)"><g clip-path="url(#2cc8b130f8)"><path fill="#ffffff" d="M 174.355469 -2.910156 C 173.605469 -3.035156 172.492188 -2.082031 172.488281 -1.289062 C 172.480469 -0.792969 172.546875 -0.667969 172.972656 -0.375 C 174.144531 0.449219 175.328125 0.128906 175.5625 -1.085938 C 175.726562 -1.867188 175.128906 -2.785156 174.355469 -2.910156 Z M 174.355469 -2.910156 " fill-opacity="1" fill-rule="evenodd"/></g></g></g><g clip-path="url(#e8e06bfc03)"><g clip-path="url(#71c9b29e89)"><g clip-path="url(#1ac57a28eb)"><path fill="#ffffff" d="M 177.863281 3.625 C 177.148438 3.457031 175.347656 4.285156 175.097656 4.890625 C 174.945312 5.300781 177.359375 11.621094 178.390625 13.46875 C 178.742188 14.132812 178.921875 14.324219 179.191406 14.34375 C 179.375 14.359375 179.585938 14.296875 179.648438 14.207031 C 179.726562 14.105469 179.5625 12.984375 179.324219 11.703125 C 178.886719 9.496094 178.617188 7.191406 178.589844 5.285156 C 178.558594 4.109375 178.402344 3.75 177.863281 3.625 Z M 177.863281 3.625 " fill-opacity="1" fill-rule="evenodd"/></g></g></g><g fill="#ffffff" fill-opacity="1"><g transform="translate(106.189494, 17.724024)"><g><path d="M 0.234375 -2.96875 C 0.234375 -2.96875 0.351562 -2.96875 0.59375 -2.96875 L 0.921875 -2.96875 L 0.921875 -2.890625 C 0.921875 -2.878906 0.921875 -2.863281 0.921875 -2.84375 C 0.921875 -2.832031 0.921875 -2.8125 0.921875 -2.78125 C 0.921875 -2.601562 0.914062 -2.429688 0.90625 -2.265625 C 0.90625 -2.085938 0.898438 -1.910156 0.890625 -1.734375 C 0.890625 -1.566406 0.890625 -1.394531 0.890625 -1.21875 C 0.878906 -1.039062 0.875 -0.894531 0.875 -0.78125 C 0.875 -0.675781 0.875 -0.617188 0.875 -0.609375 C 0.875 -0.609375 0.988281 -0.613281 1.21875 -0.625 C 1.875 -0.644531 2.207031 -0.65625 2.21875 -0.65625 C 2.226562 -0.65625 2.234375 -0.628906 2.234375 -0.578125 C 2.234375 -0.523438 2.234375 -0.453125 2.234375 -0.359375 L 2.234375 0.015625 L 2.171875 0.015625 C 2.148438 0.00390625 2.101562 0 2.03125 0 C 1.957031 0 1.851562 -0.00390625 1.71875 -0.015625 C 1.675781 -0.015625 1.628906 -0.015625 1.578125 -0.015625 C 1.523438 -0.0234375 1.460938 -0.03125 1.390625 -0.03125 C 1.242188 -0.0390625 1.09375 -0.046875 0.9375 -0.046875 C 0.882812 -0.046875 0.859375 -0.046875 0.859375 -0.046875 C 0.859375 -0.0351562 0.769531 -0.03125 0.59375 -0.03125 L 0.34375 -0.03125 L 0.328125 -0.171875 C 0.296875 -1.015625 0.269531 -1.664062 0.25 -2.125 C 0.238281 -2.59375 0.234375 -2.875 0.234375 -2.96875 Z M 0.234375 -2.96875 "/></g></g></g><g fill="#ffffff" fill-opacity="1"><g transform="translate(109.408229, 17.724024)"><g><path d="M 0.25 -2.9375 C 0.25 -2.9375 0.363281 -2.9375 0.59375 -2.9375 L 0.9375 -2.9375 L 0.9375 -2.828125 C 0.9375 -2.816406 0.9375 -2.800781 0.9375 -2.78125 C 0.9375 -2.769531 0.9375 -2.75 0.9375 -2.71875 C 0.9375 -2.695312 0.9375 -2.664062 0.9375 -2.625 C 0.9375 -2.582031 0.929688 -2.539062 0.921875 -2.5 C 0.921875 -2.457031 0.921875 -2.414062 0.921875 -2.375 C 0.921875 -2.332031 0.921875 -2.289062 0.921875 -2.25 C 0.910156 -1.957031 0.90625 -1.804688 0.90625 -1.796875 C 0.914062 -1.785156 1.175781 -1.773438 1.6875 -1.765625 C 1.71875 -1.753906 1.765625 -1.75 1.828125 -1.75 C 1.890625 -1.75 1.972656 -1.742188 2.078125 -1.734375 L 2.1875 -1.734375 L 2.1875 -1.25 L 2.125 -1.25 C 2.101562 -1.238281 2.0625 -1.234375 2 -1.234375 C 1.9375 -1.234375 1.847656 -1.234375 1.734375 -1.234375 C 1.453125 -1.222656 1.242188 -1.210938 1.109375 -1.203125 C 0.972656 -1.191406 0.90625 -1.1875 0.90625 -1.1875 C 0.894531 -1.1875 0.890625 -1.113281 0.890625 -0.96875 C 0.890625 -0.894531 0.882812 -0.828125 0.875 -0.765625 C 0.875 -0.710938 0.875 -0.671875 0.875 -0.640625 L 0.875 -0.5625 L 1 -0.578125 C 1.019531 -0.578125 1.039062 -0.578125 1.0625 -0.578125 C 1.082031 -0.578125 1.109375 -0.578125 1.140625 -0.578125 C 1.171875 -0.585938 1.195312 -0.59375 1.21875 -0.59375 C 1.25 -0.59375 1.269531 -0.59375 1.28125 -0.59375 C 1.425781 -0.59375 1.546875 -0.597656 1.640625 -0.609375 C 1.785156 -0.609375 1.90625 -0.609375 2 -0.609375 C 2.101562 -0.617188 2.179688 -0.628906 2.234375 -0.640625 L 2.3125 -0.640625 L 2.3125 0.015625 L 2.203125 0.015625 C 2.191406 0.015625 2.175781 0.015625 2.15625 0.015625 C 2.144531 0.015625 2.128906 0.015625 2.109375 0.015625 C 2.085938 0.015625 2.0625 0.015625 2.03125 0.015625 C 2 0.015625 1.960938 0.0078125 1.921875 0 C 1.890625 0 1.851562 0 1.8125 0 C 1.78125 0 1.757812 0 1.75 0 C 1.644531 -0.0078125 1.546875 -0.015625 1.453125 -0.015625 C 1.359375 -0.015625 1.265625 -0.015625 1.171875 -0.015625 C 1.097656 -0.0234375 1.035156 -0.03125 0.984375 -0.03125 C 0.941406 -0.03125 0.914062 -0.03125 0.90625 -0.03125 C 0.875 -0.03125 0.859375 -0.0234375 0.859375 -0.015625 C 0.859375 -0.00390625 0.773438 0 0.609375 0 C 0.429688 0 0.34375 -0.00390625 0.34375 -0.015625 C 0.34375 -0.0976562 0.332031 -0.34375 0.3125 -0.75 C 0.300781 -1.164062 0.28125 -1.753906 0.25 -2.515625 C 0.238281 -2.785156 0.238281 -2.925781 0.25 -2.9375 Z M 1.90625 -2.953125 C 2 -2.960938 2.070312 -2.96875 2.125 -2.96875 C 2.175781 -2.96875 2.207031 -2.96875 2.21875 -2.96875 L 2.265625 -2.96875 L 2.265625 -2.34375 L 2.234375 -2.34375 C 2.210938 -2.34375 2.148438 -2.34375 2.046875 -2.34375 C 1.941406 -2.351562 1.804688 -2.363281 1.640625 -2.375 C 1.460938 -2.382812 1.328125 -2.390625 1.234375 -2.390625 C 1.140625 -2.390625 1.078125 -2.390625 1.046875 -2.390625 L 1.015625 -2.40625 L 1.015625 -2.890625 L 1.078125 -2.890625 C 1.085938 -2.890625 1.113281 -2.890625 1.15625 -2.890625 C 1.207031 -2.898438 1.28125 -2.90625 1.375 -2.90625 C 1.445312 -2.914062 1.53125 -2.921875 1.625 -2.921875 C 1.71875 -2.929688 1.8125 -2.941406 1.90625 -2.953125 Z M 1.90625 -2.953125 "/></g></g></g><g fill="#ffffff" fill-opacity="1"><g transform="translate(112.758603, 17.724024)"><g><path d="M 1.609375 -2.28125 L 1.5625 -2.4375 C 1.5625 -2.445312 1.554688 -2.460938 1.546875 -2.484375 C 1.535156 -2.484375 1.523438 -2.445312 1.515625 -2.375 C 1.503906 -2.34375 1.488281 -2.296875 1.46875 -2.234375 C 1.445312 -2.179688 1.414062 -2.101562 1.375 -2 C 1.363281 -1.976562 1.351562 -1.945312 1.34375 -1.90625 C 1.332031 -1.875 1.320312 -1.828125 1.3125 -1.765625 C 1.289062 -1.710938 1.269531 -1.671875 1.25 -1.640625 C 1.238281 -1.609375 1.226562 -1.582031 1.21875 -1.5625 L 1.171875 -1.390625 L 1.234375 -1.375 C 1.253906 -1.375 1.289062 -1.375 1.34375 -1.375 C 1.40625 -1.375 1.484375 -1.367188 1.578125 -1.359375 C 1.679688 -1.347656 1.753906 -1.34375 1.796875 -1.34375 C 1.847656 -1.34375 1.875 -1.34375 1.875 -1.34375 C 1.882812 -1.34375 1.882812 -1.351562 1.875 -1.375 C 1.863281 -1.40625 1.851562 -1.445312 1.84375 -1.5 C 1.832031 -1.539062 1.816406 -1.59375 1.796875 -1.65625 C 1.773438 -1.71875 1.753906 -1.785156 1.734375 -1.859375 C 1.734375 -1.867188 1.722656 -1.90625 1.703125 -1.96875 C 1.679688 -2.039062 1.648438 -2.144531 1.609375 -2.28125 Z M 1.25 -2.96875 C 1.332031 -2.96875 1.414062 -2.96875 1.5 -2.96875 C 1.582031 -2.96875 1.65625 -2.96875 1.71875 -2.96875 L 1.96875 -2.96875 L 1.984375 -2.90625 C 1.992188 -2.882812 2.019531 -2.800781 2.0625 -2.65625 C 2.113281 -2.519531 2.1875 -2.320312 2.28125 -2.0625 C 2.300781 -2 2.320312 -1.941406 2.34375 -1.890625 C 2.363281 -1.835938 2.382812 -1.78125 2.40625 -1.71875 C 2.414062 -1.707031 2.425781 -1.6875 2.4375 -1.65625 C 2.445312 -1.632812 2.457031 -1.597656 2.46875 -1.546875 C 2.476562 -1.503906 2.488281 -1.46875 2.5 -1.4375 C 2.519531 -1.40625 2.53125 -1.378906 2.53125 -1.359375 C 2.539062 -1.347656 2.5625 -1.296875 2.59375 -1.203125 C 2.625 -1.109375 2.671875 -0.972656 2.734375 -0.796875 C 2.890625 -0.367188 2.96875 -0.148438 2.96875 -0.140625 C 2.96875 -0.140625 2.851562 -0.0976562 2.625 -0.015625 C 2.507812 0.015625 2.429688 0.0351562 2.390625 0.046875 C 2.359375 0.0664062 2.34375 0.078125 2.34375 0.078125 C 2.332031 0.078125 2.328125 0.078125 2.328125 0.078125 C 2.328125 0.078125 2.285156 -0.0664062 2.203125 -0.359375 C 2.109375 -0.660156 2.0625 -0.8125 2.0625 -0.8125 C 2.0625 -0.8125 2.019531 -0.8125 1.9375 -0.8125 C 1.851562 -0.8125 1.75 -0.804688 1.625 -0.796875 C 1.507812 -0.796875 1.40625 -0.789062 1.3125 -0.78125 C 1.226562 -0.78125 1.160156 -0.78125 1.109375 -0.78125 L 1 -0.765625 L 0.984375 -0.734375 C 0.960938 -0.679688 0.929688 -0.597656 0.890625 -0.484375 C 0.859375 -0.367188 0.8125 -0.222656 0.75 -0.046875 C 0.726562 0.0234375 0.710938 0.0664062 0.703125 0.078125 C 0.691406 0.0664062 0.671875 0.0625 0.640625 0.0625 C 0.617188 0.0507812 0.59375 0.0390625 0.5625 0.03125 C 0.53125 0.0195312 0.488281 0.0078125 0.4375 0 C 0.25 -0.0507812 0.148438 -0.0820312 0.140625 -0.09375 C 0.140625 -0.09375 0.234375 -0.390625 0.421875 -0.984375 C 0.515625 -1.273438 0.609375 -1.570312 0.703125 -1.875 C 0.796875 -2.1875 0.890625 -2.515625 0.984375 -2.859375 L 1.03125 -2.96875 Z M 1.25 -2.96875 "/></g></g></g><g fill="#ffffff" fill-opacity="1"><g transform="translate(116.703466, 17.724024)"><g><path d="M 0.234375 -2.96875 C 0.242188 -2.96875 0.367188 -2.96875 0.609375 -2.96875 L 0.96875 -2.96875 L 0.96875 -2.890625 C 0.96875 -2.847656 0.960938 -2.675781 0.953125 -2.375 C 0.941406 -2.0625 0.9375 -1.882812 0.9375 -1.84375 L 0.9375 -1.75 L 1.359375 -1.75 C 1.617188 -1.757812 1.753906 -1.765625 1.765625 -1.765625 C 1.765625 -1.773438 1.765625 -1.890625 1.765625 -2.109375 C 1.753906 -2.328125 1.75 -2.4375 1.75 -2.4375 C 1.738281 -2.4375 1.628906 -2.4375 1.421875 -2.4375 C 1.210938 -2.425781 1.097656 -2.421875 1.078125 -2.421875 L 1.03125 -2.421875 L 1.03125 -2.953125 L 1.0625 -2.953125 C 1.070312 -2.953125 1.148438 -2.945312 1.296875 -2.9375 C 1.453125 -2.9375 1.671875 -2.9375 1.953125 -2.9375 C 2.234375 -2.9375 2.375 -2.929688 2.375 -2.921875 C 2.375 -2.921875 2.375 -2.867188 2.375 -2.765625 C 2.363281 -2.703125 2.351562 -2.601562 2.34375 -2.46875 C 2.332031 -2.34375 2.320312 -2.175781 2.3125 -1.96875 C 2.289062 -1.757812 2.273438 -1.597656 2.265625 -1.484375 C 2.265625 -1.378906 2.265625 -1.316406 2.265625 -1.296875 L 2.25 -1.25 L 2.140625 -1.265625 C 2.066406 -1.265625 2.03125 -1.257812 2.03125 -1.25 C 2.03125 -1.25 2.039062 -1.21875 2.0625 -1.15625 C 2.09375 -1.09375 2.140625 -1.003906 2.203125 -0.890625 C 2.390625 -0.484375 2.484375 -0.273438 2.484375 -0.265625 C 2.484375 -0.265625 2.421875 -0.238281 2.296875 -0.1875 C 2.203125 -0.144531 2.128906 -0.113281 2.078125 -0.09375 C 2.023438 -0.0703125 1.992188 -0.0625 1.984375 -0.0625 C 1.941406 -0.0390625 1.910156 -0.0234375 1.890625 -0.015625 C 1.878906 -0.015625 1.867188 -0.015625 1.859375 -0.015625 C 1.859375 -0.015625 1.789062 -0.222656 1.65625 -0.640625 C 1.53125 -1.054688 1.457031 -1.265625 1.4375 -1.265625 C 1.4375 -1.265625 1.351562 -1.269531 1.1875 -1.28125 L 0.921875 -1.28125 L 0.921875 -1.15625 C 0.910156 -0.957031 0.898438 -0.769531 0.890625 -0.59375 C 0.890625 -0.414062 0.890625 -0.242188 0.890625 -0.078125 L 0.890625 0 L 0.421875 0 C 0.398438 0 0.378906 0 0.359375 0 C 0.359375 -0.0078125 0.351562 -0.0859375 0.34375 -0.234375 C 0.332031 -0.441406 0.328125 -0.675781 0.328125 -0.9375 C 0.328125 -0.945312 0.320312 -0.984375 0.3125 -1.046875 C 0.3125 -1.117188 0.3125 -1.21875 0.3125 -1.34375 C 0.300781 -1.46875 0.289062 -1.570312 0.28125 -1.65625 C 0.28125 -1.738281 0.28125 -1.804688 0.28125 -1.859375 C 0.28125 -1.878906 0.28125 -1.910156 0.28125 -1.953125 C 0.28125 -1.992188 0.28125 -2.039062 0.28125 -2.09375 C 0.269531 -2.21875 0.257812 -2.320312 0.25 -2.40625 C 0.25 -2.488281 0.25 -2.5625 0.25 -2.625 C 0.238281 -2.851562 0.234375 -2.96875 0.234375 -2.96875 Z M 0.234375 -2.96875 "/></g></g></g><g fill="#ffffff" fill-opacity="1"><g transform="translate(120.16, 17.724024)"><g><path d="M 0.25 -2.90625 L 0.234375 -2.96875 L 1.03125 -2.96875 L 1.078125 -2.890625 C 1.109375 -2.828125 1.15625 -2.726562 1.21875 -2.59375 C 1.28125 -2.457031 1.359375 -2.289062 1.453125 -2.09375 C 1.503906 -2 1.546875 -1.910156 1.578125 -1.828125 C 1.609375 -1.753906 1.640625 -1.6875 1.671875 -1.625 C 1.703125 -1.550781 1.722656 -1.5 1.734375 -1.46875 C 1.753906 -1.4375 1.765625 -1.414062 1.765625 -1.40625 C 1.765625 -1.40625 1.769531 -1.40625 1.78125 -1.40625 C 1.78125 -1.40625 1.78125 -1.4375 1.78125 -1.5 C 1.78125 -1.507812 1.78125 -1.570312 1.78125 -1.6875 C 1.78125 -1.800781 1.773438 -1.96875 1.765625 -2.1875 C 1.753906 -2.601562 1.742188 -2.832031 1.734375 -2.875 L 1.734375 -2.96875 L 2.53125 -2.96875 L 2.53125 -2.953125 C 2.53125 -2.953125 2.523438 -2.9375 2.515625 -2.90625 C 2.515625 -2.875 2.515625 -2.828125 2.515625 -2.765625 C 2.503906 -2.503906 2.488281 -2.21875 2.46875 -1.90625 C 2.457031 -1.59375 2.445312 -1.25 2.4375 -0.875 C 2.414062 -0.601562 2.398438 -0.394531 2.390625 -0.25 C 2.390625 -0.113281 2.390625 -0.0390625 2.390625 -0.03125 L 2.390625 0 L 1.796875 0 L 1.796875 -0.03125 C 1.753906 -0.164062 1.71875 -0.28125 1.6875 -0.375 C 1.65625 -0.476562 1.625 -0.5625 1.59375 -0.625 C 1.570312 -0.6875 1.535156 -0.769531 1.484375 -0.875 C 1.441406 -0.976562 1.382812 -1.101562 1.3125 -1.25 C 1.25 -1.382812 1.191406 -1.503906 1.140625 -1.609375 C 1.097656 -1.722656 1.0625 -1.820312 1.03125 -1.90625 C 0.976562 -2.007812 0.953125 -2.0625 0.953125 -2.0625 C 0.941406 -2.0625 0.9375 -2.03125 0.9375 -1.96875 C 0.9375 -1.9375 0.9375 -1.894531 0.9375 -1.84375 C 0.9375 -1.800781 0.9375 -1.742188 0.9375 -1.671875 C 0.914062 -1.203125 0.898438 -0.832031 0.890625 -0.5625 C 0.878906 -0.289062 0.875 -0.117188 0.875 -0.046875 L 0.875 0 L 0.359375 0 L 0.359375 -0.078125 C 0.347656 -0.117188 0.34375 -0.175781 0.34375 -0.25 C 0.34375 -0.320312 0.335938 -0.410156 0.328125 -0.515625 C 0.328125 -0.535156 0.328125 -0.578125 0.328125 -0.640625 C 0.328125 -0.703125 0.320312 -0.78125 0.3125 -0.875 C 0.3125 -1.050781 0.3125 -1.1875 0.3125 -1.28125 C 0.300781 -1.488281 0.289062 -1.707031 0.28125 -1.9375 C 0.269531 -2.175781 0.257812 -2.425781 0.25 -2.6875 C 0.25 -2.738281 0.25 -2.78125 0.25 -2.8125 C 0.25 -2.84375 0.25 -2.875 0.25 -2.90625 Z M 0.25 -2.90625 "/></g></g></g><g fill="#ffffff" fill-opacity="1"><g transform="translate(123.786386, 17.724024)"><g/></g></g><g fill="#ffffff" fill-opacity="1"><g transform="translate(125.90956, 17.724024)"><g><path d="M 0.359375 -0.640625 L 0.34375 -0.671875 L 0.71875 -0.671875 C 0.96875 -0.671875 1.09375 -0.664062 1.09375 -0.65625 C 1.09375 -0.644531 1.09375 -0.625 1.09375 -0.59375 C 1.082031 -0.5625 1.070312 -0.523438 1.0625 -0.484375 C 1.0625 -0.453125 1.054688 -0.410156 1.046875 -0.359375 C 1.035156 -0.253906 1.023438 -0.171875 1.015625 -0.109375 C 1.015625 -0.0546875 1.007812 -0.03125 1 -0.03125 L 1 0 L 0.4375 0 L 0.4375 -0.09375 C 0.425781 -0.175781 0.410156 -0.265625 0.390625 -0.359375 C 0.378906 -0.453125 0.367188 -0.546875 0.359375 -0.640625 Z M 0.359375 -0.640625 "/></g></g></g><g fill="#ffffff" fill-opacity="1"><g transform="translate(128.274776, 17.724024)"><g/></g></g><g fill="#ffffff" fill-opacity="1"><g transform="translate(130.39795, 17.724024)"><g><path d="M 0.21875 -2.890625 L 0.84375 -2.890625 L 0.84375 -2.84375 C 0.832031 -2.832031 0.820312 -2.765625 0.8125 -2.640625 C 0.8125 -2.523438 0.800781 -2.359375 0.78125 -2.140625 C 0.769531 -1.972656 0.765625 -1.890625 0.765625 -1.890625 C 0.773438 -1.878906 0.832031 -1.867188 0.9375 -1.859375 C 0.957031 -1.847656 0.976562 -1.84375 1 -1.84375 C 1.03125 -1.84375 1.066406 -1.835938 1.109375 -1.828125 C 1.148438 -1.816406 1.1875 -1.804688 1.21875 -1.796875 C 1.25 -1.796875 1.269531 -1.796875 1.28125 -1.796875 C 1.476562 -1.765625 1.640625 -1.738281 1.765625 -1.71875 C 1.898438 -1.707031 2.003906 -1.695312 2.078125 -1.6875 L 2.1875 -1.6875 L 2.1875 -1.65625 C 2.1875 -1.65625 2.164062 -1.398438 2.125 -0.890625 C 2.101562 -0.628906 2.085938 -0.429688 2.078125 -0.296875 C 2.066406 -0.160156 2.054688 -0.0820312 2.046875 -0.0625 L 2.046875 -0.015625 L 1.765625 -0.015625 C 1.703125 -0.015625 1.648438 -0.015625 1.609375 -0.015625 C 1.566406 -0.015625 1.539062 -0.015625 1.53125 -0.015625 C 1.507812 -0.015625 1.5 -0.0195312 1.5 -0.03125 C 1.488281 -0.0390625 1.476562 -0.046875 1.46875 -0.046875 C 1.46875 -0.046875 1.441406 -0.046875 1.390625 -0.046875 C 1.328125 -0.046875 1.257812 -0.0390625 1.1875 -0.03125 C 1.113281 -0.03125 1.03125 -0.03125 0.9375 -0.03125 C 0.851562 -0.03125 0.765625 -0.0234375 0.671875 -0.015625 C 0.585938 -0.015625 0.5 -0.015625 0.40625 -0.015625 L 0.234375 -0.015625 L 0.234375 -0.671875 L 0.34375 -0.65625 C 0.445312 -0.65625 0.582031 -0.648438 0.75 -0.640625 C 0.914062 -0.640625 1.117188 -0.632812 1.359375 -0.625 L 1.515625 -0.625 L 1.515625 -0.796875 C 1.523438 -0.847656 1.53125 -0.894531 1.53125 -0.9375 C 1.53125 -0.988281 1.53125 -1.03125 1.53125 -1.0625 L 1.546875 -1.15625 L 1.390625 -1.1875 C 1.085938 -1.269531 0.84375 -1.332031 0.65625 -1.375 C 0.476562 -1.414062 0.359375 -1.445312 0.296875 -1.46875 L 0.21875 -1.5 Z M 1.9375 -2.984375 C 1.96875 -2.992188 2.023438 -3 2.109375 -3 L 2.125 -3 L 2.125 -2.34375 L 2.078125 -2.34375 C 2.054688 -2.351562 2.015625 -2.359375 1.953125 -2.359375 C 1.898438 -2.359375 1.820312 -2.363281 1.71875 -2.375 C 1.625 -2.375 1.535156 -2.375 1.453125 -2.375 C 1.367188 -2.375 1.289062 -2.378906 1.21875 -2.390625 C 1.144531 -2.390625 1.085938 -2.390625 1.046875 -2.390625 C 1.003906 -2.390625 0.972656 -2.390625 0.953125 -2.390625 L 0.890625 -2.390625 L 0.890625 -2.640625 C 0.890625 -2.804688 0.894531 -2.894531 0.90625 -2.90625 C 0.90625 -2.90625 0.9375 -2.90625 1 -2.90625 C 1.15625 -2.914062 1.3125 -2.925781 1.46875 -2.9375 C 1.625 -2.957031 1.78125 -2.972656 1.9375 -2.984375 Z M 1.9375 -2.984375 "/></g></g></g><g fill="#ffffff" fill-opacity="1"><g transform="translate(133.642166, 17.724024)"><g><path d="M 0.25 -2.859375 L 0.234375 -2.96875 L 1 -2.96875 L 0.984375 -2.890625 C 0.984375 -2.859375 0.984375 -2.71875 0.984375 -2.46875 C 0.972656 -2.21875 0.96875 -2.066406 0.96875 -2.015625 L 0.953125 -1.890625 L 1.03125 -1.90625 C 1.09375 -1.90625 1.21875 -1.910156 1.40625 -1.921875 C 1.5 -1.921875 1.578125 -1.921875 1.640625 -1.921875 C 1.710938 -1.929688 1.765625 -1.9375 1.796875 -1.9375 L 1.875 -1.9375 L 1.875 -1.984375 C 1.875 -1.992188 1.875 -2 1.875 -2 C 1.875 -2.007812 1.875 -2.023438 1.875 -2.046875 C 1.863281 -2.085938 1.859375 -2.144531 1.859375 -2.21875 C 1.859375 -2.300781 1.859375 -2.375 1.859375 -2.4375 C 1.847656 -2.582031 1.84375 -2.691406 1.84375 -2.765625 C 1.84375 -2.847656 1.835938 -2.898438 1.828125 -2.921875 L 1.828125 -2.96875 L 2.59375 -2.96875 L 2.59375 -2.84375 C 2.582031 -2.757812 2.578125 -2.578125 2.578125 -2.296875 C 2.578125 -2.148438 2.570312 -2.015625 2.5625 -1.890625 C 2.5625 -1.765625 2.5625 -1.65625 2.5625 -1.5625 C 2.550781 -1.394531 2.539062 -1.238281 2.53125 -1.09375 C 2.53125 -0.945312 2.53125 -0.816406 2.53125 -0.703125 C 2.53125 -0.523438 2.523438 -0.382812 2.515625 -0.28125 C 2.515625 -0.1875 2.515625 -0.117188 2.515625 -0.078125 L 2.515625 0 L 1.96875 0 L 1.96875 -0.03125 C 1.957031 -0.0390625 1.953125 -0.0625 1.953125 -0.09375 C 1.953125 -0.125 1.953125 -0.164062 1.953125 -0.21875 C 1.953125 -0.257812 1.953125 -0.304688 1.953125 -0.359375 C 1.953125 -0.421875 1.945312 -0.484375 1.9375 -0.546875 C 1.9375 -0.648438 1.929688 -0.742188 1.921875 -0.828125 C 1.921875 -0.910156 1.921875 -0.976562 1.921875 -1.03125 C 1.910156 -1.25 1.90625 -1.359375 1.90625 -1.359375 C 1.90625 -1.359375 1.742188 -1.363281 1.421875 -1.375 C 1.265625 -1.382812 1.144531 -1.390625 1.0625 -1.390625 C 0.988281 -1.390625 0.953125 -1.390625 0.953125 -1.390625 C 0.941406 -1.390625 0.9375 -1.351562 0.9375 -1.28125 C 0.9375 -1.207031 0.9375 -1.097656 0.9375 -0.953125 C 0.925781 -0.910156 0.921875 -0.851562 0.921875 -0.78125 C 0.921875 -0.71875 0.914062 -0.65625 0.90625 -0.59375 C 0.90625 -0.53125 0.90625 -0.46875 0.90625 -0.40625 C 0.90625 -0.351562 0.90625 -0.316406 0.90625 -0.296875 C 0.90625 -0.222656 0.90625 -0.164062 0.90625 -0.125 C 0.90625 -0.0820312 0.90625 -0.0507812 0.90625 -0.03125 L 0.90625 0 L 0.34375 0 L 0.3125 -0.9375 C 0.300781 -1.363281 0.289062 -1.691406 0.28125 -1.921875 C 0.269531 -2.148438 0.265625 -2.285156 0.265625 -2.328125 C 0.253906 -2.472656 0.25 -2.585938 0.25 -2.671875 C 0.25 -2.765625 0.25 -2.828125 0.25 -2.859375 Z M 0.25 -2.859375 "/></g></g></g><g fill="#ffffff" fill-opacity="1"><g transform="translate(137.336493, 17.724024)"><g><path d="M 1.609375 -2.28125 L 1.5625 -2.4375 C 1.5625 -2.445312 1.554688 -2.460938 1.546875 -2.484375 C 1.535156 -2.484375 1.523438 -2.445312 1.515625 -2.375 C 1.503906 -2.34375 1.488281 -2.296875 1.46875 -2.234375 C 1.445312 -2.179688 1.414062 -2.101562 1.375 -2 C 1.363281 -1.976562 1.351562 -1.945312 1.34375 -1.90625 C 1.332031 -1.875 1.320312 -1.828125 1.3125 -1.765625 C 1.289062 -1.710938 1.269531 -1.671875 1.25 -1.640625 C 1.238281 -1.609375 1.226562 -1.582031 1.21875 -1.5625 L 1.171875 -1.390625 L 1.234375 -1.375 C 1.253906 -1.375 1.289062 -1.375 1.34375 -1.375 C 1.40625 -1.375 1.484375 -1.367188 1.578125 -1.359375 C 1.679688 -1.347656 1.753906 -1.34375 1.796875 -1.34375 C 1.847656 -1.34375 1.875 -1.34375 1.875 -1.34375 C 1.882812 -1.34375 1.882812 -1.351562 1.875 -1.375 C 1.863281 -1.40625 1.851562 -1.445312 1.84375 -1.5 C 1.832031 -1.539062 1.816406 -1.59375 1.796875 -1.65625 C 1.773438 -1.71875 1.753906 -1.785156 1.734375 -1.859375 C 1.734375 -1.867188 1.722656 -1.90625 1.703125 -1.96875 C 1.679688 -2.039062 1.648438 -2.144531 1.609375 -2.28125 Z M 1.25 -2.96875 C 1.332031 -2.96875 1.414062 -2.96875 1.5 -2.96875 C 1.582031 -2.96875 1.65625 -2.96875 1.71875 -2.96875 L 1.96875 -2.96875 L 1.984375 -2.90625 C 1.992188 -2.882812 2.019531 -2.800781 2.0625 -2.65625 C 2.113281 -2.519531 2.1875 -2.320312 2.28125 -2.0625 C 2.300781 -2 2.320312 -1.941406 2.34375 -1.890625 C 2.363281 -1.835938 2.382812 -1.78125 2.40625 -1.71875 C 2.414062 -1.707031 2.425781 -1.6875 2.4375 -1.65625 C 2.445312 -1.632812 2.457031 -1.597656 2.46875 -1.546875 C 2.476562 -1.503906 2.488281 -1.46875 2.5 -1.4375 C 2.519531 -1.40625 2.53125 -1.378906 2.53125 -1.359375 C 2.539062 -1.347656 2.5625 -1.296875 2.59375 -1.203125 C 2.625 -1.109375 2.671875 -0.972656 2.734375 -0.796875 C 2.890625 -0.367188 2.96875 -0.148438 2.96875 -0.140625 C 2.96875 -0.140625 2.851562 -0.0976562 2.625 -0.015625 C 2.507812 0.015625 2.429688 0.0351562 2.390625 0.046875 C 2.359375 0.0664062 2.34375 0.078125 2.34375 0.078125 C 2.332031 0.078125 2.328125 0.078125 2.328125 0.078125 C 2.328125 0.078125 2.285156 -0.0664062 2.203125 -0.359375 C 2.109375 -0.660156 2.0625 -0.8125 2.0625 -0.8125 C 2.0625 -0.8125 2.019531 -0.8125 1.9375 -0.8125 C 1.851562 -0.8125 1.75 -0.804688 1.625 -0.796875 C 1.507812 -0.796875 1.40625 -0.789062 1.3125 -0.78125 C 1.226562 -0.78125 1.160156 -0.78125 1.109375 -0.78125 L 1 -0.765625 L 0.984375 -0.734375 C 0.960938 -0.679688 0.929688 -0.597656 0.890625 -0.484375 C 0.859375 -0.367188 0.8125 -0.222656 0.75 -0.046875 C 0.726562 0.0234375 0.710938 0.0664062 0.703125 0.078125 C 0.691406 0.0664062 0.671875 0.0625 0.640625 0.0625 C 0.617188 0.0507812 0.59375 0.0390625 0.5625 0.03125 C 0.53125 0.0195312 0.488281 0.0078125 0.4375 0 C 0.25 -0.0507812 0.148438 -0.0820312 0.140625 -0.09375 C 0.140625 -0.09375 0.234375 -0.390625 0.421875 -0.984375 C 0.515625 -1.273438 0.609375 -1.570312 0.703125 -1.875 C 0.796875 -2.1875 0.890625 -2.515625 0.984375 -2.859375 L 1.03125 -2.96875 Z M 1.25 -2.96875 "/></g></g></g><g fill="#ffffff" fill-opacity="1"><g transform="translate(141.281357, 17.724024)"><g><path d="M 0.234375 -2.96875 C 0.242188 -2.96875 0.367188 -2.96875 0.609375 -2.96875 L 0.96875 -2.96875 L 0.96875 -2.890625 C 0.96875 -2.847656 0.960938 -2.675781 0.953125 -2.375 C 0.941406 -2.0625 0.9375 -1.882812 0.9375 -1.84375 L 0.9375 -1.75 L 1.359375 -1.75 C 1.617188 -1.757812 1.753906 -1.765625 1.765625 -1.765625 C 1.765625 -1.773438 1.765625 -1.890625 1.765625 -2.109375 C 1.753906 -2.328125 1.75 -2.4375 1.75 -2.4375 C 1.738281 -2.4375 1.628906 -2.4375 1.421875 -2.4375 C 1.210938 -2.425781 1.097656 -2.421875 1.078125 -2.421875 L 1.03125 -2.421875 L 1.03125 -2.953125 L 1.0625 -2.953125 C 1.070312 -2.953125 1.148438 -2.945312 1.296875 -2.9375 C 1.453125 -2.9375 1.671875 -2.9375 1.953125 -2.9375 C 2.234375 -2.9375 2.375 -2.929688 2.375 -2.921875 C 2.375 -2.921875 2.375 -2.867188 2.375 -2.765625 C 2.363281 -2.703125 2.351562 -2.601562 2.34375 -2.46875 C 2.332031 -2.34375 2.320312 -2.175781 2.3125 -1.96875 C 2.289062 -1.757812 2.273438 -1.597656 2.265625 -1.484375 C 2.265625 -1.378906 2.265625 -1.316406 2.265625 -1.296875 L 2.25 -1.25 L 2.140625 -1.265625 C 2.066406 -1.265625 2.03125 -1.257812 2.03125 -1.25 C 2.03125 -1.25 2.039062 -1.21875 2.0625 -1.15625 C 2.09375 -1.09375 2.140625 -1.003906 2.203125 -0.890625 C 2.390625 -0.484375 2.484375 -0.273438 2.484375 -0.265625 C 2.484375 -0.265625 2.421875 -0.238281 2.296875 -0.1875 C 2.203125 -0.144531 2.128906 -0.113281 2.078125 -0.09375 C 2.023438 -0.0703125 1.992188 -0.0625 1.984375 -0.0625 C 1.941406 -0.0390625 1.910156 -0.0234375 1.890625 -0.015625 C 1.878906 -0.015625 1.867188 -0.015625 1.859375 -0.015625 C 1.859375 -0.015625 1.789062 -0.222656 1.65625 -0.640625 C 1.53125 -1.054688 1.457031 -1.265625 1.4375 -1.265625 C 1.4375 -1.265625 1.351562 -1.269531 1.1875 -1.28125 L 0.921875 -1.28125 L 0.921875 -1.15625 C 0.910156 -0.957031 0.898438 -0.769531 0.890625 -0.59375 C 0.890625 -0.414062 0.890625 -0.242188 0.890625 -0.078125 L 0.890625 0 L 0.421875 0 C 0.398438 0 0.378906 0 0.359375 0 C 0.359375 -0.0078125 0.351562 -0.0859375 0.34375 -0.234375 C 0.332031 -0.441406 0.328125 -0.675781 0.328125 -0.9375 C 0.328125 -0.945312 0.320312 -0.984375 0.3125 -1.046875 C 0.3125 -1.117188 0.3125 -1.21875 0.3125 -1.34375 C 0.300781 -1.46875 0.289062 -1.570312 0.28125 -1.65625 C 0.28125 -1.738281 0.28125 -1.804688 0.28125 -1.859375 C 0.28125 -1.878906 0.28125 -1.910156 0.28125 -1.953125 C 0.28125 -1.992188 0.28125 -2.039062 0.28125 -2.09375 C 0.269531 -2.21875 0.257812 -2.320312 0.25 -2.40625 C 0.25 -2.488281 0.25 -2.5625 0.25 -2.625 C 0.238281 -2.851562 0.234375 -2.96875 0.234375 -2.96875 Z M 0.234375 -2.96875 "/></g></g></g><g fill="#ffffff" fill-opacity="1"><g transform="translate(144.737892, 17.724024)"><g><path d="M 0.25 -2.9375 C 0.25 -2.9375 0.363281 -2.9375 0.59375 -2.9375 L 0.9375 -2.9375 L 0.9375 -2.828125 C 0.9375 -2.816406 0.9375 -2.800781 0.9375 -2.78125 C 0.9375 -2.769531 0.9375 -2.75 0.9375 -2.71875 C 0.9375 -2.695312 0.9375 -2.664062 0.9375 -2.625 C 0.9375 -2.582031 0.929688 -2.539062 0.921875 -2.5 C 0.921875 -2.457031 0.921875 -2.414062 0.921875 -2.375 C 0.921875 -2.332031 0.921875 -2.289062 0.921875 -2.25 C 0.910156 -1.957031 0.90625 -1.804688 0.90625 -1.796875 C 0.914062 -1.785156 1.175781 -1.773438 1.6875 -1.765625 C 1.71875 -1.753906 1.765625 -1.75 1.828125 -1.75 C 1.890625 -1.75 1.972656 -1.742188 2.078125 -1.734375 L 2.1875 -1.734375 L 2.1875 -1.25 L 2.125 -1.25 C 2.101562 -1.238281 2.0625 -1.234375 2 -1.234375 C 1.9375 -1.234375 1.847656 -1.234375 1.734375 -1.234375 C 1.453125 -1.222656 1.242188 -1.210938 1.109375 -1.203125 C 0.972656 -1.191406 0.90625 -1.1875 0.90625 -1.1875 C 0.894531 -1.1875 0.890625 -1.113281 0.890625 -0.96875 C 0.890625 -0.894531 0.882812 -0.828125 0.875 -0.765625 C 0.875 -0.710938 0.875 -0.671875 0.875 -0.640625 L 0.875 -0.5625 L 1 -0.578125 C 1.019531 -0.578125 1.039062 -0.578125 1.0625 -0.578125 C 1.082031 -0.578125 1.109375 -0.578125 1.140625 -0.578125 C 1.171875 -0.585938 1.195312 -0.59375 1.21875 -0.59375 C 1.25 -0.59375 1.269531 -0.59375 1.28125 -0.59375 C 1.425781 -0.59375 1.546875 -0.597656 1.640625 -0.609375 C 1.785156 -0.609375 1.90625 -0.609375 2 -0.609375 C 2.101562 -0.617188 2.179688 -0.628906 2.234375 -0.640625 L 2.3125 -0.640625 L 2.3125 0.015625 L 2.203125 0.015625 C 2.191406 0.015625 2.175781 0.015625 2.15625 0.015625 C 2.144531 0.015625 2.128906 0.015625 2.109375 0.015625 C 2.085938 0.015625 2.0625 0.015625 2.03125 0.015625 C 2 0.015625 1.960938 0.0078125 1.921875 0 C 1.890625 0 1.851562 0 1.8125 0 C 1.78125 0 1.757812 0 1.75 0 C 1.644531 -0.0078125 1.546875 -0.015625 1.453125 -0.015625 C 1.359375 -0.015625 1.265625 -0.015625 1.171875 -0.015625 C 1.097656 -0.0234375 1.035156 -0.03125 0.984375 -0.03125 C 0.941406 -0.03125 0.914062 -0.03125 0.90625 -0.03125 C 0.875 -0.03125 0.859375 -0.0234375 0.859375 -0.015625 C 0.859375 -0.00390625 0.773438 0 0.609375 0 C 0.429688 0 0.34375 -0.00390625 0.34375 -0.015625 C 0.34375 -0.0976562 0.332031 -0.34375 0.3125 -0.75 C 0.300781 -1.164062 0.28125 -1.753906 0.25 -2.515625 C 0.238281 -2.785156 0.238281 -2.925781 0.25 -2.9375 Z M 1.90625 -2.953125 C 2 -2.960938 2.070312 -2.96875 2.125 -2.96875 C 2.175781 -2.96875 2.207031 -2.96875 2.21875 -2.96875 L 2.265625 -2.96875 L 2.265625 -2.34375 L 2.234375 -2.34375 C 2.210938 -2.34375 2.148438 -2.34375 2.046875 -2.34375 C 1.941406 -2.351562 1.804688 -2.363281 1.640625 -2.375 C 1.460938 -2.382812 1.328125 -2.390625 1.234375 -2.390625 C 1.140625 -2.390625 1.078125 -2.390625 1.046875 -2.390625 L 1.015625 -2.40625 L 1.015625 -2.890625 L 1.078125 -2.890625 C 1.085938 -2.890625 1.113281 -2.890625 1.15625 -2.890625 C 1.207031 -2.898438 1.28125 -2.90625 1.375 -2.90625 C 1.445312 -2.914062 1.53125 -2.921875 1.625 -2.921875 C 1.71875 -2.929688 1.8125 -2.941406 1.90625 -2.953125 Z M 1.90625 -2.953125 "/></g></g></g><g fill="#ffffff" fill-opacity="1"><g transform="translate(148.088267, 17.724024)"><g/></g></g><g fill="#ffffff" fill-opacity="1"><g transform="translate(150.21144, 17.724024)"><g><path d="M 0.359375 -0.640625 L 0.34375 -0.671875 L 0.71875 -0.671875 C 0.96875 -0.671875 1.09375 -0.664062 1.09375 -0.65625 C 1.09375 -0.644531 1.09375 -0.625 1.09375 -0.59375 C 1.082031 -0.5625 1.070312 -0.523438 1.0625 -0.484375 C 1.0625 -0.453125 1.054688 -0.410156 1.046875 -0.359375 C 1.035156 -0.253906 1.023438 -0.171875 1.015625 -0.109375 C 1.015625 -0.0546875 1.007812 -0.03125 1 -0.03125 L 1 0 L 0.4375 0 L 0.4375 -0.09375 C 0.425781 -0.175781 0.410156 -0.265625 0.390625 -0.359375 C 0.378906 -0.453125 0.367188 -0.546875 0.359375 -0.640625 Z M 0.359375 -0.640625 "/></g></g></g><g fill="#ffffff" fill-opacity="1"><g transform="translate(152.576657, 17.724024)"><g/></g></g><g fill="#ffffff" fill-opacity="1"><g transform="translate(154.699828, 17.724024)"><g><path d="M 0.234375 -2.84375 L 0.234375 -2.90625 L 0.9375 -2.90625 L 0.9375 -2.84375 C 0.9375 -2.820312 0.929688 -2.664062 0.921875 -2.375 C 0.910156 -2.082031 0.890625 -1.648438 0.859375 -1.078125 C 0.859375 -0.941406 0.851562 -0.835938 0.84375 -0.765625 C 0.84375 -0.703125 0.84375 -0.664062 0.84375 -0.65625 L 0.84375 -0.609375 L 1.8125 -0.609375 L 1.8125 -0.640625 C 1.800781 -0.660156 1.796875 -0.75 1.796875 -0.90625 C 1.785156 -1.0625 1.78125 -1.160156 1.78125 -1.203125 L 1.78125 -1.25 L 1.671875 -1.234375 C 1.640625 -1.234375 1.597656 -1.234375 1.546875 -1.234375 C 1.503906 -1.234375 1.453125 -1.234375 1.390625 -1.234375 L 1.1875 -1.21875 L 1.1875 -1.828125 L 1.234375 -1.828125 C 1.234375 -1.828125 1.25 -1.828125 1.28125 -1.828125 C 1.320312 -1.828125 1.378906 -1.828125 1.453125 -1.828125 C 1.515625 -1.816406 1.617188 -1.804688 1.765625 -1.796875 C 1.910156 -1.796875 2.101562 -1.789062 2.34375 -1.78125 L 2.484375 -1.78125 L 2.484375 -1.28125 L 2.4375 -1.28125 C 2.414062 -1.28125 2.398438 -1.28125 2.390625 -1.28125 C 2.390625 -1.269531 2.375 -1.054688 2.34375 -0.640625 L 2.328125 0 L 2.078125 0 C 2.023438 0 1.976562 0 1.9375 0 C 1.90625 0 1.878906 0 1.859375 0 C 1.835938 -0.0078125 1.828125 -0.015625 1.828125 -0.015625 C 1.816406 -0.0234375 1.796875 -0.03125 1.765625 -0.03125 C 1.734375 -0.0390625 1.679688 -0.046875 1.609375 -0.046875 C 1.546875 -0.046875 1.453125 -0.046875 1.328125 -0.046875 C 1.203125 -0.0351562 1.101562 -0.03125 1.03125 -0.03125 C 0.957031 -0.03125 0.910156 -0.03125 0.890625 -0.03125 C 0.835938 -0.03125 0.8125 -0.0234375 0.8125 -0.015625 C 0.8125 -0.00390625 0.800781 0 0.78125 0 L 0.359375 0 L 0.34375 -0.078125 C 0.34375 -0.0976562 0.335938 -0.160156 0.328125 -0.265625 C 0.328125 -0.367188 0.328125 -0.507812 0.328125 -0.6875 C 0.316406 -0.863281 0.304688 -1.085938 0.296875 -1.359375 C 0.285156 -1.628906 0.273438 -1.945312 0.265625 -2.3125 C 0.253906 -2.476562 0.242188 -2.601562 0.234375 -2.6875 C 0.234375 -2.78125 0.234375 -2.832031 0.234375 -2.84375 Z M 2.15625 -2.96875 C 2.257812 -2.96875 2.320312 -2.96875 2.34375 -2.96875 L 2.375 -2.96875 L 2.375 -2.34375 L 1.03125 -2.34375 L 1.03125 -2.859375 L 1.046875 -2.875 C 1.054688 -2.875 1.148438 -2.878906 1.328125 -2.890625 C 1.484375 -2.898438 1.628906 -2.910156 1.765625 -2.921875 C 1.898438 -2.929688 2.03125 -2.945312 2.15625 -2.96875 Z M 2.15625 -2.96875 "/></g></g></g><g fill="#ffffff" fill-opacity="1"><g transform="translate(158.169097, 17.724024)"><g><path d="M 0.234375 -2.96875 C 0.242188 -2.96875 0.367188 -2.96875 0.609375 -2.96875 L 0.96875 -2.96875 L 0.96875 -2.890625 C 0.96875 -2.847656 0.960938 -2.675781 0.953125 -2.375 C 0.941406 -2.0625 0.9375 -1.882812 0.9375 -1.84375 L 0.9375 -1.75 L 1.359375 -1.75 C 1.617188 -1.757812 1.753906 -1.765625 1.765625 -1.765625 C 1.765625 -1.773438 1.765625 -1.890625 1.765625 -2.109375 C 1.753906 -2.328125 1.75 -2.4375 1.75 -2.4375 C 1.738281 -2.4375 1.628906 -2.4375 1.421875 -2.4375 C 1.210938 -2.425781 1.097656 -2.421875 1.078125 -2.421875 L 1.03125 -2.421875 L 1.03125 -2.953125 L 1.0625 -2.953125 C 1.070312 -2.953125 1.148438 -2.945312 1.296875 -2.9375 C 1.453125 -2.9375 1.671875 -2.9375 1.953125 -2.9375 C 2.234375 -2.9375 2.375 -2.929688 2.375 -2.921875 C 2.375 -2.921875 2.375 -2.867188 2.375 -2.765625 C 2.363281 -2.703125 2.351562 -2.601562 2.34375 -2.46875 C 2.332031 -2.34375 2.320312 -2.175781 2.3125 -1.96875 C 2.289062 -1.757812 2.273438 -1.597656 2.265625 -1.484375 C 2.265625 -1.378906 2.265625 -1.316406 2.265625 -1.296875 L 2.25 -1.25 L 2.140625 -1.265625 C 2.066406 -1.265625 2.03125 -1.257812 2.03125 -1.25 C 2.03125 -1.25 2.039062 -1.21875 2.0625 -1.15625 C 2.09375 -1.09375 2.140625 -1.003906 2.203125 -0.890625 C 2.390625 -0.484375 2.484375 -0.273438 2.484375 -0.265625 C 2.484375 -0.265625 2.421875 -0.238281 2.296875 -0.1875 C 2.203125 -0.144531 2.128906 -0.113281 2.078125 -0.09375 C 2.023438 -0.0703125 1.992188 -0.0625 1.984375 -0.0625 C 1.941406 -0.0390625 1.910156 -0.0234375 1.890625 -0.015625 C 1.878906 -0.015625 1.867188 -0.015625 1.859375 -0.015625 C 1.859375 -0.015625 1.789062 -0.222656 1.65625 -0.640625 C 1.53125 -1.054688 1.457031 -1.265625 1.4375 -1.265625 C 1.4375 -1.265625 1.351562 -1.269531 1.1875 -1.28125 L 0.921875 -1.28125 L 0.921875 -1.15625 C 0.910156 -0.957031 0.898438 -0.769531 0.890625 -0.59375 C 0.890625 -0.414062 0.890625 -0.242188 0.890625 -0.078125 L 0.890625 0 L 0.421875 0 C 0.398438 0 0.378906 0 0.359375 0 C 0.359375 -0.0078125 0.351562 -0.0859375 0.34375 -0.234375 C 0.332031 -0.441406 0.328125 -0.675781 0.328125 -0.9375 C 0.328125 -0.945312 0.320312 -0.984375 0.3125 -1.046875 C 0.3125 -1.117188 0.3125 -1.21875 0.3125 -1.34375 C 0.300781 -1.46875 0.289062 -1.570312 0.28125 -1.65625 C 0.28125 -1.738281 0.28125 -1.804688 0.28125 -1.859375 C 0.28125 -1.878906 0.28125 -1.910156 0.28125 -1.953125 C 0.28125 -1.992188 0.28125 -2.039062 0.28125 -2.09375 C 0.269531 -2.21875 0.257812 -2.320312 0.25 -2.40625 C 0.25 -2.488281 0.25 -2.5625 0.25 -2.625 C 0.238281 -2.851562 0.234375 -2.96875 0.234375 -2.96875 Z M 0.234375 -2.96875 "/></g></g></g><g fill="#ffffff" fill-opacity="1"><g transform="translate(161.625628, 17.724024)"><g><path d="M 1.703125 -2.40625 L 1.6875 -2.4375 L 1.265625 -2.4375 L 1.1875 -2.328125 C 1.175781 -2.296875 1.15625 -2.257812 1.125 -2.21875 C 1.101562 -2.175781 1.078125 -2.132812 1.046875 -2.09375 C 1.035156 -2.0625 1.019531 -2.03125 1 -2 C 0.976562 -1.96875 0.957031 -1.9375 0.9375 -1.90625 C 0.914062 -1.875 0.894531 -1.84375 0.875 -1.8125 C 0.863281 -1.789062 0.851562 -1.773438 0.84375 -1.765625 L 0.8125 -1.703125 L 0.890625 -1.359375 C 0.941406 -1.085938 0.972656 -0.925781 0.984375 -0.875 C 0.992188 -0.832031 1.003906 -0.789062 1.015625 -0.75 C 1.023438 -0.707031 1.03125 -0.675781 1.03125 -0.65625 L 1.046875 -0.5625 L 1.484375 -0.5625 C 1.554688 -0.570312 1.617188 -0.578125 1.671875 -0.578125 C 1.722656 -0.578125 1.769531 -0.578125 1.8125 -0.578125 C 1.851562 -0.578125 1.890625 -0.578125 1.921875 -0.578125 C 1.921875 -0.578125 1.941406 -0.691406 1.984375 -0.921875 C 1.992188 -0.992188 2.003906 -1.054688 2.015625 -1.109375 C 2.023438 -1.160156 2.035156 -1.210938 2.046875 -1.265625 C 2.066406 -1.335938 2.082031 -1.398438 2.09375 -1.453125 C 2.101562 -1.503906 2.109375 -1.535156 2.109375 -1.546875 L 2.140625 -1.71875 L 1.9375 -2.046875 C 1.863281 -2.160156 1.804688 -2.242188 1.765625 -2.296875 C 1.734375 -2.359375 1.710938 -2.394531 1.703125 -2.40625 Z M 0.640625 -2.8125 L 0.703125 -2.96875 L 2.21875 -2.96875 L 2.328125 -2.765625 C 2.335938 -2.742188 2.351562 -2.703125 2.375 -2.640625 C 2.40625 -2.578125 2.4375 -2.503906 2.46875 -2.421875 C 2.507812 -2.335938 2.550781 -2.25 2.59375 -2.15625 C 2.632812 -2.0625 2.671875 -1.972656 2.703125 -1.890625 C 2.734375 -1.816406 2.757812 -1.753906 2.78125 -1.703125 C 2.8125 -1.648438 2.828125 -1.617188 2.828125 -1.609375 C 2.828125 -1.597656 2.816406 -1.554688 2.796875 -1.484375 C 2.773438 -1.421875 2.75 -1.34375 2.71875 -1.25 C 2.695312 -1.15625 2.664062 -1.050781 2.625 -0.9375 C 2.59375 -0.832031 2.5625 -0.726562 2.53125 -0.625 C 2.5 -0.519531 2.472656 -0.429688 2.453125 -0.359375 C 2.429688 -0.285156 2.414062 -0.238281 2.40625 -0.21875 L 2.34375 -0.015625 L 1.484375 0 L 0.640625 0 L 0.59375 -0.125 C 0.570312 -0.15625 0.503906 -0.359375 0.390625 -0.734375 C 0.378906 -0.773438 0.363281 -0.816406 0.34375 -0.859375 C 0.332031 -0.898438 0.320312 -0.945312 0.3125 -1 C 0.28125 -1.082031 0.25 -1.164062 0.21875 -1.25 C 0.195312 -1.332031 0.1875 -1.378906 0.1875 -1.390625 L 0.125 -1.5625 L 0.140625 -1.59375 C 0.148438 -1.601562 0.179688 -1.679688 0.234375 -1.828125 C 0.296875 -1.984375 0.390625 -2.210938 0.515625 -2.515625 C 0.523438 -2.546875 0.539062 -2.585938 0.5625 -2.640625 C 0.582031 -2.691406 0.609375 -2.75 0.640625 -2.8125 Z M 0.640625 -2.8125 "/></g></g></g><g fill="#ffffff" fill-opacity="1"><g transform="translate(165.421869, 17.724024)"><g><path d="M 2.78125 -2.90625 C 2.800781 -2.988281 2.8125 -3.03125 2.8125 -3.03125 C 2.820312 -3.03125 2.859375 -3.019531 2.921875 -3 C 2.984375 -2.988281 3.066406 -2.96875 3.171875 -2.9375 C 3.398438 -2.875 3.515625 -2.835938 3.515625 -2.828125 C 3.515625 -2.828125 3.4375 -2.507812 3.28125 -1.875 C 3.226562 -1.6875 3.175781 -1.488281 3.125 -1.28125 C 3.082031 -1.070312 3.03125 -0.851562 2.96875 -0.625 C 2.875 -0.257812 2.828125 -0.0664062 2.828125 -0.046875 L 2.828125 -0.015625 L 2.640625 -0.015625 C 2.335938 -0.00390625 2.1875 -0.00390625 2.1875 -0.015625 C 2.175781 -0.015625 2.15625 -0.0976562 2.125 -0.265625 C 2.101562 -0.359375 2.078125 -0.472656 2.046875 -0.609375 C 2.023438 -0.753906 1.992188 -0.921875 1.953125 -1.109375 C 1.878906 -1.472656 1.832031 -1.664062 1.8125 -1.6875 C 1.8125 -1.695312 1.8125 -1.695312 1.8125 -1.6875 C 1.8125 -1.675781 1.8125 -1.664062 1.8125 -1.65625 C 1.8125 -1.65625 1.804688 -1.648438 1.796875 -1.640625 C 1.773438 -1.492188 1.742188 -1.304688 1.703125 -1.078125 C 1.671875 -0.859375 1.628906 -0.585938 1.578125 -0.265625 C 1.546875 -0.0976562 1.53125 -0.0078125 1.53125 0 C 1.53125 0 1.421875 -0.00390625 1.203125 -0.015625 L 0.875 -0.015625 L 0.796875 -0.3125 C 0.765625 -0.414062 0.738281 -0.5 0.71875 -0.5625 C 0.707031 -0.625 0.703125 -0.660156 0.703125 -0.671875 C 0.679688 -0.742188 0.648438 -0.84375 0.609375 -0.96875 C 0.566406 -1.101562 0.519531 -1.269531 0.46875 -1.46875 C 0.457031 -1.519531 0.441406 -1.570312 0.421875 -1.625 C 0.398438 -1.675781 0.382812 -1.722656 0.375 -1.765625 C 0.363281 -1.816406 0.351562 -1.859375 0.34375 -1.890625 C 0.332031 -1.929688 0.328125 -1.957031 0.328125 -1.96875 C 0.316406 -1.988281 0.300781 -2.019531 0.28125 -2.0625 C 0.269531 -2.113281 0.253906 -2.171875 0.234375 -2.234375 C 0.128906 -2.597656 0.0820312 -2.785156 0.09375 -2.796875 C 0.09375 -2.804688 0.109375 -2.8125 0.140625 -2.8125 C 0.171875 -2.820312 0.210938 -2.832031 0.265625 -2.84375 C 0.316406 -2.863281 0.367188 -2.878906 0.421875 -2.890625 C 0.484375 -2.910156 0.539062 -2.925781 0.59375 -2.9375 C 0.65625 -2.957031 0.703125 -2.972656 0.734375 -2.984375 C 0.773438 -2.992188 0.796875 -3 0.796875 -3 C 0.804688 -3 0.820312 -2.929688 0.84375 -2.796875 C 0.945312 -2.234375 1.023438 -1.800781 1.078125 -1.5 C 1.128906 -1.195312 1.160156 -1.023438 1.171875 -0.984375 C 1.179688 -0.890625 1.191406 -0.84375 1.203125 -0.84375 C 1.203125 -0.851562 1.207031 -0.921875 1.21875 -1.046875 C 1.226562 -1.171875 1.25 -1.351562 1.28125 -1.59375 C 1.300781 -1.78125 1.316406 -1.953125 1.328125 -2.109375 C 1.347656 -2.273438 1.363281 -2.425781 1.375 -2.5625 C 1.382812 -2.65625 1.390625 -2.722656 1.390625 -2.765625 C 1.398438 -2.816406 1.40625 -2.847656 1.40625 -2.859375 L 1.421875 -2.890625 L 2.171875 -2.890625 L 2.21875 -2.59375 C 2.226562 -2.570312 2.234375 -2.523438 2.234375 -2.453125 C 2.242188 -2.390625 2.257812 -2.304688 2.28125 -2.203125 C 2.289062 -2.085938 2.300781 -1.988281 2.3125 -1.90625 C 2.320312 -1.820312 2.332031 -1.753906 2.34375 -1.703125 C 2.351562 -1.648438 2.363281 -1.597656 2.375 -1.546875 C 2.382812 -1.492188 2.390625 -1.4375 2.390625 -1.375 C 2.410156 -1.257812 2.425781 -1.164062 2.4375 -1.09375 C 2.445312 -1.019531 2.453125 -0.972656 2.453125 -0.953125 L 2.484375 -0.84375 C 2.484375 -0.84375 2.488281 -0.878906 2.5 -0.953125 C 2.507812 -1.023438 2.523438 -1.125 2.546875 -1.25 C 2.554688 -1.320312 2.5625 -1.378906 2.5625 -1.421875 C 2.570312 -1.460938 2.582031 -1.492188 2.59375 -1.515625 C 2.625 -1.710938 2.65625 -1.925781 2.6875 -2.15625 C 2.71875 -2.382812 2.75 -2.632812 2.78125 -2.90625 Z M 2.78125 -2.90625 "/></g></g></g></svg>