<svg xmlns="http://www.w3.org/2000/svg" xmlns:xlink="http://www.w3.org/1999/xlink" width="308" zoomAndPan="magnify" viewBox="0 0 230.87999 73.499998" height="98" preserveAspectRatio="xMidYMid meet" version="1.0"><defs><g/><clipPath id="4fa25a7ac7"><path d="M 188 5 L 201 5 L 201 18 L 188 18 Z M 188 5 " clip-rule="nonzero"/></clipPath><clipPath id="65e8b11019"><path d="M 185.160156 -14.453125 L 211.464844 22.0625 L 194.996094 33.925781 L 168.691406 -2.59375 Z M 185.160156 -14.453125 " clip-rule="nonzero"/></clipPath><clipPath id="cd862215cf"><path d="M 185.160156 -14.453125 L 211.464844 22.0625 L 194.996094 33.925781 L 168.691406 -2.59375 Z M 185.160156 -14.453125 " clip-rule="nonzero"/></clipPath><clipPath id="d23b940d5e"><path d="M 192 18 L 198 18 L 198 22 L 192 22 Z M 192 18 " clip-rule="nonzero"/></clipPath><clipPath id="8802739539"><path d="M 185.160156 -14.453125 L 211.464844 22.0625 L 194.996094 33.925781 L 168.691406 -2.59375 Z M 185.160156 -14.453125 " clip-rule="nonzero"/></clipPath><clipPath id="827132431d"><path d="M 185.160156 -14.453125 L 211.464844 22.0625 L 194.996094 33.925781 L 168.691406 -2.59375 Z M 185.160156 -14.453125 " clip-rule="nonzero"/></clipPath><clipPath id="e164f67ab7"><path d="M 183 5 L 188 5 L 188 14 L 183 14 Z M 183 5 " clip-rule="nonzero"/></clipPath><clipPath id="4fec26b421"><path d="M 185.160156 -14.453125 L 211.464844 22.0625 L 194.996094 33.925781 L 168.691406 -2.59375 Z M 185.160156 -14.453125 " clip-rule="nonzero"/></clipPath><clipPath id="4499d96e3b"><path d="M 185.160156 -14.453125 L 211.464844 22.0625 L 194.996094 33.925781 L 168.691406 -2.59375 Z M 185.160156 -14.453125 " clip-rule="nonzero"/></clipPath><clipPath id="71e2d91935"><path d="M 193 26 L 202 26 L 202 30 L 193 30 Z M 193 26 " clip-rule="nonzero"/></clipPath><clipPath id="ac90d20d36"><path d="M 185.160156 -14.453125 L 211.464844 22.0625 L 194.996094 33.925781 L 168.691406 -2.59375 Z M 185.160156 -14.453125 " clip-rule="nonzero"/></clipPath><clipPath id="0f28165655"><path d="M 185.160156 -14.453125 L 211.464844 22.0625 L 194.996094 33.925781 L 168.691406 -2.59375 Z M 185.160156 -14.453125 " clip-rule="nonzero"/></clipPath><clipPath id="4e66fb0cfb"><path d="M 175 0 L 180 0 L 180 12 L 175 12 Z M 175 0 " clip-rule="nonzero"/></clipPath><clipPath id="897aa22429"><path d="M 185.160156 -14.453125 L 211.464844 22.0625 L 194.996094 33.925781 L 168.691406 -2.59375 Z M 185.160156 -14.453125 " clip-rule="nonzero"/></clipPath><clipPath id="6a938cbfd5"><path d="M 185.160156 -14.453125 L 211.464844 22.0625 L 194.996094 33.925781 L 168.691406 -2.59375 Z M 185.160156 -14.453125 " clip-rule="nonzero"/></clipPath><clipPath id="e32984f873"><path d="M 122 61.785156 L 127 61.785156 L 127 67 L 122 67 Z M 122 61.785156 " clip-rule="nonzero"/></clipPath><clipPath id="5f2895e3bf"><path d="M 87 61.785156 L 92 61.785156 L 92 67 L 87 67 Z M 87 61.785156 " clip-rule="nonzero"/></clipPath><clipPath id="9072cff751"><path d="M 139 61.785156 L 144 61.785156 L 144 67 L 139 67 Z M 139 61.785156 " clip-rule="nonzero"/></clipPath><clipPath id="2aa2ae5ef5"><path d="M 156 61.785156 L 161 61.785156 L 161 67 L 156 67 Z M 156 61.785156 " clip-rule="nonzero"/></clipPath><clipPath id="e8413f0a7b"><path d="M 70 61.785156 L 75 61.785156 L 75 67 L 70 67 Z M 70 61.785156 " clip-rule="nonzero"/></clipPath><clipPath id="2439a07d29"><path d="M 104 61.785156 L 109 61.785156 L 109 67 L 104 67 Z M 104 61.785156 " clip-rule="nonzero"/></clipPath></defs><g fill="#df2935" fill-opacity="1"><g transform="translate(44.771277, 58.80839)"><g><path d="M 8.140625 -36.65625 L 4.890625 -36.65625 L 4.890625 -21.984375 L 8.140625 -21.984375 L 8.140625 -19.546875 L 4.890625 -19.546875 L 4.890625 -2.4375 L 8.140625 -2.4375 L 8.140625 0 L 1.625 0 L 1.625 -39.09375 L 8.140625 -39.09375 Z M 8.140625 -36.65625 "/></g></g></g><g fill="#df2935" fill-opacity="1"><g transform="translate(56.491804, 58.80839)"><g><path d="M 8.140625 -35.890625 C 8.140625 -36.210938 7.988281 -36.414062 7.6875 -36.5 C 7.394531 -36.601562 6.460938 -36.65625 4.890625 -36.65625 L 4.890625 -2.4375 C 6.460938 -2.4375 7.394531 -2.488281 7.6875 -2.59375 C 7.988281 -2.695312 8.140625 -2.910156 8.140625 -3.234375 Z M 11.40625 -3.4375 C 11.40625 -2.570312 11.222656 -1.90625 10.859375 -1.4375 C 10.492188 -0.96875 9.953125 -0.625 9.234375 -0.40625 C 8.898438 -0.300781 8.484375 -0.21875 7.984375 -0.15625 C 7.492188 -0.101562 6.816406 -0.0625 5.953125 -0.03125 C 5.085938 -0.0078125 4.328125 0 3.671875 0 L 1.625 0 L 1.625 -39.09375 C 2.320312 -39.09375 3.019531 -39.085938 3.71875 -39.078125 C 4.425781 -39.066406 5.144531 -39.054688 5.875 -39.046875 C 7.375 -39.003906 8.476562 -38.894531 9.1875 -38.71875 C 9.914062 -38.507812 10.46875 -38.179688 10.84375 -37.734375 C 11.21875 -37.285156 11.40625 -36.644531 11.40625 -35.8125 Z M 11.40625 -3.4375 "/></g></g></g><g fill="#df2935" fill-opacity="1"><g transform="translate(72.284037, 58.80839)"><g><path d="M 7.328125 -39.09375 L 10.59375 -39.09375 L 10.59375 -3.671875 C 10.59375 -2.953125 10.460938 -2.332031 10.203125 -1.8125 C 9.953125 -1.300781 9.613281 -0.878906 9.1875 -0.546875 C 8.757812 -0.210938 8.28125 0.0234375 7.75 0.171875 C 7.21875 0.328125 6.671875 0.40625 6.109375 0.40625 C 5.546875 0.40625 5 0.328125 4.46875 0.171875 C 3.9375 0.0234375 3.457031 -0.210938 3.03125 -0.546875 C 2.601562 -0.878906 2.257812 -1.300781 2 -1.8125 C 1.75 -2.332031 1.625 -2.953125 1.625 -3.671875 L 1.625 -39.09375 L 4.890625 -39.09375 L 4.890625 -3.671875 C 4.890625 -3.054688 5.015625 -2.628906 5.265625 -2.390625 C 5.523438 -2.148438 5.804688 -2.03125 6.109375 -2.03125 C 6.410156 -2.03125 6.6875 -2.148438 6.9375 -2.390625 C 7.195312 -2.628906 7.328125 -3.054688 7.328125 -3.671875 Z M 7.328125 -39.09375 "/></g></g></g><g fill="#df2935" fill-opacity="1"><g transform="translate(87.265238, 58.80839)"><g><path d="M 4.890625 -32.578125 L 5.3125 -26.0625 L 5.703125 -32.578125 L 6.515625 -43.984375 L 9.78125 -43.984375 L 7.328125 -21.984375 L 9.78125 0 L 6.515625 0 L 5.703125 -11.40625 L 5.296875 -17.921875 L 4.890625 -11.40625 L 4.078125 0 L 0.8125 0 L 3.265625 -21.984375 L 0.8125 -43.984375 L 4.078125 -43.984375 Z M 4.890625 -32.578125 "/></g></g></g><g fill="#df2935" fill-opacity="1"><g transform="translate(100.614448, 58.80839)"><g><path d="M 11.40625 -22.8125 L 8.140625 -22.8125 L 8.140625 -35.421875 C 8.140625 -36.003906 7.992188 -36.414062 7.703125 -36.65625 C 7.421875 -36.90625 7.09375 -37.03125 6.71875 -37.03125 C 6.5 -37.03125 6.28125 -36.988281 6.0625 -36.90625 C 5.851562 -36.832031 5.660156 -36.722656 5.484375 -36.578125 C 5.304688 -36.441406 5.160156 -36.273438 5.046875 -36.078125 C 4.941406 -35.878906 4.890625 -35.660156 4.890625 -35.421875 L 4.890625 -3.671875 C 4.890625 -3.429688 4.941406 -3.207031 5.046875 -3 C 5.160156 -2.800781 5.304688 -2.628906 5.484375 -2.484375 C 5.660156 -2.335938 5.851562 -2.222656 6.0625 -2.140625 C 6.28125 -2.066406 6.5 -2.03125 6.71875 -2.03125 C 7.09375 -2.03125 7.421875 -2.15625 7.703125 -2.40625 C 7.992188 -2.664062 8.140625 -3.085938 8.140625 -3.671875 L 8.140625 -17.921875 L 11.40625 -17.921875 L 11.40625 -3.671875 C 11.40625 -2.984375 11.257812 -2.378906 10.96875 -1.859375 C 10.675781 -1.347656 10.300781 -0.914062 9.84375 -0.5625 C 9.382812 -0.21875 8.859375 0.0390625 8.265625 0.21875 C 7.671875 0.394531 7.070312 0.484375 6.46875 0.484375 C 5.851562 0.484375 5.253906 0.394531 4.671875 0.21875 C 4.097656 0.0507812 3.582031 -0.203125 3.125 -0.546875 C 2.664062 -0.890625 2.300781 -1.320312 2.03125 -1.84375 C 1.757812 -2.363281 1.625 -2.972656 1.625 -3.671875 L 1.625 -35.421875 C 1.625 -36.109375 1.765625 -36.710938 2.046875 -37.234375 C 2.328125 -37.765625 2.695312 -38.195312 3.15625 -38.53125 C 3.613281 -38.875 4.140625 -39.132812 4.734375 -39.3125 C 5.328125 -39.488281 5.929688 -39.578125 6.546875 -39.578125 C 7.148438 -39.578125 7.738281 -39.488281 8.3125 -39.3125 C 8.894531 -39.144531 9.414062 -38.890625 9.875 -38.546875 C 10.332031 -38.203125 10.703125 -37.769531 10.984375 -37.25 C 11.265625 -36.726562 11.40625 -36.117188 11.40625 -35.421875 Z M 11.40625 -22.8125 "/></g></g></g><g fill="#df2935" fill-opacity="1"><g transform="translate(116.40668, 58.80839)"><g><path d="M 8.140625 -39.09375 L 11.40625 -39.09375 L 11.40625 0 L 8.140625 0 L 8.140625 -18.984375 L 4.890625 -18.984375 L 4.890625 0 L 1.625 0 L 1.625 -39.09375 L 4.890625 -39.09375 L 4.890625 -21.53125 L 8.140625 -21.53125 Z M 8.140625 -39.09375 "/></g></g></g><g fill="#df2935" fill-opacity="1"><g transform="translate(132.198911, 58.80839)"><g><path d="M 10.59375 0 L 7.328125 0 L 6.828125 -8.453125 L 4.5625 -8.453125 L 4.078125 0 L 0.8125 0 L 4.078125 -39.09375 L 7.328125 -39.09375 Z M 6.640625 -11.09375 L 5.703125 -30.953125 L 4.734375 -11.09375 Z M 6.640625 -11.09375 "/></g></g></g><g fill="#df2935" fill-opacity="1"><g transform="translate(146.362463, 58.80839)"><g><path d="M 11.40625 0 L 8.953125 0 L 4.484375 -22.8125 L 4.484375 0 L 1.625 0 L 1.625 -39.09375 L 4.078125 -39.09375 L 8.578125 -15.46875 L 8.578125 -39.09375 L 11.40625 -39.09375 Z M 11.40625 0 "/></g></g></g><g fill="#df2935" fill-opacity="1"><g transform="translate(162.154698, 58.80839)"><g><path d="M 4.890625 -3.671875 C 4.890625 -3.054688 5.015625 -2.628906 5.265625 -2.390625 C 5.523438 -2.148438 5.804688 -2.03125 6.109375 -2.03125 C 6.410156 -2.03125 6.6875 -2.148438 6.9375 -2.390625 C 7.195312 -2.628906 7.328125 -3.054688 7.328125 -3.671875 L 7.328125 -17.109375 L 6.515625 -17.109375 L 6.515625 -19.546875 L 10.59375 -19.546875 L 10.59375 -3.671875 C 10.59375 -2.953125 10.460938 -2.332031 10.203125 -1.8125 C 9.953125 -1.300781 9.613281 -0.878906 9.1875 -0.546875 C 8.757812 -0.210938 8.28125 0.0234375 7.75 0.171875 C 7.21875 0.328125 6.671875 0.40625 6.109375 0.40625 C 5.546875 0.40625 5 0.328125 4.46875 0.171875 C 3.9375 0.0234375 3.457031 -0.210938 3.03125 -0.546875 C 2.601562 -0.878906 2.257812 -1.300781 2 -1.8125 C 1.75 -2.332031 1.625 -2.953125 1.625 -3.671875 L 1.625 -35.84375 C 1.625 -36.550781 1.75 -37.160156 2 -37.671875 C 2.257812 -38.191406 2.601562 -38.617188 3.03125 -38.953125 C 3.457031 -39.285156 3.9375 -39.523438 4.46875 -39.671875 C 5 -39.828125 5.546875 -39.90625 6.109375 -39.90625 C 6.671875 -39.90625 7.21875 -39.828125 7.75 -39.671875 C 8.28125 -39.523438 8.757812 -39.285156 9.1875 -38.953125 C 9.613281 -38.617188 9.953125 -38.195312 10.203125 -37.6875 C 10.460938 -37.1875 10.59375 -36.578125 10.59375 -35.859375 L 10.59375 -22.8125 L 7.328125 -22.8125 L 7.328125 -35.859375 C 7.328125 -36.472656 7.195312 -36.894531 6.9375 -37.125 C 6.6875 -37.351562 6.410156 -37.46875 6.109375 -37.46875 C 5.804688 -37.46875 5.523438 -37.351562 5.265625 -37.125 C 5.015625 -36.894531 4.890625 -36.472656 4.890625 -35.859375 Z M 4.890625 -3.671875 "/></g></g></g><g fill="#df2935" fill-opacity="1"><g transform="translate(177.132591, 58.80839)"><g><path d="M 8.140625 -36.65625 L 4.890625 -36.65625 L 4.890625 -21.984375 L 8.140625 -21.984375 L 8.140625 -19.546875 L 4.890625 -19.546875 L 4.890625 -2.4375 L 8.140625 -2.4375 L 8.140625 0 L 1.625 0 L 1.625 -39.09375 L 8.140625 -39.09375 Z M 8.140625 -36.65625 "/></g></g></g><g clip-path="url(#4fa25a7ac7)"><g clip-path="url(#65e8b11019)"><g clip-path="url(#cd862215cf)"><path fill="#df2935" d="M 199.574219 5.855469 C 199.042969 5.535156 198.746094 5.683594 197.933594 6.632812 C 197.148438 7.5625 195.800781 9.042969 192.9375 12.070312 C 190.609375 14.535156 189.039062 16.332031 188.816406 16.765625 C 188.648438 17.125 188.90625 17.664062 189.25 17.632812 C 189.347656 17.625 190.363281 16.808594 191.507812 15.8125 C 192.640625 14.804688 194.785156 12.917969 196.277344 11.605469 C 197.769531 10.296875 199.355469 8.964844 199.789062 8.648438 C 200.914062 7.839844 201.011719 7.554688 200.410156 6.75 C 200.144531 6.382812 199.777344 5.988281 199.574219 5.855469 Z M 199.574219 5.855469 " fill-opacity="1" fill-rule="evenodd"/></g></g></g><g clip-path="url(#d23b940d5e)"><g clip-path="url(#8802739539)"><g clip-path="url(#827132431d)"><path fill="#df2935" d="M 197.179688 18.671875 C 196.996094 18.65625 195.867188 19.167969 194.671875 19.792969 C 192.925781 20.691406 192.449219 21.011719 192.386719 21.246094 C 192.273438 21.652344 192.464844 21.917969 192.855469 21.957031 C 193.238281 21.984375 196.839844 20.605469 197.347656 20.242188 C 197.992188 19.773438 197.878906 18.726562 197.179688 18.671875 Z M 197.179688 18.671875 " fill-opacity="1" fill-rule="evenodd"/></g></g></g><g clip-path="url(#e164f67ab7)"><g clip-path="url(#4fec26b421)"><g clip-path="url(#4499d96e3b)"><path fill="#df2935" d="M 187.109375 5.964844 C 186.660156 5.882812 186.109375 6.6875 185.089844 8.894531 C 183.703125 11.921875 183.414062 12.855469 183.765625 13.226562 C 184.253906 13.726562 184.730469 13.171875 185.808594 10.8125 C 187.34375 7.421875 187.671875 6.542969 187.460938 6.246094 C 187.359375 6.105469 187.195312 5.96875 187.109375 5.964844 Z M 187.109375 5.964844 " fill-opacity="1" fill-rule="evenodd"/></g></g></g><g clip-path="url(#71e2d91935)"><g clip-path="url(#ac90d20d36)"><g clip-path="url(#0f28165655)"><path fill="#df2935" d="M 198.910156 26.445312 C 196.378906 26.257812 194.128906 26.363281 193.84375 26.652344 C 193.421875 27.105469 193.710938 27.476562 194.738281 27.804688 C 198.917969 29.128906 200.96875 29.601562 201.332031 29.335938 C 201.628906 29.125 201.722656 27.238281 201.460938 26.871094 C 201.347656 26.71875 200.332031 26.550781 198.910156 26.445312 Z M 198.910156 26.445312 " fill-opacity="1" fill-rule="evenodd"/></g></g></g><g clip-path="url(#4e66fb0cfb)"><g clip-path="url(#897aa22429)"><g clip-path="url(#6a938cbfd5)"><path fill="#df2935" d="M 177.875 0.5625 C 177.15625 0.398438 175.355469 1.222656 175.109375 1.828125 C 174.957031 2.238281 177.371094 8.558594 178.398438 10.402344 C 178.75 11.066406 178.929688 11.257812 179.199219 11.277344 C 179.382812 11.292969 179.59375 11.230469 179.65625 11.140625 C 179.734375 11.042969 179.570312 9.921875 179.332031 8.640625 C 178.894531 6.433594 178.625 4.128906 178.597656 2.222656 C 178.566406 1.050781 178.414062 0.6875 177.875 0.5625 Z M 177.875 0.5625 " fill-opacity="1" fill-rule="evenodd"/></g></g></g><g fill="#df2935" fill-opacity="1"><g transform="translate(106.189488, 14.663089)"><g><path d="M 0.234375 -2.96875 C 0.234375 -2.96875 0.351562 -2.96875 0.59375 -2.96875 L 0.921875 -2.96875 L 0.921875 -2.890625 C 0.921875 -2.878906 0.921875 -2.863281 0.921875 -2.84375 C 0.921875 -2.832031 0.921875 -2.8125 0.921875 -2.78125 C 0.921875 -2.601562 0.914062 -2.429688 0.90625 -2.265625 C 0.90625 -2.085938 0.898438 -1.910156 0.890625 -1.734375 C 0.890625 -1.566406 0.890625 -1.394531 0.890625 -1.21875 C 0.878906 -1.039062 0.875 -0.894531 0.875 -0.78125 C 0.875 -0.675781 0.875 -0.617188 0.875 -0.609375 C 0.875 -0.609375 0.988281 -0.613281 1.21875 -0.625 C 1.875 -0.644531 2.207031 -0.65625 2.21875 -0.65625 C 2.226562 -0.65625 2.234375 -0.628906 2.234375 -0.578125 C 2.234375 -0.523438 2.234375 -0.453125 2.234375 -0.359375 L 2.234375 0.015625 L 2.171875 0.015625 C 2.148438 0.00390625 2.101562 0 2.03125 0 C 1.957031 0 1.851562 -0.00390625 1.71875 -0.015625 C 1.675781 -0.015625 1.628906 -0.015625 1.578125 -0.015625 C 1.523438 -0.0234375 1.460938 -0.03125 1.390625 -0.03125 C 1.242188 -0.0390625 1.09375 -0.046875 0.9375 -0.046875 C 0.882812 -0.046875 0.859375 -0.046875 0.859375 -0.046875 C 0.859375 -0.0351562 0.769531 -0.03125 0.59375 -0.03125 L 0.34375 -0.03125 L 0.328125 -0.171875 C 0.296875 -1.015625 0.269531 -1.664062 0.25 -2.125 C 0.238281 -2.59375 0.234375 -2.875 0.234375 -2.96875 Z M 0.234375 -2.96875 "/></g></g></g><g fill="#df2935" fill-opacity="1"><g transform="translate(109.408223, 14.663089)"><g><path d="M 0.25 -2.9375 C 0.25 -2.9375 0.363281 -2.9375 0.59375 -2.9375 L 0.9375 -2.9375 L 0.9375 -2.828125 C 0.9375 -2.816406 0.9375 -2.800781 0.9375 -2.78125 C 0.9375 -2.769531 0.9375 -2.75 0.9375 -2.71875 C 0.9375 -2.695312 0.9375 -2.664062 0.9375 -2.625 C 0.9375 -2.582031 0.929688 -2.539062 0.921875 -2.5 C 0.921875 -2.457031 0.921875 -2.414062 0.921875 -2.375 C 0.921875 -2.332031 0.921875 -2.289062 0.921875 -2.25 C 0.910156 -1.957031 0.90625 -1.804688 0.90625 -1.796875 C 0.914062 -1.785156 1.175781 -1.773438 1.6875 -1.765625 C 1.71875 -1.753906 1.765625 -1.75 1.828125 -1.75 C 1.890625 -1.75 1.972656 -1.742188 2.078125 -1.734375 L 2.1875 -1.734375 L 2.1875 -1.25 L 2.125 -1.25 C 2.101562 -1.238281 2.0625 -1.234375 2 -1.234375 C 1.9375 -1.234375 1.847656 -1.234375 1.734375 -1.234375 C 1.453125 -1.222656 1.242188 -1.210938 1.109375 -1.203125 C 0.972656 -1.191406 0.90625 -1.1875 0.90625 -1.1875 C 0.894531 -1.1875 0.890625 -1.113281 0.890625 -0.96875 C 0.890625 -0.894531 0.882812 -0.828125 0.875 -0.765625 C 0.875 -0.710938 0.875 -0.671875 0.875 -0.640625 L 0.875 -0.5625 L 1 -0.578125 C 1.019531 -0.578125 1.039062 -0.578125 1.0625 -0.578125 C 1.082031 -0.578125 1.109375 -0.578125 1.140625 -0.578125 C 1.171875 -0.585938 1.195312 -0.59375 1.21875 -0.59375 C 1.25 -0.59375 1.269531 -0.59375 1.28125 -0.59375 C 1.425781 -0.59375 1.546875 -0.597656 1.640625 -0.609375 C 1.785156 -0.609375 1.90625 -0.609375 2 -0.609375 C 2.101562 -0.617188 2.179688 -0.628906 2.234375 -0.640625 L 2.3125 -0.640625 L 2.3125 0.015625 L 2.203125 0.015625 C 2.191406 0.015625 2.175781 0.015625 2.15625 0.015625 C 2.144531 0.015625 2.128906 0.015625 2.109375 0.015625 C 2.085938 0.015625 2.0625 0.015625 2.03125 0.015625 C 2 0.015625 1.960938 0.0078125 1.921875 0 C 1.890625 0 1.851562 0 1.8125 0 C 1.78125 0 1.757812 0 1.75 0 C 1.644531 -0.0078125 1.546875 -0.015625 1.453125 -0.015625 C 1.359375 -0.015625 1.265625 -0.015625 1.171875 -0.015625 C 1.097656 -0.0234375 1.035156 -0.03125 0.984375 -0.03125 C 0.941406 -0.03125 0.914062 -0.03125 0.90625 -0.03125 C 0.875 -0.03125 0.859375 -0.0234375 0.859375 -0.015625 C 0.859375 -0.00390625 0.773438 0 0.609375 0 C 0.429688 0 0.34375 -0.00390625 0.34375 -0.015625 C 0.34375 -0.0976562 0.332031 -0.34375 0.3125 -0.75 C 0.300781 -1.164062 0.28125 -1.753906 0.25 -2.515625 C 0.238281 -2.785156 0.238281 -2.925781 0.25 -2.9375 Z M 1.90625 -2.953125 C 2 -2.960938 2.070312 -2.96875 2.125 -2.96875 C 2.175781 -2.96875 2.207031 -2.96875 2.21875 -2.96875 L 2.265625 -2.96875 L 2.265625 -2.34375 L 2.234375 -2.34375 C 2.210938 -2.34375 2.148438 -2.34375 2.046875 -2.34375 C 1.941406 -2.351562 1.804688 -2.363281 1.640625 -2.375 C 1.460938 -2.382812 1.328125 -2.390625 1.234375 -2.390625 C 1.140625 -2.390625 1.078125 -2.390625 1.046875 -2.390625 L 1.015625 -2.40625 L 1.015625 -2.890625 L 1.078125 -2.890625 C 1.085938 -2.890625 1.113281 -2.890625 1.15625 -2.890625 C 1.207031 -2.898438 1.28125 -2.90625 1.375 -2.90625 C 1.445312 -2.914062 1.53125 -2.921875 1.625 -2.921875 C 1.71875 -2.929688 1.8125 -2.941406 1.90625 -2.953125 Z M 1.90625 -2.953125 "/></g></g></g><g fill="#df2935" fill-opacity="1"><g transform="translate(112.758598, 14.663089)"><g><path d="M 1.609375 -2.28125 L 1.5625 -2.4375 C 1.5625 -2.445312 1.554688 -2.460938 1.546875 -2.484375 C 1.535156 -2.484375 1.523438 -2.445312 1.515625 -2.375 C 1.503906 -2.34375 1.488281 -2.296875 1.46875 -2.234375 C 1.445312 -2.179688 1.414062 -2.101562 1.375 -2 C 1.363281 -1.976562 1.351562 -1.945312 1.34375 -1.90625 C 1.332031 -1.875 1.320312 -1.828125 1.3125 -1.765625 C 1.289062 -1.710938 1.269531 -1.671875 1.25 -1.640625 C 1.238281 -1.609375 1.226562 -1.582031 1.21875 -1.5625 L 1.171875 -1.390625 L 1.234375 -1.375 C 1.253906 -1.375 1.289062 -1.375 1.34375 -1.375 C 1.40625 -1.375 1.484375 -1.367188 1.578125 -1.359375 C 1.679688 -1.347656 1.753906 -1.34375 1.796875 -1.34375 C 1.847656 -1.34375 1.875 -1.34375 1.875 -1.34375 C 1.882812 -1.34375 1.882812 -1.351562 1.875 -1.375 C 1.863281 -1.40625 1.851562 -1.445312 1.84375 -1.5 C 1.832031 -1.539062 1.816406 -1.59375 1.796875 -1.65625 C 1.773438 -1.71875 1.753906 -1.785156 1.734375 -1.859375 C 1.734375 -1.867188 1.722656 -1.90625 1.703125 -1.96875 C 1.679688 -2.039062 1.648438 -2.144531 1.609375 -2.28125 Z M 1.25 -2.96875 C 1.332031 -2.96875 1.414062 -2.96875 1.5 -2.96875 C 1.582031 -2.96875 1.65625 -2.96875 1.71875 -2.96875 L 1.96875 -2.96875 L 1.984375 -2.90625 C 1.992188 -2.882812 2.019531 -2.800781 2.0625 -2.65625 C 2.113281 -2.519531 2.1875 -2.320312 2.28125 -2.0625 C 2.300781 -2 2.320312 -1.941406 2.34375 -1.890625 C 2.363281 -1.835938 2.382812 -1.78125 2.40625 -1.71875 C 2.414062 -1.707031 2.425781 -1.6875 2.4375 -1.65625 C 2.445312 -1.632812 2.457031 -1.597656 2.46875 -1.546875 C 2.476562 -1.503906 2.488281 -1.46875 2.5 -1.4375 C 2.519531 -1.40625 2.53125 -1.378906 2.53125 -1.359375 C 2.539062 -1.347656 2.5625 -1.296875 2.59375 -1.203125 C 2.625 -1.109375 2.671875 -0.972656 2.734375 -0.796875 C 2.890625 -0.367188 2.96875 -0.148438 2.96875 -0.140625 C 2.96875 -0.140625 2.851562 -0.0976562 2.625 -0.015625 C 2.507812 0.015625 2.429688 0.0351562 2.390625 0.046875 C 2.359375 0.0664062 2.34375 0.078125 2.34375 0.078125 C 2.332031 0.078125 2.328125 0.078125 2.328125 0.078125 C 2.328125 0.078125 2.285156 -0.0664062 2.203125 -0.359375 C 2.109375 -0.660156 2.0625 -0.8125 2.0625 -0.8125 C 2.0625 -0.8125 2.019531 -0.8125 1.9375 -0.8125 C 1.851562 -0.8125 1.75 -0.804688 1.625 -0.796875 C 1.507812 -0.796875 1.40625 -0.789062 1.3125 -0.78125 C 1.226562 -0.78125 1.160156 -0.78125 1.109375 -0.78125 L 1 -0.765625 L 0.984375 -0.734375 C 0.960938 -0.679688 0.929688 -0.597656 0.890625 -0.484375 C 0.859375 -0.367188 0.8125 -0.222656 0.75 -0.046875 C 0.726562 0.0234375 0.710938 0.0664062 0.703125 0.078125 C 0.691406 0.0664062 0.671875 0.0625 0.640625 0.0625 C 0.617188 0.0507812 0.59375 0.0390625 0.5625 0.03125 C 0.53125 0.0195312 0.488281 0.0078125 0.4375 0 C 0.25 -0.0507812 0.148438 -0.0820312 0.140625 -0.09375 C 0.140625 -0.09375 0.234375 -0.390625 0.421875 -0.984375 C 0.515625 -1.273438 0.609375 -1.570312 0.703125 -1.875 C 0.796875 -2.1875 0.890625 -2.515625 0.984375 -2.859375 L 1.03125 -2.96875 Z M 1.25 -2.96875 "/></g></g></g><g fill="#df2935" fill-opacity="1"><g transform="translate(116.703461, 14.663089)"><g><path d="M 0.234375 -2.96875 C 0.242188 -2.96875 0.367188 -2.96875 0.609375 -2.96875 L 0.96875 -2.96875 L 0.96875 -2.890625 C 0.96875 -2.847656 0.960938 -2.675781 0.953125 -2.375 C 0.941406 -2.0625 0.9375 -1.882812 0.9375 -1.84375 L 0.9375 -1.75 L 1.359375 -1.75 C 1.617188 -1.757812 1.753906 -1.765625 1.765625 -1.765625 C 1.765625 -1.773438 1.765625 -1.890625 1.765625 -2.109375 C 1.753906 -2.328125 1.75 -2.4375 1.75 -2.4375 C 1.738281 -2.4375 1.628906 -2.4375 1.421875 -2.4375 C 1.210938 -2.425781 1.097656 -2.421875 1.078125 -2.421875 L 1.03125 -2.421875 L 1.03125 -2.953125 L 1.0625 -2.953125 C 1.070312 -2.953125 1.148438 -2.945312 1.296875 -2.9375 C 1.453125 -2.9375 1.671875 -2.9375 1.953125 -2.9375 C 2.234375 -2.9375 2.375 -2.929688 2.375 -2.921875 C 2.375 -2.921875 2.375 -2.867188 2.375 -2.765625 C 2.363281 -2.703125 2.351562 -2.601562 2.34375 -2.46875 C 2.332031 -2.34375 2.320312 -2.175781 2.3125 -1.96875 C 2.289062 -1.757812 2.273438 -1.597656 2.265625 -1.484375 C 2.265625 -1.378906 2.265625 -1.316406 2.265625 -1.296875 L 2.25 -1.25 L 2.140625 -1.265625 C 2.066406 -1.265625 2.03125 -1.257812 2.03125 -1.25 C 2.03125 -1.25 2.039062 -1.21875 2.0625 -1.15625 C 2.09375 -1.09375 2.140625 -1.003906 2.203125 -0.890625 C 2.390625 -0.484375 2.484375 -0.273438 2.484375 -0.265625 C 2.484375 -0.265625 2.421875 -0.238281 2.296875 -0.1875 C 2.203125 -0.144531 2.128906 -0.113281 2.078125 -0.09375 C 2.023438 -0.0703125 1.992188 -0.0625 1.984375 -0.0625 C 1.941406 -0.0390625 1.910156 -0.0234375 1.890625 -0.015625 C 1.878906 -0.015625 1.867188 -0.015625 1.859375 -0.015625 C 1.859375 -0.015625 1.789062 -0.222656 1.65625 -0.640625 C 1.53125 -1.054688 1.457031 -1.265625 1.4375 -1.265625 C 1.4375 -1.265625 1.351562 -1.269531 1.1875 -1.28125 L 0.921875 -1.28125 L 0.921875 -1.15625 C 0.910156 -0.957031 0.898438 -0.769531 0.890625 -0.59375 C 0.890625 -0.414062 0.890625 -0.242188 0.890625 -0.078125 L 0.890625 0 L 0.421875 0 C 0.398438 0 0.378906 0 0.359375 0 C 0.359375 -0.0078125 0.351562 -0.0859375 0.34375 -0.234375 C 0.332031 -0.441406 0.328125 -0.675781 0.328125 -0.9375 C 0.328125 -0.945312 0.320312 -0.984375 0.3125 -1.046875 C 0.3125 -1.117188 0.3125 -1.21875 0.3125 -1.34375 C 0.300781 -1.46875 0.289062 -1.570312 0.28125 -1.65625 C 0.28125 -1.738281 0.28125 -1.804688 0.28125 -1.859375 C 0.28125 -1.878906 0.28125 -1.910156 0.28125 -1.953125 C 0.28125 -1.992188 0.28125 -2.039062 0.28125 -2.09375 C 0.269531 -2.21875 0.257812 -2.320312 0.25 -2.40625 C 0.25 -2.488281 0.25 -2.5625 0.25 -2.625 C 0.238281 -2.851562 0.234375 -2.96875 0.234375 -2.96875 Z M 0.234375 -2.96875 "/></g></g></g><g fill="#df2935" fill-opacity="1"><g transform="translate(120.159995, 14.663089)"><g><path d="M 0.25 -2.90625 L 0.234375 -2.96875 L 1.03125 -2.96875 L 1.078125 -2.890625 C 1.109375 -2.828125 1.15625 -2.726562 1.21875 -2.59375 C 1.28125 -2.457031 1.359375 -2.289062 1.453125 -2.09375 C 1.503906 -2 1.546875 -1.910156 1.578125 -1.828125 C 1.609375 -1.753906 1.640625 -1.6875 1.671875 -1.625 C 1.703125 -1.550781 1.722656 -1.5 1.734375 -1.46875 C 1.753906 -1.4375 1.765625 -1.414062 1.765625 -1.40625 C 1.765625 -1.40625 1.769531 -1.40625 1.78125 -1.40625 C 1.78125 -1.40625 1.78125 -1.4375 1.78125 -1.5 C 1.78125 -1.507812 1.78125 -1.570312 1.78125 -1.6875 C 1.78125 -1.800781 1.773438 -1.96875 1.765625 -2.1875 C 1.753906 -2.601562 1.742188 -2.832031 1.734375 -2.875 L 1.734375 -2.96875 L 2.53125 -2.96875 L 2.53125 -2.953125 C 2.53125 -2.953125 2.523438 -2.9375 2.515625 -2.90625 C 2.515625 -2.875 2.515625 -2.828125 2.515625 -2.765625 C 2.503906 -2.503906 2.488281 -2.21875 2.46875 -1.90625 C 2.457031 -1.59375 2.445312 -1.25 2.4375 -0.875 C 2.414062 -0.601562 2.398438 -0.394531 2.390625 -0.25 C 2.390625 -0.113281 2.390625 -0.0390625 2.390625 -0.03125 L 2.390625 0 L 1.796875 0 L 1.796875 -0.03125 C 1.753906 -0.164062 1.71875 -0.28125 1.6875 -0.375 C 1.65625 -0.476562 1.625 -0.5625 1.59375 -0.625 C 1.570312 -0.6875 1.535156 -0.769531 1.484375 -0.875 C 1.441406 -0.976562 1.382812 -1.101562 1.3125 -1.25 C 1.25 -1.382812 1.191406 -1.503906 1.140625 -1.609375 C 1.097656 -1.722656 1.0625 -1.820312 1.03125 -1.90625 C 0.976562 -2.007812 0.953125 -2.0625 0.953125 -2.0625 C 0.941406 -2.0625 0.9375 -2.03125 0.9375 -1.96875 C 0.9375 -1.9375 0.9375 -1.894531 0.9375 -1.84375 C 0.9375 -1.800781 0.9375 -1.742188 0.9375 -1.671875 C 0.914062 -1.203125 0.898438 -0.832031 0.890625 -0.5625 C 0.878906 -0.289062 0.875 -0.117188 0.875 -0.046875 L 0.875 0 L 0.359375 0 L 0.359375 -0.078125 C 0.347656 -0.117188 0.34375 -0.175781 0.34375 -0.25 C 0.34375 -0.320312 0.335938 -0.410156 0.328125 -0.515625 C 0.328125 -0.535156 0.328125 -0.578125 0.328125 -0.640625 C 0.328125 -0.703125 0.320312 -0.78125 0.3125 -0.875 C 0.3125 -1.050781 0.3125 -1.1875 0.3125 -1.28125 C 0.300781 -1.488281 0.289062 -1.707031 0.28125 -1.9375 C 0.269531 -2.175781 0.257812 -2.425781 0.25 -2.6875 C 0.25 -2.738281 0.25 -2.78125 0.25 -2.8125 C 0.25 -2.84375 0.25 -2.875 0.25 -2.90625 Z M 0.25 -2.90625 "/></g></g></g><g fill="#df2935" fill-opacity="1"><g transform="translate(123.786382, 14.663089)"><g/></g></g><g fill="#df2935" fill-opacity="1"><g transform="translate(125.909555, 14.663089)"><g><path d="M 0.359375 -0.640625 L 0.34375 -0.671875 L 0.71875 -0.671875 C 0.96875 -0.671875 1.09375 -0.664062 1.09375 -0.65625 C 1.09375 -0.644531 1.09375 -0.625 1.09375 -0.59375 C 1.082031 -0.5625 1.070312 -0.523438 1.0625 -0.484375 C 1.0625 -0.453125 1.054688 -0.410156 1.046875 -0.359375 C 1.035156 -0.253906 1.023438 -0.171875 1.015625 -0.109375 C 1.015625 -0.0546875 1.007812 -0.03125 1 -0.03125 L 1 0 L 0.4375 0 L 0.4375 -0.09375 C 0.425781 -0.175781 0.410156 -0.265625 0.390625 -0.359375 C 0.378906 -0.453125 0.367188 -0.546875 0.359375 -0.640625 Z M 0.359375 -0.640625 "/></g></g></g><g fill="#df2935" fill-opacity="1"><g transform="translate(128.274772, 14.663089)"><g/></g></g><g fill="#df2935" fill-opacity="1"><g transform="translate(130.397946, 14.663089)"><g><path d="M 0.21875 -2.890625 L 0.84375 -2.890625 L 0.84375 -2.84375 C 0.832031 -2.832031 0.820312 -2.765625 0.8125 -2.640625 C 0.8125 -2.523438 0.800781 -2.359375 0.78125 -2.140625 C 0.769531 -1.972656 0.765625 -1.890625 0.765625 -1.890625 C 0.773438 -1.878906 0.832031 -1.867188 0.9375 -1.859375 C 0.957031 -1.847656 0.976562 -1.84375 1 -1.84375 C 1.03125 -1.84375 1.066406 -1.835938 1.109375 -1.828125 C 1.148438 -1.816406 1.1875 -1.804688 1.21875 -1.796875 C 1.25 -1.796875 1.269531 -1.796875 1.28125 -1.796875 C 1.476562 -1.765625 1.640625 -1.738281 1.765625 -1.71875 C 1.898438 -1.707031 2.003906 -1.695312 2.078125 -1.6875 L 2.1875 -1.6875 L 2.1875 -1.65625 C 2.1875 -1.65625 2.164062 -1.398438 2.125 -0.890625 C 2.101562 -0.628906 2.085938 -0.429688 2.078125 -0.296875 C 2.066406 -0.160156 2.054688 -0.0820312 2.046875 -0.0625 L 2.046875 -0.015625 L 1.765625 -0.015625 C 1.703125 -0.015625 1.648438 -0.015625 1.609375 -0.015625 C 1.566406 -0.015625 1.539062 -0.015625 1.53125 -0.015625 C 1.507812 -0.015625 1.5 -0.0195312 1.5 -0.03125 C 1.488281 -0.0390625 1.476562 -0.046875 1.46875 -0.046875 C 1.46875 -0.046875 1.441406 -0.046875 1.390625 -0.046875 C 1.328125 -0.046875 1.257812 -0.0390625 1.1875 -0.03125 C 1.113281 -0.03125 1.03125 -0.03125 0.9375 -0.03125 C 0.851562 -0.03125 0.765625 -0.0234375 0.671875 -0.015625 C 0.585938 -0.015625 0.5 -0.015625 0.40625 -0.015625 L 0.234375 -0.015625 L 0.234375 -0.671875 L 0.34375 -0.65625 C 0.445312 -0.65625 0.582031 -0.648438 0.75 -0.640625 C 0.914062 -0.640625 1.117188 -0.632812 1.359375 -0.625 L 1.515625 -0.625 L 1.515625 -0.796875 C 1.523438 -0.847656 1.53125 -0.894531 1.53125 -0.9375 C 1.53125 -0.988281 1.53125 -1.03125 1.53125 -1.0625 L 1.546875 -1.15625 L 1.390625 -1.1875 C 1.085938 -1.269531 0.84375 -1.332031 0.65625 -1.375 C 0.476562 -1.414062 0.359375 -1.445312 0.296875 -1.46875 L 0.21875 -1.5 Z M 1.9375 -2.984375 C 1.96875 -2.992188 2.023438 -3 2.109375 -3 L 2.125 -3 L 2.125 -2.34375 L 2.078125 -2.34375 C 2.054688 -2.351562 2.015625 -2.359375 1.953125 -2.359375 C 1.898438 -2.359375 1.820312 -2.363281 1.71875 -2.375 C 1.625 -2.375 1.535156 -2.375 1.453125 -2.375 C 1.367188 -2.375 1.289062 -2.378906 1.21875 -2.390625 C 1.144531 -2.390625 1.085938 -2.390625 1.046875 -2.390625 C 1.003906 -2.390625 0.972656 -2.390625 0.953125 -2.390625 L 0.890625 -2.390625 L 0.890625 -2.640625 C 0.890625 -2.804688 0.894531 -2.894531 0.90625 -2.90625 C 0.90625 -2.90625 0.9375 -2.90625 1 -2.90625 C 1.15625 -2.914062 1.3125 -2.925781 1.46875 -2.9375 C 1.625 -2.957031 1.78125 -2.972656 1.9375 -2.984375 Z M 1.9375 -2.984375 "/></g></g></g><g fill="#df2935" fill-opacity="1"><g transform="translate(133.642162, 14.663089)"><g><path d="M 0.25 -2.859375 L 0.234375 -2.96875 L 1 -2.96875 L 0.984375 -2.890625 C 0.984375 -2.859375 0.984375 -2.71875 0.984375 -2.46875 C 0.972656 -2.21875 0.96875 -2.066406 0.96875 -2.015625 L 0.953125 -1.890625 L 1.03125 -1.90625 C 1.09375 -1.90625 1.21875 -1.910156 1.40625 -1.921875 C 1.5 -1.921875 1.578125 -1.921875 1.640625 -1.921875 C 1.710938 -1.929688 1.765625 -1.9375 1.796875 -1.9375 L 1.875 -1.9375 L 1.875 -1.984375 C 1.875 -1.992188 1.875 -2 1.875 -2 C 1.875 -2.007812 1.875 -2.023438 1.875 -2.046875 C 1.863281 -2.085938 1.859375 -2.144531 1.859375 -2.21875 C 1.859375 -2.300781 1.859375 -2.375 1.859375 -2.4375 C 1.847656 -2.582031 1.84375 -2.691406 1.84375 -2.765625 C 1.84375 -2.847656 1.835938 -2.898438 1.828125 -2.921875 L 1.828125 -2.96875 L 2.59375 -2.96875 L 2.59375 -2.84375 C 2.582031 -2.757812 2.578125 -2.578125 2.578125 -2.296875 C 2.578125 -2.148438 2.570312 -2.015625 2.5625 -1.890625 C 2.5625 -1.765625 2.5625 -1.65625 2.5625 -1.5625 C 2.550781 -1.394531 2.539062 -1.238281 2.53125 -1.09375 C 2.53125 -0.945312 2.53125 -0.816406 2.53125 -0.703125 C 2.53125 -0.523438 2.523438 -0.382812 2.515625 -0.28125 C 2.515625 -0.1875 2.515625 -0.117188 2.515625 -0.078125 L 2.515625 0 L 1.96875 0 L 1.96875 -0.03125 C 1.957031 -0.0390625 1.953125 -0.0625 1.953125 -0.09375 C 1.953125 -0.125 1.953125 -0.164062 1.953125 -0.21875 C 1.953125 -0.257812 1.953125 -0.304688 1.953125 -0.359375 C 1.953125 -0.421875 1.945312 -0.484375 1.9375 -0.546875 C 1.9375 -0.648438 1.929688 -0.742188 1.921875 -0.828125 C 1.921875 -0.910156 1.921875 -0.976562 1.921875 -1.03125 C 1.910156 -1.25 1.90625 -1.359375 1.90625 -1.359375 C 1.90625 -1.359375 1.742188 -1.363281 1.421875 -1.375 C 1.265625 -1.382812 1.144531 -1.390625 1.0625 -1.390625 C 0.988281 -1.390625 0.953125 -1.390625 0.953125 -1.390625 C 0.941406 -1.390625 0.9375 -1.351562 0.9375 -1.28125 C 0.9375 -1.207031 0.9375 -1.097656 0.9375 -0.953125 C 0.925781 -0.910156 0.921875 -0.851562 0.921875 -0.78125 C 0.921875 -0.71875 0.914062 -0.65625 0.90625 -0.59375 C 0.90625 -0.53125 0.90625 -0.46875 0.90625 -0.40625 C 0.90625 -0.351562 0.90625 -0.316406 0.90625 -0.296875 C 0.90625 -0.222656 0.90625 -0.164062 0.90625 -0.125 C 0.90625 -0.0820312 0.90625 -0.0507812 0.90625 -0.03125 L 0.90625 0 L 0.34375 0 L 0.3125 -0.9375 C 0.300781 -1.363281 0.289062 -1.691406 0.28125 -1.921875 C 0.269531 -2.148438 0.265625 -2.285156 0.265625 -2.328125 C 0.253906 -2.472656 0.25 -2.585938 0.25 -2.671875 C 0.25 -2.765625 0.25 -2.828125 0.25 -2.859375 Z M 0.25 -2.859375 "/></g></g></g><g fill="#df2935" fill-opacity="1"><g transform="translate(137.33649, 14.663089)"><g><path d="M 1.609375 -2.28125 L 1.5625 -2.4375 C 1.5625 -2.445312 1.554688 -2.460938 1.546875 -2.484375 C 1.535156 -2.484375 1.523438 -2.445312 1.515625 -2.375 C 1.503906 -2.34375 1.488281 -2.296875 1.46875 -2.234375 C 1.445312 -2.179688 1.414062 -2.101562 1.375 -2 C 1.363281 -1.976562 1.351562 -1.945312 1.34375 -1.90625 C 1.332031 -1.875 1.320312 -1.828125 1.3125 -1.765625 C 1.289062 -1.710938 1.269531 -1.671875 1.25 -1.640625 C 1.238281 -1.609375 1.226562 -1.582031 1.21875 -1.5625 L 1.171875 -1.390625 L 1.234375 -1.375 C 1.253906 -1.375 1.289062 -1.375 1.34375 -1.375 C 1.40625 -1.375 1.484375 -1.367188 1.578125 -1.359375 C 1.679688 -1.347656 1.753906 -1.34375 1.796875 -1.34375 C 1.847656 -1.34375 1.875 -1.34375 1.875 -1.34375 C 1.882812 -1.34375 1.882812 -1.351562 1.875 -1.375 C 1.863281 -1.40625 1.851562 -1.445312 1.84375 -1.5 C 1.832031 -1.539062 1.816406 -1.59375 1.796875 -1.65625 C 1.773438 -1.71875 1.753906 -1.785156 1.734375 -1.859375 C 1.734375 -1.867188 1.722656 -1.90625 1.703125 -1.96875 C 1.679688 -2.039062 1.648438 -2.144531 1.609375 -2.28125 Z M 1.25 -2.96875 C 1.332031 -2.96875 1.414062 -2.96875 1.5 -2.96875 C 1.582031 -2.96875 1.65625 -2.96875 1.71875 -2.96875 L 1.96875 -2.96875 L 1.984375 -2.90625 C 1.992188 -2.882812 2.019531 -2.800781 2.0625 -2.65625 C 2.113281 -2.519531 2.1875 -2.320312 2.28125 -2.0625 C 2.300781 -2 2.320312 -1.941406 2.34375 -1.890625 C 2.363281 -1.835938 2.382812 -1.78125 2.40625 -1.71875 C 2.414062 -1.707031 2.425781 -1.6875 2.4375 -1.65625 C 2.445312 -1.632812 2.457031 -1.597656 2.46875 -1.546875 C 2.476562 -1.503906 2.488281 -1.46875 2.5 -1.4375 C 2.519531 -1.40625 2.53125 -1.378906 2.53125 -1.359375 C 2.539062 -1.347656 2.5625 -1.296875 2.59375 -1.203125 C 2.625 -1.109375 2.671875 -0.972656 2.734375 -0.796875 C 2.890625 -0.367188 2.96875 -0.148438 2.96875 -0.140625 C 2.96875 -0.140625 2.851562 -0.0976562 2.625 -0.015625 C 2.507812 0.015625 2.429688 0.0351562 2.390625 0.046875 C 2.359375 0.0664062 2.34375 0.078125 2.34375 0.078125 C 2.332031 0.078125 2.328125 0.078125 2.328125 0.078125 C 2.328125 0.078125 2.285156 -0.0664062 2.203125 -0.359375 C 2.109375 -0.660156 2.0625 -0.8125 2.0625 -0.8125 C 2.0625 -0.8125 2.019531 -0.8125 1.9375 -0.8125 C 1.851562 -0.8125 1.75 -0.804688 1.625 -0.796875 C 1.507812 -0.796875 1.40625 -0.789062 1.3125 -0.78125 C 1.226562 -0.78125 1.160156 -0.78125 1.109375 -0.78125 L 1 -0.765625 L 0.984375 -0.734375 C 0.960938 -0.679688 0.929688 -0.597656 0.890625 -0.484375 C 0.859375 -0.367188 0.8125 -0.222656 0.75 -0.046875 C 0.726562 0.0234375 0.710938 0.0664062 0.703125 0.078125 C 0.691406 0.0664062 0.671875 0.0625 0.640625 0.0625 C 0.617188 0.0507812 0.59375 0.0390625 0.5625 0.03125 C 0.53125 0.0195312 0.488281 0.0078125 0.4375 0 C 0.25 -0.0507812 0.148438 -0.0820312 0.140625 -0.09375 C 0.140625 -0.09375 0.234375 -0.390625 0.421875 -0.984375 C 0.515625 -1.273438 0.609375 -1.570312 0.703125 -1.875 C 0.796875 -2.1875 0.890625 -2.515625 0.984375 -2.859375 L 1.03125 -2.96875 Z M 1.25 -2.96875 "/></g></g></g><g fill="#df2935" fill-opacity="1"><g transform="translate(141.281354, 14.663089)"><g><path d="M 0.234375 -2.96875 C 0.242188 -2.96875 0.367188 -2.96875 0.609375 -2.96875 L 0.96875 -2.96875 L 0.96875 -2.890625 C 0.96875 -2.847656 0.960938 -2.675781 0.953125 -2.375 C 0.941406 -2.0625 0.9375 -1.882812 0.9375 -1.84375 L 0.9375 -1.75 L 1.359375 -1.75 C 1.617188 -1.757812 1.753906 -1.765625 1.765625 -1.765625 C 1.765625 -1.773438 1.765625 -1.890625 1.765625 -2.109375 C 1.753906 -2.328125 1.75 -2.4375 1.75 -2.4375 C 1.738281 -2.4375 1.628906 -2.4375 1.421875 -2.4375 C 1.210938 -2.425781 1.097656 -2.421875 1.078125 -2.421875 L 1.03125 -2.421875 L 1.03125 -2.953125 L 1.0625 -2.953125 C 1.070312 -2.953125 1.148438 -2.945312 1.296875 -2.9375 C 1.453125 -2.9375 1.671875 -2.9375 1.953125 -2.9375 C 2.234375 -2.9375 2.375 -2.929688 2.375 -2.921875 C 2.375 -2.921875 2.375 -2.867188 2.375 -2.765625 C 2.363281 -2.703125 2.351562 -2.601562 2.34375 -2.46875 C 2.332031 -2.34375 2.320312 -2.175781 2.3125 -1.96875 C 2.289062 -1.757812 2.273438 -1.597656 2.265625 -1.484375 C 2.265625 -1.378906 2.265625 -1.316406 2.265625 -1.296875 L 2.25 -1.25 L 2.140625 -1.265625 C 2.066406 -1.265625 2.03125 -1.257812 2.03125 -1.25 C 2.03125 -1.25 2.039062 -1.21875 2.0625 -1.15625 C 2.09375 -1.09375 2.140625 -1.003906 2.203125 -0.890625 C 2.390625 -0.484375 2.484375 -0.273438 2.484375 -0.265625 C 2.484375 -0.265625 2.421875 -0.238281 2.296875 -0.1875 C 2.203125 -0.144531 2.128906 -0.113281 2.078125 -0.09375 C 2.023438 -0.0703125 1.992188 -0.0625 1.984375 -0.0625 C 1.941406 -0.0390625 1.910156 -0.0234375 1.890625 -0.015625 C 1.878906 -0.015625 1.867188 -0.015625 1.859375 -0.015625 C 1.859375 -0.015625 1.789062 -0.222656 1.65625 -0.640625 C 1.53125 -1.054688 1.457031 -1.265625 1.4375 -1.265625 C 1.4375 -1.265625 1.351562 -1.269531 1.1875 -1.28125 L 0.921875 -1.28125 L 0.921875 -1.15625 C 0.910156 -0.957031 0.898438 -0.769531 0.890625 -0.59375 C 0.890625 -0.414062 0.890625 -0.242188 0.890625 -0.078125 L 0.890625 0 L 0.421875 0 C 0.398438 0 0.378906 0 0.359375 0 C 0.359375 -0.0078125 0.351562 -0.0859375 0.34375 -0.234375 C 0.332031 -0.441406 0.328125 -0.675781 0.328125 -0.9375 C 0.328125 -0.945312 0.320312 -0.984375 0.3125 -1.046875 C 0.3125 -1.117188 0.3125 -1.21875 0.3125 -1.34375 C 0.300781 -1.46875 0.289062 -1.570312 0.28125 -1.65625 C 0.28125 -1.738281 0.28125 -1.804688 0.28125 -1.859375 C 0.28125 -1.878906 0.28125 -1.910156 0.28125 -1.953125 C 0.28125 -1.992188 0.28125 -2.039062 0.28125 -2.09375 C 0.269531 -2.21875 0.257812 -2.320312 0.25 -2.40625 C 0.25 -2.488281 0.25 -2.5625 0.25 -2.625 C 0.238281 -2.851562 0.234375 -2.96875 0.234375 -2.96875 Z M 0.234375 -2.96875 "/></g></g></g><g fill="#df2935" fill-opacity="1"><g transform="translate(144.737889, 14.663089)"><g><path d="M 0.25 -2.9375 C 0.25 -2.9375 0.363281 -2.9375 0.59375 -2.9375 L 0.9375 -2.9375 L 0.9375 -2.828125 C 0.9375 -2.816406 0.9375 -2.800781 0.9375 -2.78125 C 0.9375 -2.769531 0.9375 -2.75 0.9375 -2.71875 C 0.9375 -2.695312 0.9375 -2.664062 0.9375 -2.625 C 0.9375 -2.582031 0.929688 -2.539062 0.921875 -2.5 C 0.921875 -2.457031 0.921875 -2.414062 0.921875 -2.375 C 0.921875 -2.332031 0.921875 -2.289062 0.921875 -2.25 C 0.910156 -1.957031 0.90625 -1.804688 0.90625 -1.796875 C 0.914062 -1.785156 1.175781 -1.773438 1.6875 -1.765625 C 1.71875 -1.753906 1.765625 -1.75 1.828125 -1.75 C 1.890625 -1.75 1.972656 -1.742188 2.078125 -1.734375 L 2.1875 -1.734375 L 2.1875 -1.25 L 2.125 -1.25 C 2.101562 -1.238281 2.0625 -1.234375 2 -1.234375 C 1.9375 -1.234375 1.847656 -1.234375 1.734375 -1.234375 C 1.453125 -1.222656 1.242188 -1.210938 1.109375 -1.203125 C 0.972656 -1.191406 0.90625 -1.1875 0.90625 -1.1875 C 0.894531 -1.1875 0.890625 -1.113281 0.890625 -0.96875 C 0.890625 -0.894531 0.882812 -0.828125 0.875 -0.765625 C 0.875 -0.710938 0.875 -0.671875 0.875 -0.640625 L 0.875 -0.5625 L 1 -0.578125 C 1.019531 -0.578125 1.039062 -0.578125 1.0625 -0.578125 C 1.082031 -0.578125 1.109375 -0.578125 1.140625 -0.578125 C 1.171875 -0.585938 1.195312 -0.59375 1.21875 -0.59375 C 1.25 -0.59375 1.269531 -0.59375 1.28125 -0.59375 C 1.425781 -0.59375 1.546875 -0.597656 1.640625 -0.609375 C 1.785156 -0.609375 1.90625 -0.609375 2 -0.609375 C 2.101562 -0.617188 2.179688 -0.628906 2.234375 -0.640625 L 2.3125 -0.640625 L 2.3125 0.015625 L 2.203125 0.015625 C 2.191406 0.015625 2.175781 0.015625 2.15625 0.015625 C 2.144531 0.015625 2.128906 0.015625 2.109375 0.015625 C 2.085938 0.015625 2.0625 0.015625 2.03125 0.015625 C 2 0.015625 1.960938 0.0078125 1.921875 0 C 1.890625 0 1.851562 0 1.8125 0 C 1.78125 0 1.757812 0 1.75 0 C 1.644531 -0.0078125 1.546875 -0.015625 1.453125 -0.015625 C 1.359375 -0.015625 1.265625 -0.015625 1.171875 -0.015625 C 1.097656 -0.0234375 1.035156 -0.03125 0.984375 -0.03125 C 0.941406 -0.03125 0.914062 -0.03125 0.90625 -0.03125 C 0.875 -0.03125 0.859375 -0.0234375 0.859375 -0.015625 C 0.859375 -0.00390625 0.773438 0 0.609375 0 C 0.429688 0 0.34375 -0.00390625 0.34375 -0.015625 C 0.34375 -0.0976562 0.332031 -0.34375 0.3125 -0.75 C 0.300781 -1.164062 0.28125 -1.753906 0.25 -2.515625 C 0.238281 -2.785156 0.238281 -2.925781 0.25 -2.9375 Z M 1.90625 -2.953125 C 2 -2.960938 2.070312 -2.96875 2.125 -2.96875 C 2.175781 -2.96875 2.207031 -2.96875 2.21875 -2.96875 L 2.265625 -2.96875 L 2.265625 -2.34375 L 2.234375 -2.34375 C 2.210938 -2.34375 2.148438 -2.34375 2.046875 -2.34375 C 1.941406 -2.351562 1.804688 -2.363281 1.640625 -2.375 C 1.460938 -2.382812 1.328125 -2.390625 1.234375 -2.390625 C 1.140625 -2.390625 1.078125 -2.390625 1.046875 -2.390625 L 1.015625 -2.40625 L 1.015625 -2.890625 L 1.078125 -2.890625 C 1.085938 -2.890625 1.113281 -2.890625 1.15625 -2.890625 C 1.207031 -2.898438 1.28125 -2.90625 1.375 -2.90625 C 1.445312 -2.914062 1.53125 -2.921875 1.625 -2.921875 C 1.71875 -2.929688 1.8125 -2.941406 1.90625 -2.953125 Z M 1.90625 -2.953125 "/></g></g></g><g fill="#df2935" fill-opacity="1"><g transform="translate(148.088264, 14.663089)"><g/></g></g><g fill="#df2935" fill-opacity="1"><g transform="translate(150.211438, 14.663089)"><g><path d="M 0.359375 -0.640625 L 0.34375 -0.671875 L 0.71875 -0.671875 C 0.96875 -0.671875 1.09375 -0.664062 1.09375 -0.65625 C 1.09375 -0.644531 1.09375 -0.625 1.09375 -0.59375 C 1.082031 -0.5625 1.070312 -0.523438 1.0625 -0.484375 C 1.0625 -0.453125 1.054688 -0.410156 1.046875 -0.359375 C 1.035156 -0.253906 1.023438 -0.171875 1.015625 -0.109375 C 1.015625 -0.0546875 1.007812 -0.03125 1 -0.03125 L 1 0 L 0.4375 0 L 0.4375 -0.09375 C 0.425781 -0.175781 0.410156 -0.265625 0.390625 -0.359375 C 0.378906 -0.453125 0.367188 -0.546875 0.359375 -0.640625 Z M 0.359375 -0.640625 "/></g></g></g><g fill="#df2935" fill-opacity="1"><g transform="translate(152.576655, 14.663089)"><g/></g></g><g fill="#df2935" fill-opacity="1"><g transform="translate(154.699826, 14.663089)"><g><path d="M 0.234375 -2.84375 L 0.234375 -2.90625 L 0.9375 -2.90625 L 0.9375 -2.84375 C 0.9375 -2.820312 0.929688 -2.664062 0.921875 -2.375 C 0.910156 -2.082031 0.890625 -1.648438 0.859375 -1.078125 C 0.859375 -0.941406 0.851562 -0.835938 0.84375 -0.765625 C 0.84375 -0.703125 0.84375 -0.664062 0.84375 -0.65625 L 0.84375 -0.609375 L 1.8125 -0.609375 L 1.8125 -0.640625 C 1.800781 -0.660156 1.796875 -0.75 1.796875 -0.90625 C 1.785156 -1.0625 1.78125 -1.160156 1.78125 -1.203125 L 1.78125 -1.25 L 1.671875 -1.234375 C 1.640625 -1.234375 1.597656 -1.234375 1.546875 -1.234375 C 1.503906 -1.234375 1.453125 -1.234375 1.390625 -1.234375 L 1.1875 -1.21875 L 1.1875 -1.828125 L 1.234375 -1.828125 C 1.234375 -1.828125 1.25 -1.828125 1.28125 -1.828125 C 1.320312 -1.828125 1.378906 -1.828125 1.453125 -1.828125 C 1.515625 -1.816406 1.617188 -1.804688 1.765625 -1.796875 C 1.910156 -1.796875 2.101562 -1.789062 2.34375 -1.78125 L 2.484375 -1.78125 L 2.484375 -1.28125 L 2.4375 -1.28125 C 2.414062 -1.28125 2.398438 -1.28125 2.390625 -1.28125 C 2.390625 -1.269531 2.375 -1.054688 2.34375 -0.640625 L 2.328125 0 L 2.078125 0 C 2.023438 0 1.976562 0 1.9375 0 C 1.90625 0 1.878906 0 1.859375 0 C 1.835938 -0.0078125 1.828125 -0.015625 1.828125 -0.015625 C 1.816406 -0.0234375 1.796875 -0.03125 1.765625 -0.03125 C 1.734375 -0.0390625 1.679688 -0.046875 1.609375 -0.046875 C 1.546875 -0.046875 1.453125 -0.046875 1.328125 -0.046875 C 1.203125 -0.0351562 1.101562 -0.03125 1.03125 -0.03125 C 0.957031 -0.03125 0.910156 -0.03125 0.890625 -0.03125 C 0.835938 -0.03125 0.8125 -0.0234375 0.8125 -0.015625 C 0.8125 -0.00390625 0.800781 0 0.78125 0 L 0.359375 0 L 0.34375 -0.078125 C 0.34375 -0.0976562 0.335938 -0.160156 0.328125 -0.265625 C 0.328125 -0.367188 0.328125 -0.507812 0.328125 -0.6875 C 0.316406 -0.863281 0.304688 -1.085938 0.296875 -1.359375 C 0.285156 -1.628906 0.273438 -1.945312 0.265625 -2.3125 C 0.253906 -2.476562 0.242188 -2.601562 0.234375 -2.6875 C 0.234375 -2.78125 0.234375 -2.832031 0.234375 -2.84375 Z M 2.15625 -2.96875 C 2.257812 -2.96875 2.320312 -2.96875 2.34375 -2.96875 L 2.375 -2.96875 L 2.375 -2.34375 L 1.03125 -2.34375 L 1.03125 -2.859375 L 1.046875 -2.875 C 1.054688 -2.875 1.148438 -2.878906 1.328125 -2.890625 C 1.484375 -2.898438 1.628906 -2.910156 1.765625 -2.921875 C 1.898438 -2.929688 2.03125 -2.945312 2.15625 -2.96875 Z M 2.15625 -2.96875 "/></g></g></g><g fill="#df2935" fill-opacity="1"><g transform="translate(158.169095, 14.663089)"><g><path d="M 0.234375 -2.96875 C 0.242188 -2.96875 0.367188 -2.96875 0.609375 -2.96875 L 0.96875 -2.96875 L 0.96875 -2.890625 C 0.96875 -2.847656 0.960938 -2.675781 0.953125 -2.375 C 0.941406 -2.0625 0.9375 -1.882812 0.9375 -1.84375 L 0.9375 -1.75 L 1.359375 -1.75 C 1.617188 -1.757812 1.753906 -1.765625 1.765625 -1.765625 C 1.765625 -1.773438 1.765625 -1.890625 1.765625 -2.109375 C 1.753906 -2.328125 1.75 -2.4375 1.75 -2.4375 C 1.738281 -2.4375 1.628906 -2.4375 1.421875 -2.4375 C 1.210938 -2.425781 1.097656 -2.421875 1.078125 -2.421875 L 1.03125 -2.421875 L 1.03125 -2.953125 L 1.0625 -2.953125 C 1.070312 -2.953125 1.148438 -2.945312 1.296875 -2.9375 C 1.453125 -2.9375 1.671875 -2.9375 1.953125 -2.9375 C 2.234375 -2.9375 2.375 -2.929688 2.375 -2.921875 C 2.375 -2.921875 2.375 -2.867188 2.375 -2.765625 C 2.363281 -2.703125 2.351562 -2.601562 2.34375 -2.46875 C 2.332031 -2.34375 2.320312 -2.175781 2.3125 -1.96875 C 2.289062 -1.757812 2.273438 -1.597656 2.265625 -1.484375 C 2.265625 -1.378906 2.265625 -1.316406 2.265625 -1.296875 L 2.25 -1.25 L 2.140625 -1.265625 C 2.066406 -1.265625 2.03125 -1.257812 2.03125 -1.25 C 2.03125 -1.25 2.039062 -1.21875 2.0625 -1.15625 C 2.09375 -1.09375 2.140625 -1.003906 2.203125 -0.890625 C 2.390625 -0.484375 2.484375 -0.273438 2.484375 -0.265625 C 2.484375 -0.265625 2.421875 -0.238281 2.296875 -0.1875 C 2.203125 -0.144531 2.128906 -0.113281 2.078125 -0.09375 C 2.023438 -0.0703125 1.992188 -0.0625 1.984375 -0.0625 C 1.941406 -0.0390625 1.910156 -0.0234375 1.890625 -0.015625 C 1.878906 -0.015625 1.867188 -0.015625 1.859375 -0.015625 C 1.859375 -0.015625 1.789062 -0.222656 1.65625 -0.640625 C 1.53125 -1.054688 1.457031 -1.265625 1.4375 -1.265625 C 1.4375 -1.265625 1.351562 -1.269531 1.1875 -1.28125 L 0.921875 -1.28125 L 0.921875 -1.15625 C 0.910156 -0.957031 0.898438 -0.769531 0.890625 -0.59375 C 0.890625 -0.414062 0.890625 -0.242188 0.890625 -0.078125 L 0.890625 0 L 0.421875 0 C 0.398438 0 0.378906 0 0.359375 0 C 0.359375 -0.0078125 0.351562 -0.0859375 0.34375 -0.234375 C 0.332031 -0.441406 0.328125 -0.675781 0.328125 -0.9375 C 0.328125 -0.945312 0.320312 -0.984375 0.3125 -1.046875 C 0.3125 -1.117188 0.3125 -1.21875 0.3125 -1.34375 C 0.300781 -1.46875 0.289062 -1.570312 0.28125 -1.65625 C 0.28125 -1.738281 0.28125 -1.804688 0.28125 -1.859375 C 0.28125 -1.878906 0.28125 -1.910156 0.28125 -1.953125 C 0.28125 -1.992188 0.28125 -2.039062 0.28125 -2.09375 C 0.269531 -2.21875 0.257812 -2.320312 0.25 -2.40625 C 0.25 -2.488281 0.25 -2.5625 0.25 -2.625 C 0.238281 -2.851562 0.234375 -2.96875 0.234375 -2.96875 Z M 0.234375 -2.96875 "/></g></g></g><g fill="#df2935" fill-opacity="1"><g transform="translate(161.625627, 14.663089)"><g><path d="M 1.703125 -2.40625 L 1.6875 -2.4375 L 1.265625 -2.4375 L 1.1875 -2.328125 C 1.175781 -2.296875 1.15625 -2.257812 1.125 -2.21875 C 1.101562 -2.175781 1.078125 -2.132812 1.046875 -2.09375 C 1.035156 -2.0625 1.019531 -2.03125 1 -2 C 0.976562 -1.96875 0.957031 -1.9375 0.9375 -1.90625 C 0.914062 -1.875 0.894531 -1.84375 0.875 -1.8125 C 0.863281 -1.789062 0.851562 -1.773438 0.84375 -1.765625 L 0.8125 -1.703125 L 0.890625 -1.359375 C 0.941406 -1.085938 0.972656 -0.925781 0.984375 -0.875 C 0.992188 -0.832031 1.003906 -0.789062 1.015625 -0.75 C 1.023438 -0.707031 1.03125 -0.675781 1.03125 -0.65625 L 1.046875 -0.5625 L 1.484375 -0.5625 C 1.554688 -0.570312 1.617188 -0.578125 1.671875 -0.578125 C 1.722656 -0.578125 1.769531 -0.578125 1.8125 -0.578125 C 1.851562 -0.578125 1.890625 -0.578125 1.921875 -0.578125 C 1.921875 -0.578125 1.941406 -0.691406 1.984375 -0.921875 C 1.992188 -0.992188 2.003906 -1.054688 2.015625 -1.109375 C 2.023438 -1.160156 2.035156 -1.210938 2.046875 -1.265625 C 2.066406 -1.335938 2.082031 -1.398438 2.09375 -1.453125 C 2.101562 -1.503906 2.109375 -1.535156 2.109375 -1.546875 L 2.140625 -1.71875 L 1.9375 -2.046875 C 1.863281 -2.160156 1.804688 -2.242188 1.765625 -2.296875 C 1.734375 -2.359375 1.710938 -2.394531 1.703125 -2.40625 Z M 0.640625 -2.8125 L 0.703125 -2.96875 L 2.21875 -2.96875 L 2.328125 -2.765625 C 2.335938 -2.742188 2.351562 -2.703125 2.375 -2.640625 C 2.40625 -2.578125 2.4375 -2.503906 2.46875 -2.421875 C 2.507812 -2.335938 2.550781 -2.25 2.59375 -2.15625 C 2.632812 -2.0625 2.671875 -1.972656 2.703125 -1.890625 C 2.734375 -1.816406 2.757812 -1.753906 2.78125 -1.703125 C 2.8125 -1.648438 2.828125 -1.617188 2.828125 -1.609375 C 2.828125 -1.597656 2.816406 -1.554688 2.796875 -1.484375 C 2.773438 -1.421875 2.75 -1.34375 2.71875 -1.25 C 2.695312 -1.15625 2.664062 -1.050781 2.625 -0.9375 C 2.59375 -0.832031 2.5625 -0.726562 2.53125 -0.625 C 2.5 -0.519531 2.472656 -0.429688 2.453125 -0.359375 C 2.429688 -0.285156 2.414062 -0.238281 2.40625 -0.21875 L 2.34375 -0.015625 L 1.484375 0 L 0.640625 0 L 0.59375 -0.125 C 0.570312 -0.15625 0.503906 -0.359375 0.390625 -0.734375 C 0.378906 -0.773438 0.363281 -0.816406 0.34375 -0.859375 C 0.332031 -0.898438 0.320312 -0.945312 0.3125 -1 C 0.28125 -1.082031 0.25 -1.164062 0.21875 -1.25 C 0.195312 -1.332031 0.1875 -1.378906 0.1875 -1.390625 L 0.125 -1.5625 L 0.140625 -1.59375 C 0.148438 -1.601562 0.179688 -1.679688 0.234375 -1.828125 C 0.296875 -1.984375 0.390625 -2.210938 0.515625 -2.515625 C 0.523438 -2.546875 0.539062 -2.585938 0.5625 -2.640625 C 0.582031 -2.691406 0.609375 -2.75 0.640625 -2.8125 Z M 0.640625 -2.8125 "/></g></g></g><g fill="#df2935" fill-opacity="1"><g transform="translate(165.421868, 14.663089)"><g><path d="M 2.78125 -2.90625 C 2.800781 -2.988281 2.8125 -3.03125 2.8125 -3.03125 C 2.820312 -3.03125 2.859375 -3.019531 2.921875 -3 C 2.984375 -2.988281 3.066406 -2.96875 3.171875 -2.9375 C 3.398438 -2.875 3.515625 -2.835938 3.515625 -2.828125 C 3.515625 -2.828125 3.4375 -2.507812 3.28125 -1.875 C 3.226562 -1.6875 3.175781 -1.488281 3.125 -1.28125 C 3.082031 -1.070312 3.03125 -0.851562 2.96875 -0.625 C 2.875 -0.257812 2.828125 -0.0664062 2.828125 -0.046875 L 2.828125 -0.015625 L 2.640625 -0.015625 C 2.335938 -0.00390625 2.1875 -0.00390625 2.1875 -0.015625 C 2.175781 -0.015625 2.15625 -0.0976562 2.125 -0.265625 C 2.101562 -0.359375 2.078125 -0.472656 2.046875 -0.609375 C 2.023438 -0.753906 1.992188 -0.921875 1.953125 -1.109375 C 1.878906 -1.472656 1.832031 -1.664062 1.8125 -1.6875 C 1.8125 -1.695312 1.8125 -1.695312 1.8125 -1.6875 C 1.8125 -1.675781 1.8125 -1.664062 1.8125 -1.65625 C 1.8125 -1.65625 1.804688 -1.648438 1.796875 -1.640625 C 1.773438 -1.492188 1.742188 -1.304688 1.703125 -1.078125 C 1.671875 -0.859375 1.628906 -0.585938 1.578125 -0.265625 C 1.546875 -0.0976562 1.53125 -0.0078125 1.53125 0 C 1.53125 0 1.421875 -0.00390625 1.203125 -0.015625 L 0.875 -0.015625 L 0.796875 -0.3125 C 0.765625 -0.414062 0.738281 -0.5 0.71875 -0.5625 C 0.707031 -0.625 0.703125 -0.660156 0.703125 -0.671875 C 0.679688 -0.742188 0.648438 -0.84375 0.609375 -0.96875 C 0.566406 -1.101562 0.519531 -1.269531 0.46875 -1.46875 C 0.457031 -1.519531 0.441406 -1.570312 0.421875 -1.625 C 0.398438 -1.675781 0.382812 -1.722656 0.375 -1.765625 C 0.363281 -1.816406 0.351562 -1.859375 0.34375 -1.890625 C 0.332031 -1.929688 0.328125 -1.957031 0.328125 -1.96875 C 0.316406 -1.988281 0.300781 -2.019531 0.28125 -2.0625 C 0.269531 -2.113281 0.253906 -2.171875 0.234375 -2.234375 C 0.128906 -2.597656 0.0820312 -2.785156 0.09375 -2.796875 C 0.09375 -2.804688 0.109375 -2.8125 0.140625 -2.8125 C 0.171875 -2.820312 0.210938 -2.832031 0.265625 -2.84375 C 0.316406 -2.863281 0.367188 -2.878906 0.421875 -2.890625 C 0.484375 -2.910156 0.539062 -2.925781 0.59375 -2.9375 C 0.65625 -2.957031 0.703125 -2.972656 0.734375 -2.984375 C 0.773438 -2.992188 0.796875 -3 0.796875 -3 C 0.804688 -3 0.820312 -2.929688 0.84375 -2.796875 C 0.945312 -2.234375 1.023438 -1.800781 1.078125 -1.5 C 1.128906 -1.195312 1.160156 -1.023438 1.171875 -0.984375 C 1.179688 -0.890625 1.191406 -0.84375 1.203125 -0.84375 C 1.203125 -0.851562 1.207031 -0.921875 1.21875 -1.046875 C 1.226562 -1.171875 1.25 -1.351562 1.28125 -1.59375 C 1.300781 -1.78125 1.316406 -1.953125 1.328125 -2.109375 C 1.347656 -2.273438 1.363281 -2.425781 1.375 -2.5625 C 1.382812 -2.65625 1.390625 -2.722656 1.390625 -2.765625 C 1.398438 -2.816406 1.40625 -2.847656 1.40625 -2.859375 L 1.421875 -2.890625 L 2.171875 -2.890625 L 2.21875 -2.59375 C 2.226562 -2.570312 2.234375 -2.523438 2.234375 -2.453125 C 2.242188 -2.390625 2.257812 -2.304688 2.28125 -2.203125 C 2.289062 -2.085938 2.300781 -1.988281 2.3125 -1.90625 C 2.320312 -1.820312 2.332031 -1.753906 2.34375 -1.703125 C 2.351562 -1.648438 2.363281 -1.597656 2.375 -1.546875 C 2.382812 -1.492188 2.390625 -1.4375 2.390625 -1.375 C 2.410156 -1.257812 2.425781 -1.164062 2.4375 -1.09375 C 2.445312 -1.019531 2.453125 -0.972656 2.453125 -0.953125 L 2.484375 -0.84375 C 2.484375 -0.84375 2.488281 -0.878906 2.5 -0.953125 C 2.507812 -1.023438 2.523438 -1.125 2.546875 -1.25 C 2.554688 -1.320312 2.5625 -1.378906 2.5625 -1.421875 C 2.570312 -1.460938 2.582031 -1.492188 2.59375 -1.515625 C 2.625 -1.710938 2.65625 -1.925781 2.6875 -2.15625 C 2.71875 -2.382812 2.75 -2.632812 2.78125 -2.90625 Z M 2.78125 -2.90625 "/></g></g></g><path fill="#df2935" d="M 111.632812 64.535156 C 111.632812 64.695312 111.578125 64.832031 111.464844 64.941406 C 111.355469 65.054688 111.21875 65.109375 111.058594 65.109375 C 110.902344 65.109375 110.765625 65.054688 110.652344 64.941406 C 110.542969 64.832031 110.484375 64.695312 110.484375 64.535156 C 110.484375 64.378906 110.542969 64.242188 110.652344 64.128906 C 110.765625 64.019531 110.902344 63.960938 111.058594 63.960938 C 111.21875 63.960938 111.355469 64.019531 111.464844 64.128906 C 111.578125 64.242188 111.632812 64.378906 111.632812 64.535156 Z M 111.632812 64.535156 " fill-opacity="1" fill-rule="nonzero"/><path fill="#df2935" d="M 120.253906 64.535156 C 120.253906 64.695312 120.199219 64.832031 120.085938 64.941406 C 119.972656 65.054688 119.835938 65.109375 119.679688 65.109375 C 119.519531 65.109375 119.386719 65.054688 119.273438 64.941406 C 119.160156 64.832031 119.105469 64.695312 119.105469 64.535156 C 119.105469 64.378906 119.160156 64.242188 119.273438 64.128906 C 119.386719 64.019531 119.519531 63.960938 119.679688 63.960938 C 119.835938 63.960938 119.972656 64.019531 120.085938 64.128906 C 120.199219 64.242188 120.253906 64.378906 120.253906 64.535156 Z M 120.253906 64.535156 " fill-opacity="1" fill-rule="nonzero"/><path fill="#df2935" d="M 128.875 64.535156 C 128.875 64.695312 128.820312 64.832031 128.707031 64.941406 C 128.59375 65.054688 128.457031 65.109375 128.300781 65.109375 C 128.140625 65.109375 128.007812 65.054688 127.894531 64.941406 C 127.78125 64.832031 127.726562 64.695312 127.726562 64.535156 C 127.726562 64.378906 127.78125 64.242188 127.894531 64.128906 C 128.007812 64.019531 128.140625 63.960938 128.300781 63.960938 C 128.457031 63.960938 128.59375 64.019531 128.707031 64.128906 C 128.820312 64.242188 128.875 64.378906 128.875 64.535156 Z M 128.875 64.535156 " fill-opacity="1" fill-rule="nonzero"/><path fill="#df2935" d="M 137.496094 64.535156 C 137.496094 64.695312 137.4375 64.832031 137.324219 64.941406 C 137.214844 65.054688 137.078125 65.109375 136.917969 65.109375 C 136.761719 65.109375 136.625 65.054688 136.511719 64.941406 C 136.402344 64.832031 136.34375 64.695312 136.34375 64.535156 C 136.34375 64.378906 136.402344 64.242188 136.511719 64.128906 C 136.625 64.019531 136.761719 63.960938 136.917969 63.960938 C 137.078125 63.960938 137.214844 64.019531 137.324219 64.128906 C 137.4375 64.242188 137.496094 64.378906 137.496094 64.535156 Z M 137.496094 64.535156 " fill-opacity="1" fill-rule="nonzero"/><g clip-path="url(#e32984f873)"><path fill="#df2935" d="M 124.113281 67.289062 C 124.113281 65.476562 124.785156 64.535156 126.074219 64.535156 C 124.785156 64.535156 124.113281 63.59375 124.113281 61.785156 C 124.113281 63.59375 123.441406 64.535156 122.152344 64.535156 C 123.441406 64.535156 124.113281 65.480469 124.113281 67.289062 Z M 124.113281 67.289062 " fill-opacity="1" fill-rule="nonzero"/></g><path fill="#df2935" d="M 132.789062 66.425781 C 132.789062 65.183594 133.25 64.535156 134.136719 64.535156 C 133.253906 64.535156 132.789062 63.890625 132.789062 62.648438 C 132.789062 63.890625 132.332031 64.535156 131.445312 64.535156 C 132.332031 64.535156 132.789062 65.183594 132.789062 66.425781 Z M 132.789062 66.425781 " fill-opacity="1" fill-rule="nonzero"/><path fill="#df2935" d="M 115.433594 66.425781 C 115.433594 65.183594 115.894531 64.535156 116.78125 64.535156 C 115.898438 64.535156 115.433594 63.890625 115.433594 62.648438 C 115.433594 63.890625 114.976562 64.535156 114.089844 64.535156 C 114.976562 64.535156 115.433594 65.183594 115.433594 66.425781 Z M 115.433594 66.425781 " fill-opacity="1" fill-rule="nonzero"/><path fill="#df2935" d="M 103.011719 64.535156 C 103.011719 64.695312 102.957031 64.832031 102.84375 64.941406 C 102.730469 65.054688 102.597656 65.109375 102.4375 65.109375 C 102.28125 65.109375 102.144531 65.054688 102.03125 64.941406 C 101.917969 64.832031 101.863281 64.695312 101.863281 64.535156 C 101.863281 64.378906 101.917969 64.242188 102.03125 64.128906 C 102.144531 64.019531 102.28125 63.960938 102.4375 63.960938 C 102.597656 63.960938 102.730469 64.019531 102.84375 64.128906 C 102.957031 64.242188 103.011719 64.378906 103.011719 64.535156 Z M 103.011719 64.535156 " fill-opacity="1" fill-rule="nonzero"/><path fill="#df2935" d="M 94.390625 64.535156 C 94.390625 64.695312 94.335938 64.832031 94.222656 64.941406 C 94.109375 65.054688 93.976562 65.109375 93.816406 65.109375 C 93.65625 65.109375 93.523438 65.054688 93.410156 64.941406 C 93.296875 64.832031 93.242188 64.695312 93.242188 64.535156 C 93.242188 64.378906 93.296875 64.242188 93.410156 64.128906 C 93.523438 64.019531 93.65625 63.960938 93.816406 63.960938 C 93.976562 63.960938 94.109375 64.019531 94.222656 64.128906 C 94.335938 64.242188 94.390625 64.378906 94.390625 64.535156 Z M 94.390625 64.535156 " fill-opacity="1" fill-rule="nonzero"/><path fill="#df2935" d="M 85.773438 64.535156 C 85.773438 64.695312 85.714844 64.832031 85.605469 64.941406 C 85.492188 65.054688 85.355469 65.109375 85.199219 65.109375 C 85.039062 65.109375 84.902344 65.054688 84.792969 64.941406 C 84.679688 64.832031 84.621094 64.695312 84.621094 64.535156 C 84.621094 64.378906 84.679688 64.242188 84.792969 64.128906 C 84.902344 64.019531 85.039062 63.960938 85.199219 63.960938 C 85.355469 63.960938 85.492188 64.019531 85.605469 64.128906 C 85.714844 64.242188 85.773438 64.378906 85.773438 64.535156 Z M 85.773438 64.535156 " fill-opacity="1" fill-rule="nonzero"/><path fill="#df2935" d="M 77.152344 64.535156 C 77.152344 64.695312 77.09375 64.832031 76.980469 64.941406 C 76.871094 65.054688 76.734375 65.109375 76.574219 65.109375 C 76.417969 65.109375 76.28125 65.054688 76.167969 64.941406 C 76.058594 64.832031 76 64.695312 76 64.535156 C 76 64.378906 76.058594 64.242188 76.167969 64.128906 C 76.28125 64.019531 76.417969 63.960938 76.574219 63.960938 C 76.734375 63.960938 76.871094 64.019531 76.980469 64.128906 C 77.09375 64.242188 77.152344 64.378906 77.152344 64.535156 Z M 77.152344 64.535156 " fill-opacity="1" fill-rule="nonzero"/><g clip-path="url(#5f2895e3bf)"><path fill="#df2935" d="M 89.402344 67.289062 C 89.402344 65.476562 90.074219 64.535156 91.363281 64.535156 C 90.074219 64.535156 89.402344 63.59375 89.402344 61.785156 C 89.402344 63.59375 88.730469 64.535156 87.441406 64.535156 C 88.730469 64.535156 89.402344 65.480469 89.402344 67.289062 Z M 89.402344 67.289062 " fill-opacity="1" fill-rule="nonzero"/></g><g clip-path="url(#9072cff751)"><path fill="#df2935" d="M 143.429688 64.535156 C 142.140625 64.535156 141.46875 63.59375 141.46875 61.785156 C 141.46875 63.59375 140.796875 64.535156 139.507812 64.535156 C 140.796875 64.535156 141.46875 65.480469 141.46875 67.289062 C 141.46875 65.480469 142.140625 64.535156 143.429688 64.535156 Z M 143.429688 64.535156 " fill-opacity="1" fill-rule="nonzero"/></g><path fill="#df2935" d="M 146.117188 64.535156 C 146.117188 64.695312 146.058594 64.832031 145.949219 64.941406 C 145.835938 65.054688 145.699219 65.109375 145.542969 65.109375 C 145.382812 65.109375 145.246094 65.054688 145.136719 64.941406 C 145.023438 64.832031 144.964844 64.695312 144.964844 64.535156 C 144.964844 64.378906 145.023438 64.242188 145.136719 64.128906 C 145.246094 64.019531 145.382812 63.960938 145.542969 63.960938 C 145.699219 63.960938 145.835938 64.019531 145.949219 64.128906 C 146.058594 64.242188 146.117188 64.378906 146.117188 64.535156 Z M 146.117188 64.535156 " fill-opacity="1" fill-rule="nonzero"/><path fill="#df2935" d="M 154.738281 64.535156 C 154.738281 64.695312 154.679688 64.832031 154.570312 64.941406 C 154.457031 65.054688 154.320312 65.109375 154.164062 65.109375 C 154.003906 65.109375 153.867188 65.054688 153.757812 64.941406 C 153.644531 64.832031 153.589844 64.695312 153.589844 64.535156 C 153.589844 64.378906 153.644531 64.242188 153.757812 64.128906 C 153.867188 64.019531 154.003906 63.960938 154.164062 63.960938 C 154.320312 63.960938 154.457031 64.019531 154.570312 64.128906 C 154.679688 64.242188 154.738281 64.378906 154.738281 64.535156 Z M 154.738281 64.535156 " fill-opacity="1" fill-rule="nonzero"/><path fill="#df2935" d="M 150.144531 66.425781 C 150.144531 65.183594 150.605469 64.535156 151.492188 64.535156 C 150.609375 64.535156 150.144531 63.890625 150.144531 62.648438 C 150.144531 63.890625 149.6875 64.535156 148.800781 64.535156 C 149.6875 64.535156 150.144531 65.183594 150.144531 66.425781 Z M 150.144531 66.425781 " fill-opacity="1" fill-rule="nonzero"/><g clip-path="url(#2aa2ae5ef5)"><path fill="#df2935" d="M 158.824219 67.289062 C 158.824219 65.476562 159.496094 64.535156 160.785156 64.535156 C 159.496094 64.535156 158.824219 63.59375 158.824219 61.785156 C 158.824219 63.59375 158.152344 64.535156 156.863281 64.535156 C 158.152344 64.535156 158.824219 65.480469 158.824219 67.289062 Z M 158.824219 67.289062 " fill-opacity="1" fill-rule="nonzero"/></g><g clip-path="url(#e8413f0a7b)"><path fill="#df2935" d="M 72.046875 67.289062 C 72.046875 65.480469 72.71875 64.535156 74.007812 64.535156 C 72.71875 64.535156 72.046875 63.59375 72.046875 61.785156 C 72.046875 63.59375 71.375 64.535156 70.085938 64.535156 C 71.375 64.535156 72.046875 65.480469 72.046875 67.289062 Z M 72.046875 67.289062 " fill-opacity="1" fill-rule="nonzero"/></g><g clip-path="url(#2439a07d29)"><path fill="#df2935" d="M 108.71875 64.535156 C 107.429688 64.535156 106.757812 63.59375 106.757812 61.785156 C 106.757812 63.59375 106.085938 64.535156 104.796875 64.535156 C 106.085938 64.535156 106.757812 65.480469 106.757812 67.289062 C 106.757812 65.480469 107.429688 64.535156 108.71875 64.535156 Z M 108.71875 64.535156 " fill-opacity="1" fill-rule="nonzero"/></g><path fill="#df2935" d="M 80.722656 66.425781 C 80.722656 65.183594 81.183594 64.535156 82.070312 64.535156 C 81.1875 64.535156 80.722656 63.890625 80.722656 62.648438 C 80.722656 63.890625 80.265625 64.535156 79.378906 64.535156 C 80.265625 64.535156 80.722656 65.183594 80.722656 66.425781 Z M 80.722656 66.425781 " fill-opacity="1" fill-rule="nonzero"/><path fill="#df2935" d="M 98.078125 66.425781 C 98.078125 65.183594 98.539062 64.535156 99.425781 64.535156 C 98.542969 64.535156 98.078125 63.890625 98.078125 62.648438 C 98.078125 63.890625 97.621094 64.535156 96.734375 64.535156 C 97.621094 64.535156 98.078125 65.183594 98.078125 66.425781 Z M 98.078125 66.425781 " fill-opacity="1" fill-rule="nonzero"/></svg>